<?xml version="1.0" standalone="no"?>
<!DOCTYPE svg PUBLIC "-//W3C//DTD SVG 1.1//EN" "http://www.w3.org/Graphics/SVG/1.1/DTD/svg11.dtd" >
<svg xmlns="http://www.w3.org/2000/svg">
<metadata>
This is a custom SVG webfont generated by Font Squirrel.
</metadata>
<defs>
<font id="webfontFJkdwKNB" horiz-adv-x="720" >
<font-face units-per-em="1000" ascent="800" descent="-200" />
<missing-glyph horiz-adv-x="776" />
<glyph unicode=" "  horiz-adv-x="776" />
<glyph unicode="&#x09;" horiz-adv-x="776" />
<glyph unicode="&#xa0;" horiz-adv-x="776" />
<glyph unicode="!" horiz-adv-x="637" d="M902 863l-292 -260q-203 -185 -261 -296q-14 -28 -33 -28q-12 0 -12 19q0 23 17 68q11 30 37 73q37 62 40 66q157 297 159 300q125 224 155 224q-6 0 25.5 -8t86.5 -8l87 2q49 0 49 -28q0 -24 -19.5 -65t-38.5 -59zM298 95q-15 -41 -83 -107q-78 -76 -129 -76 q-26 0 -26 35q0 24 11 55q14 40 81 124q82 102 132 102q25 0 25 -51t-11 -82zM739 837l5 14q-49 11 -80 14q-7 -8 -44 -68q-39 -64 -43 -75l-12 -33q56 41 119 97q53 47 55 51z" />
<glyph unicode="&#x22;" horiz-adv-x="642" d="M730 638q-13 -35 -58 -106q-63 -99 -103 -99q-16 0 -16 26q0 29 11 60q16 44 58 86.5t49 60.5q1 4 14 64.5t14 64.5q31 86 63 86q13 0 13 -31q0 -40 -22 -129q-16 -63 -23 -83zM524 693q-20 -55 -68 -134q-70 -117 -119 -117q-16 0 -16 28q0 29 11 57q20 56 68.5 98 t59.5 74q1 2 12.5 51t13.5 54q28 77 58 77q17 0 17 -31q0 -56 -37 -157z" />
<glyph unicode="#" horiz-adv-x="776" d="M924 524q-21 -58 -53 -73q-21 -10 -79 -10h-81q-24 0 -38 -37q-7 -21 -7 -29q0 -14 16 -14q3 0 40 1.5t40 1.5q35 0 35 -35q0 -19 -12 -52q-28 -80 -70 -80h-90q-24 0 -56.5 -99t-62.5 -99q-13 0 -13 26q0 31 10 58l30 84q2 3 2 6q0 13 -16 13q-20 0 -78 -11 q-62 -12 -66.5 -19t-25.5 -56q-16 -39 -40 -58h-16q-2 4 -2 13q0 11 3 29q5 42 5 50q0 18 -9 18q-3 0 -45.5 -5.5t-46.5 -5.5q-44 0 -44 33q0 17 13 52q22 60 71 75q43 3 85 7q46 6 60 45q6 17 6 29q0 9 -3 16l-97 -8q-44 0 -44 35q0 15 9 38q11 31 29.5 54.5t96.5 35.5 q75 12 80 25l41 115q6 15 20 35q17 27 28 27t11 -17t-15.5 -71.5t-15.5 -70.5q0 -17 10 -17q20 0 72 9q68 11 73 24l28 76q5 14 30 57.5t36 54.5h16q3 -5 3 -24q-1 -19 -4 -28l-46 -125q-1 -4 -1 -7q0 -11 22 -11l123 5q45 0 45 -36q0 -17 -12 -50zM609 391q7 19 7 25 q0 13 -20 13q-48 0 -123 -18q-10 -2 -23 -37q-9 -25 -9 -27q0 -11 21 -11q50 0 124 18q11 2 23 37z" />
<glyph unicode="$" horiz-adv-x="529" d="M588 331q-30 -84 -93 -122q-32 -19 -161 -61l-38 -106q-6 -17 -37 -48h-15q-3 10 -3 23q0 28 18 79q13 37 13 44q0 2 -1 2q-14 11 -43 12q-32 0 -47 7q-9 5 -9 24q0 25 12 59q25 67 63 67q3 0 25 -2.5t25 -2.5q37 0 49 34q4 10 4 17q0 17 -30 23q-51 10 -59 14 q-22 9 -22 44q0 29 12 63q23 63 59 92q19 16 86 55l62 37l28 76q3 9 15 22q14 17 24 17q12 0 12 -20q0 -11 -4 -29q-4 -19 -4 -31q0 -18 10 -18q2 0 19 2.5t21 2.5q65 0 65 -46q0 -18 -10 -46q-21 -58 -60 -58q-3 0 -9.5 1t-9.5 1q-74 0 -84 -27q-1 -2 -1 -4q0 -13 29 -26 q50 -23 65 -34q37 -29 37 -75q0 -28 -13 -62zM465 333q-2 7 -16 15t-25 8q-17 0 -23 -19q-2 -6 -2 -10q0 -11 16 -11q30 0 50 17z" />
<glyph unicode="%" horiz-adv-x="837" d="M854 210q-24 -65 -68 -116q-59 -71 -127 -71q-81 0 -81 74q0 34 16 79q21 57 70 117q70 86 141 86q69 0 69 -72q0 -40 -20 -97zM1040 736q-13 -35 -51 -68l-91 -77q-162 -149 -460 -382q-274 -216 -288 -216q-13 0 -13 22q0 27 10 56q16 43 144 150q74 61 263 206 q175 134 234 186l120 106q99 85 122 85q18 0 18 -26q0 -19 -8 -42zM526 614q-21 -57 -75 -118q-70 -81 -139 -81q-57 0 -57 66q0 38 17 84q12 33 23 55q22 42 85.5 99t88.5 57q70 0 70 -85q0 -40 -13 -77zM775 209q-11 12 -47 12q-34 0 -42 -21q-1 -2 -1 -4q0 -11 29 -11 q45 0 61 24zM433 603q2 8 -11.5 14.5t-25.5 6.5t-29 -13t-22 -26q-1 -4 -1 -7q0 -10 16 -10q9 0 35 9q32 12 38 26z" />
<glyph unicode="&#x26;" horiz-adv-x="531" d="M560 268q-14 -37 -64 -139q-64 -132 -83 -132q-14 0 -14 18q0 19 20 75q23 61 25 78q-8 -2 -86 -31q-59 -21 -84 -21q-39 0 -39 39q0 23 15 64.5t34 66.5q19 27 19 30q0 9 -25 15q-54 14 -54 69q0 27 14 67q37 102 152 171q99 59 185 59q3 0 25.5 -4.5t25.5 -4.5 q16 0 41 58t43 58q11 0 11 -19q0 -35 -41 -149q-24 -64 -32 -82q-29 -58 -57 -58q-6 0 -11 3l-51 -139q4 -1 16 1t13 2q17 0 17 -25q0 -27 -15 -70zM564 516q-9 18 -51 18q-91 0 -128 -43q8 -4 24 -4q30 0 89 12q55 11 66 17zM460 333q-16 -2 -28 -5q-28 -7 -35 -16 q-8 -12 -8 -19q0 -5 4 -5q13 0 67 45z" />
<glyph unicode="'" horiz-adv-x="492" d="M558 686q-13 -36 -58 -111q-61 -104 -96 -104q-13 0 -13 25q0 29 9 53q14 39 55 85t47 62q1 4 9 65t10 65q6 17 19 40q22 35 38 35q14 0 14 -47q0 -19 -2 -45q-3 -45 -32 -123z" />
<glyph unicode="(" horiz-adv-x="482" d="M674 734q-17 -45 -40 -60q-184 -113 -241 -163q-72 -64 -107 -159q-10 -29 -10 -58q0 -68 54 -105q29 -21 61 -31q27 -9 41 -20q3 -3 3 -15q0 -31 -10 -58q-27 -74 -65 -74q-46 0 -102 51q-59 52 -63 103q-1 16 -1 32q0 87 34 179l39 87q40 93 113 173q47 51 143 116 q100 68 135 68q24 0 24 -27q0 -17 -8 -39z" />
<glyph unicode=")" horiz-adv-x="439" d="M487 357q-45 -122 -99 -206q-102 -156 -219 -156q-24 0 -24 30q0 20 9 46q21 58 47 70q8 4 67 17q50 12 96 67q35 41 69 136q23 62 23 105q0 44 -21 92q-27 60 -63 93q-27 25 -27 38q0 15 12 48q25 67 60 67q27 0 64 -58q53 -83 53 -177q0 -82 -47 -212z" />
<glyph unicode="*" horiz-adv-x="715" d="M723 276q-8 -22 -23 -44q-21 -32 -38 -32t-72.5 66t-59.5 66q-25 0 -43 -102l-42 -116q-5 -12 -20 -32q-19 -24 -30 -24q-13 0 -13 27q0 23 4 36l27 74q3 16 9 38l42 118q-3 7 -9 7q-20 0 -141.5 -100.5t-127.5 -100.5q-13 0 -13 20q0 21 12 56q19 54 77 109q29 28 99 80 q56 43 56 53q0 4 -21 39q-25 40 -31 61q-2 7 -2 16q0 21 11 52q5 13 19 32q18 24 32 24q18 0 63 -58t52 -58q12 0 55.5 108.5t68.5 108.5q11 0 12 -23q0 -19 -4 -30l-43 -119q-1 -2 3 -10q8 3 76 52q63 46 82 46q24 0 24 -34q0 -13 -4 -24q-17 -46 -97.5 -109t-83.5 -69 q-2 -7 13 -27.5t65 -72.5q27 -28 27 -54q0 -19 -11 -50z" />
<glyph unicode="+" horiz-adv-x="754" d="M767 383q-15 -43 -29 -59q-18 -21 -50 -21q-3 0 -42.5 1.5t-43.5 1.5q-45 0 -45 1h2q-36 -3 -42 -20l-65 -178q-4 -13 -20 -32q-18 -22 -29 -22q-14 0 -14 27q0 24 5 37l60 164q1 5 1 8q0 11 -14 12q3 0 -20 0l-124 -9q-41 0 -41 30q0 17 14 54q33 93 128 93 q10 0 29.5 -1t28.5 -1q64 0 79 54l39 117q30 82 54 82q15 0 15 -24q0 -30 -27 -112.5t-27 -92.5q0 -3 1.5 -4.5t18 -6.5t18.5 -5q4 0 21 1.5t20 1.5q64 0 80 -4q32 -8 32 -39q0 -20 -13 -54z" />
<glyph unicode="," horiz-adv-x="466" d="M272 -17q-10 -26 -49 -85q-52 -77 -82 -77q-11 0 -11 18q0 19 7 38q14 37 49.5 68t42.5 50q1 2 9 41t9 42q19 52 39 52q10 0 10 -24q0 -56 -24 -123z" />
<glyph unicode="-" horiz-adv-x="588" d="M578 311q-25 -35 -53 -35t-134.5 15t-111.5 19.5t-5 20.5q0 34 9 59q29 78 81 78q27 0 136 -10q106 -10 109 -12q7 -6 7 -26q0 -29 -10 -57.5t-28 -51.5z" />
<glyph unicode="." horiz-adv-x="492" d="M369 128q-13 -34 -62.5 -82.5t-74.5 -48.5q-15 0 -15 22q0 24 9.5 49.5t49.5 70.5q50 57 86 57q17 0 17 -23q0 -18 -10 -45z" />
<glyph unicode="/" horiz-adv-x="775" d="M977 752q-20 -55 -113 -134l-392 -326l-259 -213q-23 -19 -76 -74q-12 -12 -25 -12t-13 20q0 19 11 50q22 61 96 127l255 211l89 74l97 79q313 250 323 250q13 0 13 -19q0 -17 -6 -33z" />
<glyph unicode="0" horiz-adv-x="476" d="M478 206q-142 -205 -268 -205q-82 0 -82 118q0 86 32 174q43 118 151 288q141 219 230 219q120 0 120 -136q0 -83 -43 -201t-140 -257zM563 472q14 39 14 72q0 97 -108 97q-46 0 -148 -166q-82 -132 -98 -176q-12 -34 -12 -66q0 -67 57 -67q86 0 190 132q78 100 105 174z " />
<glyph unicode="1" horiz-adv-x="348" d="M268 105q-41 -113 -69 -113q-10 0 -10 25q0 22 3 33l32 87q1 3 4.5 20t5.5 20l24 69q2 3 8 26l7 28l107 294q2 5 -3 12q-7 -3 -27.5 -15t-24.5 -12q-13 0 -13 24q0 22 8 44q11 31 74 92t82 61q14 0 14 -26q0 -31 -10 -57l-136 -375z" />
<glyph unicode="2" horiz-adv-x="710" d="M716 71q-25 -67 -60 -67l-171 18l-108 2q-61 0 -181 -14q-111 -13 -111 -14h1q-32 0 -32 32q0 18 10 46q14 40 48 68q92 76 130 113q44 42 77 68q26 22 76 61l336 240q1 2 1 4q0 12 -34 20q-29 6 -53 6q-63 0 -118 -30q-37 -20 -75 -57q-31 -30 -35 -30q-13 0 -13 19 q0 20 11 51q32 88 125 145q83 52 163 52q69 0 104 -34.5t35 -91.5q0 -36 -15 -77q-22 -61 -47 -76q-476 -295 -496 -349q-2 -6 5 -8q5 -1 14 0q13 1 10 1q3 0 75.5 1t75.5 1h63q58 0 126 -12q55 -9 64 -14.5t9 -23.5q0 -21 -10 -50z" />
<glyph unicode="3" horiz-adv-x="792" d="M864 255q-88 -242 -407 -262q-45 -2 -93 -2q-67 0 -167 37q-104 38 -114 72q-2 8 -2 19q0 23 12 56q10 27 27 52q26 39 51 39q11 0 16 -21q5 -25 12 -30q38 -23 100 -42q70 -21 125 -21l99 2q46 3 131 27q50 14 83 30t43.5 27.5t10.5 21.5q0 7 -13 26q-62 89 -193 89 q-61 0 -113.5 -17.5t-55.5 -17.5q-19 0 -19 27q0 23 10 48q15 41 35 61q25 23 83 45q21 7 87 49q72 46 78 61q4 10 -11 12q-7 1 -16 0q-51 0 -171 -25q-20 0 -20 29q0 22 7 42q42 115 248 115q101 0 101 -75q0 -26 -13 -61q-17 -46 -86 -133q-3 -9 21 -21l31 -14 q100 -60 100 -157q0 -41 -17 -88z" />
<glyph unicode="4" horiz-adv-x="657" d="M863 715l-74 -173l-24 -66l-42 -95l-24 -64l-31 -71q-32 -89 -36 -128.5t-12 -61.5q-6 -16 -20 -38q-19 -30 -32 -30q-14 0 -14 31t15 92q10 43 16 59l38 105q1 3 1 5q0 10 -23 11q-209 9 -390 47q-23 5 -23 39q0 23 9 49q17 47 42 69l251 201l59 53q59 51 70 51 q14 0 14 -23q0 -24 -10 -51q-14 -40 -36 -60l-206 -185q-5 -13 112 -24q91 -9 190 -12q8 8 15 16q11 14 26 55l27 73q11 32 45 98q48 92 69 92q10 0 10 -15q0 -17 -12 -49z" />
<glyph unicode="5" horiz-adv-x="834" d="M919 329q-57 -157 -251 -253q-158 -78 -303 -78q-93 0 -167 29q-101 40 -101 118q0 24 10 51q24 66 53 66q2 0 28 -23.5t40 -30.5q87 -41 196 -41q96 0 217 41q49 17 112 50q84 45 84 71q0 32 -101 51q-75 14 -136 14q-69 0 -130 -19q-42 -12 -81 -34q-33 -19 -35 -19 q-17 0 -17 25q0 24 14 61l130 257l20 61q12 36 41 63q17 15 130 15l162 -3q29 -8 85.5 -8t73.5 -5q31 -9 31 -41q0 -19 -11 -49q-28 -77 -78 -77l-143 11h-79q-3 0 -38 1.5t-40 1.5h-88q-14 0 -37 -41q-15 -26 -21 -42q-5 -15 9 -15q-4 0 49 13t114 13q275 0 275 -152 q0 -36 -17 -82z" />
<glyph unicode="6" horiz-adv-x="793" d="M891 366q-63 -173 -290 -281q-181 -87 -332 -87q-170 0 -170 122q0 42 20 98q96 262 537 512q131 74 173 74q26 0 26 -26q0 -14 -8 -35q-13 -35 -37 -54q-13 -10 -80 -44q-359 -190 -454 -319q18 4 73 34q86 47 92 50q282 143 381 143q89 0 89 -89q0 -43 -20 -98z M822 366q1 3 1 5q0 11 -20 18q-18 7 -36 7q-62 0 -177 -49q-1 -1 -188 -87q-139 -65 -154 -93q48 -14 81 -14q83 0 196 36q123 40 217 104q71 49 80 73z" />
<glyph unicode="7" horiz-adv-x="693" d="M912 697q-19 -51 -42 -67q-189 -125 -425 -326q-102 -87 -157 -138q-106 -100 -158 -173h-16q-5 9 -5 23q0 22 12 56q22 62 76 121l94 100q-69 4 -69 34q0 14 12 47q23 63 80 81q28 9 105 9q3 0 21.5 -1.5t22.5 -1.5q15 0 18 1q11 4 35 23l176 148q4 11 -11 12 q18 -2 -17 -2l-343 -10q-31 0 -31 29q0 17 12 51q23 60 56 73q14 6 110 13l368 5q86 0 86 -59q0 -21 -10 -48z" />
<glyph unicode="8" horiz-adv-x="684" d="M763 292q-45 -123 -218 -220q-151 -85 -260 -85q-82 0 -135 42q-57 44 -57 118q0 37 15 79q25 68 73 116q27 27 77 60q40 25 45 39q0 2 8 41.5t11 46.5q32 89 154 184q117 91 188 91q3 0 22 -8t22 -8t24 4t25 4q69 0 69 -69q0 -29 -13 -64q-19 -51 -49 -90 q-18 -25 -47 -51q-25 -24 -25 -30q0 -10 43 -33q43 -22 43 -87q0 -40 -15 -80zM710 638q-11 6 -12 6q-21 0 -57 -13t-41 -13q-15 0 -20 14t-11 14q-17 0 -89.5 -48t-78.5 -64q-1 -2 -1 -5q0 -10 20 -16q17 -6 33 -6q50 0 123 35q80 39 134 96zM688 295q0 21 -60 36 q-43 10 -67 10q-68 0 -153.5 -24.5t-82.5 -24.5q-3 0 -13.5 4t-13.5 4q-7 0 -57 -29q-53 -32 -59 -47q-2 -6 -2 -11q0 -33 75 -57q55 -16 82 -16q45 0 119 21q41 12 130 59q102 53 102 75z" />
<glyph unicode="9" horiz-adv-x="602" d="M649 234q-87 -241 -326 -241q-72 0 -141 23t-97 57q-5 6 -5 24q0 30 10 56q7 21 22 44q23 35 42 35q8 0 14 -12q6 -16 12 -20q73 -51 195 -51q54 0 114 19q91 27 110 82q6 16 18 102q13 91 13 132q0 23 -5 23q-232 -172 -334 -172q-84 0 -84 77q0 35 19 86 q39 108 176.5 207t246.5 99q44 0 54 -48q10 3 22 12t19 9q14 0 14 -31q0 -23 -3 -33l-26 -70q-22 -60 -32 -182t-48 -227zM667 676q-113 -28 -148 -41q-71 -25 -152 -77q-52 -34 -58 -50q-1 -2 -1 -4q0 -13 37 -13q60 0 172 64t150 121z" />
<glyph unicode=":" horiz-adv-x="428" d="M457 517q-6 -18 -39 -68q-40 -62 -57 -62q-14 0 -14 25q0 30 12 64q9 25 37 69q37 63 60 63q14 0 14 -25q0 -31 -13 -66zM338 164q-11 -30 -49 -90q-51 -81 -82 -81q-16 0 -16 25q0 28 12 60q9 26 50 87q53 79 82 79q15 0 15 -23q0 -22 -12 -57z" />
<glyph unicode=";" horiz-adv-x="502" d="M447 474q-45 -66 -68 -66q-11 0 -11 20q0 24 9 49q7 21 42 72q44 64 68 64q13 0 13 -21t-8 -42.5t-45 -75.5zM354 115q-21 -57 -66 -125q-70 -106 -133 -106q-18 0 -18 23q0 17 11 47q21 58 78 88t77 85q1 3 13 50t13 50q4 12 18 35q20 31 31 31q13 0 13 -24 q0 -54 -37 -154z" />
<glyph unicode="&#x3c;" horiz-adv-x="661" d="M881 745q-14 -40 -37 -61q-18 -15 -87 -56l-406 -245q-3 -8 28 -30q17 -10 33 -21q68 -49 117 -102l84 -94q3 -4 3 -16q0 -29 -11 -61q-18 -48 -43 -62q-34 8 -60 39q-52 64 -127 128t-124 90q-71 37 -71 74q0 17 12 49q17 46 84 92q41 28 129 71.5t112 60.5 q33 23 167 104q164 97 189 97q16 0 16 -21q0 -15 -8 -36z" />
<glyph unicode="=" horiz-adv-x="705" d="M691 487q-27 -73 -88 -73q-93 0 -147 -1.5t-55 -1.5q-46 0 -46 33q0 16 12 48q19 53 50 67q17 8 59 10l108 5q66 0 78 -2q38 -8 38 -42q0 -17 -9 -43zM611 230q-23 -31 -46 -31h-226q-3 0 -20.5 -3t-21.5 -3q-24 0 -24 29q0 19 10 47q17 46 40 65q34 28 100 28l132 3 q51 0 64 -4q28 -7 28 -36q0 -18 -10 -45.5t-26 -49.5z" />
<glyph unicode="&#x3e;" horiz-adv-x="672" d="M783 408q-25 -67 -71 -101q-84 -62 -352 -195q-247 -123 -260 -123q-15 0 -15 21q0 20 12 53l10 34q9 21 41 43q42 28 278 136q218 100 218 117q0 14 -45 49l-178 139l-53 36q-34 24 -50 51q-3 7 0 31q3 23 8 37q23 64 53 64q31 0 399 -300q13 -11 13 -42q0 -27 -8 -50z " />
<glyph unicode="?" horiz-adv-x="532" d="M789 683q-19 -52 -66 -92q-23 -20 -106.5 -75.5t-141.5 -106.5q-5 -5 -15 -33q-11 -33 -17 -44q-26 -48 -95 -48q-35 0 -35 33q0 18 11 48q21 57 123 138l187 139q-1 4 -21.5 8.5t-29.5 4.5q-76 0 -143 -34q-43 -22 -88 -64q-38 -34 -43 -34q-11 0 -11 18q0 20 9 46 q36 98 147 160q94 53 183 53q160 0 160 -77q0 -18 -8 -40zM387 133q-22 -60 -77.5 -97t-114.5 -37q-37 0 -37 36q0 18 11 47q16 46 84.5 96.5t113.5 50.5q27 0 27 -48q0 -28 -7 -48z" />
<glyph unicode="@" horiz-adv-x="782" d="M833 270q-15 -40 -90 -111q-88 -82 -167 -111q-56 -21 -138 -21q-112 0 -144 18q-101 57 -101 189q0 71 29 152q56 152 169 268q143 146 310 146q174 0 174 -132q0 -53 -27.5 -128t-67.5 -138q-72 -113 -149 -113q-16 0 -27 13l-20 24l-84 -65q-51 -38 -87 -38 q-43 0 -43 57q0 38 14 75q28 78 90 151q85 101 172 101q47 0 47 -38q0 -17 -10 -51.5t-10 -45.5q0 -18 18 -18q29 0 57 26q25 23 34 48q7 20 7 36q0 74 -160 74q-102 0 -206.5 -79t-140.5 -177q-7 -21 -7 -44q0 -43 24.5 -81t64.5 -53q32 -12 128 -12q107 0 183 40 q44 23 95 74q40 39 58 39q16 0 16 -23q0 -21 -11 -52zM588 454q2 5 2 9q0 8 -9 8q-23 0 -68 -30q-48 -31 -56 -55q-2 -4 -2 -7q0 -9 13 -9q19 0 63 29q48 31 57 55z" />
<glyph unicode="A" d="M747.5 264.5q-13.5 -25.5 -14.5 -28.5l-44 -120q-9 -32 -19 -63q-23 -58 -46 -58q-12 0 -12 24q0 37 13 73l40 112q2 3 2 6q0 14 -42 14q-107 0 -249 -20q-151 -21 -206 -48q-10 -5 -32.5 -30t-33.5 -45l-28 -60q-30 -56 -49 -56q-12 0 -12 22q0 25 9 52q19 51 64 126 q43 70 68 96q100 99 272 240q53 44 215 154q212 145 257 145q23 0 23 -30q0 -11 -11 -57l-109 -293q-21 -42 -29 -76q-10 -46 -11.5 -50t-15 -29.5zM759 454l68 186h-12q-62 -33 -228.5 -147t-171.5 -126q-1 -2 -1 -4q0 -6 10 -6l63 9q63 9 85 10q72 2 156 11q14 6 23 35z " />
<glyph unicode="B" horiz-adv-x="832" d="M926 360q-44 -120 -204 -215q-127 -75 -303 -122q-144 -39 -225 -39q-44 0 -61 7.5t-17 28.5q0 15 9 49q12 38 23 77l135 386q16 47 16 67q0 11 -6 19t-6 16q0 12 9 38q28 76 128 108q67 22 152 22q61 0 123 -15q71 -18 94 -45q5 -6 5 -21q0 -30 -12 -62 q-16 -46 -88 -111q56 -10 113 -19q63 -11 91 -29q38 -25 38 -71q0 -29 -14 -69zM628 638q-10 16 -103 16q-37 0 -83 -6q-56 -7 -65.5 -16t-21.5 -41l-29 -87q-1 -12 -1 -13q0 -3 8 -3t129 59q129 63 166 91zM839 348q1 2 1 4q0 20 -74 32q-58 9 -109 9q-157 0 -298 -42 l-53 -14q-35 -11 -41.5 -19t-18.5 -39l-34 -101q-8 -19 -8 -30q0 -17 24 -17q84 0 179 20q176 37 369 151q58 34 63 46z" />
<glyph unicode="C" horiz-adv-x="936" d="M974 231q-25 -68 -67 -86q-125 -54 -294 -103q-200 -59 -301 -59q-93 0 -139 55q-39 47 -39 127q0 65 25 135q61 166 244 326q203 178 386 178q154 0 154 -110q0 -31 -14 -70q-20 -56 -42 -56q-5 0 -19.5 23t-16.5 24q-39 31 -114 31q-134 0 -309 -120 q-170 -118 -211 -230q-9 -23 -9 -43q0 -56 64 -88q49 -24 103 -24q63 0 159 22q108 25 261 75q32 11 108 42q66 28 69 28q12 0 12 -22q0 -25 -10 -55z" />
<glyph unicode="D" horiz-adv-x="836" d="M1001 471q-41 -113 -224 -235q-151 -101 -348 -179q-180 -70 -254 -70q-28 0 -28 36q0 23 9 49q7 20 26.5 48t30.5 59l128 378q4 17 -7 17q-3 0 -34 -17t-35 -17q-12 0 -12 18q0 16 9 42q43 116 227 170q117 34 234 34q108 0 196 -65q98 -73 98 -181q0 -42 -16 -87z M936 479q2 4 2 9q0 35 -64 86q-59 48 -102 59q-64 17 -126 17q-84 0 -172 -23l-31 -8q-21 -6 -27.5 -15t-35.5 -90l-73 -215q-10 -42 -17 -61l-25 -69q-2 -6 -2 -10q0 -10 14 -10q26 0 128 34q185 63 360 165q31 18 86 57q78 55 85 74z" />
<glyph unicode="E" horiz-adv-x="728" d="M957 745q-27 -75 -67 -75h-69q-56 0 -250 -21q-170 -18 -199 -23q-16 -3 -30 -41q-10 -26 -10 -31q0 -10 11 -10q-5 0 146.5 35t192.5 35q22 0 22 -31q0 -24 -11 -53q-5 -15 -21 -38t-25 -28l-192 -37q-178 -35 -188 -62l-87 -240q-5 -14 -5 -22q0 -11 10 -11 q399 132 524 132q20 0 20 -29q0 -23 -10 -51q-27 -76 -79 -81l-93 -14l-101 -17q-42 -7 -78 -16q-105 -26 -182 -60q-61 -26 -65 -26q-30 0 -30 50q0 31 22 116l178 505l4 54q1 19 10 43q7 20 29 52q28 44 46 44q3 0 15.5 -5.5t15.5 -5.5q-10 0 206.5 23t302.5 23 q49 0 49 -34q0 -17 -12 -50z" />
<glyph unicode="F" horiz-adv-x="792" d="M1015 749q-19 -55 -45.5 -71.5t-100.5 -17.5l-310 -26q-11 -1 -20 0q-10 1 -14 1q-24 0 -124 -27q-13 -4 -24 -32l-10 -32q-16 -43 -16 -62q0 -5 2 -7q27 2 182 26q135 22 205 22q49 0 49 -37q0 -16 -13 -53q-22 -58 -49 -76q-12 -7 -28 -8h-27q-35 -1 -107 -9l-171 -24 q-101 -16 -112 -33l-52 -164q-47 -144 -82 -144q-14 0 -14 31q0 21 4 31l30 83l58 199l83 238q4 6 4 11q0 8 -12.5 15.5t-14.5 11.5q-4 8 -4 18q0 16 13 51q15 41 29 59q8 11 27 21.5t31 24.5l17 21q16 18 26 18q4 0 12 -12t20 -12q11 0 14 2q333 52 510 52q49 0 49 -34 q0 -16 -15 -55z" />
<glyph unicode="G" horiz-adv-x="912" d="M1012 394q-41 -112 -183 -219q-120 -91 -277 -155q-144 -58 -228 -58q-211 0 -211 152q0 48 23 112q48 130 207 276q142 131 313 223.5t267 92.5q38 0 38 -36q0 -16 -7 -36q-5 -14 -19 -32q-16 -21 -28 -26q-185 -73 -316 -135q-81 -38 -228 -155q-169 -134 -169 -191 q0 -43 83 -66q55 -15 102 -15q116 0 259 68q149 70 286 195q-4 15 -49 15q-60 0 -144 -32q-101 -37 -112 -42q-65 -27 -114 -62l-27 -28q-13 -14 -40 -14q-24 0 -24 31q0 23 11 52q8 21 25 48.5t29 34.5q96 58 225 111q155 65 226 65q98 0 98 -92q0 -37 -16 -82z" />
<glyph unicode="H" horiz-adv-x="784" d="M859 362q-26 -34 -30 -40l-84 -255q-6 -17 -23 -43q-22 -35 -36 -35q-13 0 -13 23q0 12 4 29q1 8 3 17l86 250q2 8 2 13q0 11 -17 11q-50 0 -261 -25q-221 -26 -248 -39q-5 -2 -20 -51q-9 -26 -24 -76l-35 -104q-32 -89 -60 -89q-14 0 -14 22q0 15 8 44l8 32l99 287 q8 25 22 76l83 250q51 141 80 141q9 0 9 -18q0 -27 -51 -192q-16 -43 -43 -131q-1 -2 -1 -4q0 -14 35 -14q17 0 175 17q190 20 300 39q11 2 15.5 13.5t8.5 23.5l65 178q11 31 42 63h16q6 -3 6 -20q0 -28 -8 -48l-48 -132q-18 -50 -18 -73q0 -10 4 -21t4 -19q0 -16 -11.5 -47 t-29.5 -53z" />
<glyph unicode="I" horiz-adv-x="544" d="M542 81q-28 -77 -71 -77h-148q-2 0 -23 -4t-24 -4t-13 1.5t-13 1.5q-4 0 -74.5 -8t-73.5 -8q-41 0 -41 31q0 16 12 48q19 53 50 70q21 12 65 12h9h9q56 0 92 15q12 5 16 13l7 18l48 121l137 324q-4 10 -36 10q-1 0 -31 -2q-15 -1 -51.5 -6.5t-38.5 -5.5q-26 0 -26 28 q0 16 9 42q24 66 79 88q37 15 112 15h207q31 0 31 -34q0 -20 -11 -50q-28 -75 -67 -75h-97q-16 0 -74 -133l-107 -258q-22 -52 -28 -69q-4 -11 2 -21h148q25 0 25 -33q0 -23 -10 -50z" />
<glyph unicode="J" horiz-adv-x="776" d="M1012 732q-18 -48 -40 -64q-17 -12 -49 -12h-14h-16q-47 0 -87 -15v-17q0 -38 3 -100q5 -85 5 -122q0 -114 -28 -191q-49 -135 -217 -199q-120 -46 -255 -46q-212 0 -212 128q0 35 16 79.5t55 96.5q55 76 105 76q19 0 19 -29q0 -24 -10 -52q-11 -32 -45 -63l-32 -27 q-1 -2 -1 -4q0 -20 66 -32q50 -9 95 -9q64 0 175 21q164 32 184 87q2 5 2 45q0 105 -9 218q-11 139 -28 139q-65 0 -159 -18q-5 -1 -29 -7q-20 -6 -24 -6q-20 0 -20 29q0 24 10 51q21 59 46 71q44 23 126 32q56 5 111 9q187 19 229 19q38 0 38 -39q0 -20 -10 -49z" />
<glyph unicode="K" horiz-adv-x="703" d="M672 59q-7 -20 -22 -43q-21 -34 -39 -34q-19 0 -19 35q0 22 8 55l75 200q5 15 5 25q0 17 -14 22q-8 3 -34 3q-70 0 -213 -22q-186 -29 -200 -67l-46 -174q-27 -74 -59 -74q-15 0 -15 26q0 24 23 104q117 394 150 485q60 164 92 164q13 0 13 -27q0 -23 -4 -34l-30 -80 l-28 -67q-14 -38 -21 -106q33 16 184 102l109 63q21 12 64 39.5t163 115.5q96 71 102 71q16 0 16 -23q0 -22 -11 -52q-20 -55 -103 -124q-30 -24 -194 -142l-4 -11q-6 1 72 1t78 -69q0 -25 -22 -115l-61 -160q-1 -3 -7.5 -43.5t-7.5 -43.5z" />
<glyph unicode="L" horiz-adv-x="698" d="M721 166q-24 -66 -58 -79q-13 -5 -235 -66q-234 -63 -254 -63q-47 0 -47 70q0 80 65 259l55 151l86 289q6 19 20 42q21 35 36 35q12 0 12 -26q0 -33 -19 -104q-13 -50 -20 -70l-26 -72q-2 -4 -8 -29t-7 -28l-56 -154q-46 -124 -46 -168q0 -27 16 -27q33 0 236.5 60 t237.5 60q24 0 24 -29q0 -19 -12 -51z" />
<glyph unicode="M" horiz-adv-x="1008" d="M1187 652l-238 -632q-29 -58 -49 -58q-13 0 -13 25q0 15 5 39l210 569q-1 0 -2.5 1.5t-5.5 1.5q-22 0 -176 -145q-120 -113 -209 -206q-116 -120 -168 -194l-32 -48q-26 -37 -37 -37q-14 0 -14 24q0 29 21 102l33 109l137 385q8 21 -5 21q-7 0 -98 -70 q-191 -147 -370 -387q-8 -12 -36 -69q-30 -63 -44 -86q-20 -32 -36 -32q-14 0 -14 22q0 24 12 58q20 53 75 158q36 66 230 290q42 48 170 161q159 140 201 140q22 0 22 -31q0 -25 -14 -73q-9 -28 -17 -57l-132 -376q1 0 2 -1t5 -1q521 545 603 545q13 0 13 -25 q0 -42 -29 -123z" />
<glyph unicode="N" horiz-adv-x="740" d="M834 396q-41 -113 -96 -224q-105 -212 -172 -212q-24 0 -105 268q-70 234 -95 351q-15 -7 -21 -23l-117 -314l-41 -137q-15 -40 -22 -55q-15 -29 -35 -45h-15q-1 3 -1 8q0 23 17 94q18 76 27 102l191 524q7 20 21 39q21 29 41 29q5 0 12.5 -6t9.5 -11q163 -654 194 -654 q30 0 92 132q35 75 57 135q40 110 52 179q6 32 7 85q1 38 13 72q6 15 19 37q20 34 35 34q19 0 19 -43q0 -65 -43 -221q-28 -100 -44 -144z" />
<glyph unicode="O" horiz-adv-x="874" d="M1004 517q-116 -318 -406 -456q-161 -77 -264 -77q-189 0 -189 170q0 62 27 136q50 138 153 256q125 145 295 212q35 14 116 27t135 13q167 0 167 -127q0 -59 -34 -154zM952 523q8 23 8 42q0 44 -43 66q-33 17 -82 17q-303 0 -472 -180q-113 -119 -133 -174 q-9 -24 -9 -45q0 -57 61 -88q47 -24 104 -24q150 0 321 107q185 117 245 279z" />
<glyph unicode="P" horiz-adv-x="804" d="M980 620q-37 -101 -225 -188q-127 -59 -336 -117q-179 -49 -182.5 -54t-30.5 -88l-37 -112q-31 -83 -57 -83q-11 0 -11 20q0 26 21 96l32 104l77 217q10 43 21 73l77 212q5 13 22 39q22 33 35 33q3 0 11 -4t11 -4q2 0 39 12.5t54 15.5q100 20 205 20q73 0 158 -21 q109 -28 129 -73q3 -8 3 -21q0 -33 -16 -77zM847 618q-23 18 -97 28q-56 8 -105 8q-146 0 -217 -24l-42 -14q-28 -10 -34 -17t-18 -41q-33 -90 -33 -118q0 -4 1 -7q79 4 333 91q75 25 117 42q78 32 95 52z" />
<glyph unicode="Q" horiz-adv-x="848" d="M993 499q-37 -103 -100 -182q-42 -51 -100 -97q-51 -41 -51 -46q0 -7 22 -35q23 -30 24 -33q1 -7 1 -14q0 -29 -10 -56q-6 -15 -19 -36q-19 -29 -32 -29q-6 0 -60.5 60.5t-68.5 60.5q-3 0 -63 -28q-72 -32 -130 -50q-86 -28 -153 -28q-139 0 -139 120q0 54 29 134 q46 125 150 243q127 145 297 221q12 6 29.5 30.5t36.5 32.5q99 37 204 37q165 0 165 -152q0 -66 -32 -153zM939 504q11 30 11 54q0 94 -140 94q-82 0 -213 -60q-134 -63 -241 -153q-121 -103 -157 -201q-7 -18 -7 -33q0 -67 115 -67q25 0 92 12q89 15 96 35q1 4 -3.5 12 t-4.5 19q0 19 12 52q26 69 54 69q5 0 48 -42t57 -42q4 0 49 25q80 43 146 107.5t86 118.5z" />
<glyph unicode="R" horiz-adv-x="832" d="M804 37q-23 -64 -53 -64q-6 0 -28 76q-26 91 -75 142q-73 76 -204 76q-121 0 -146 -27l-57 -158l-21 -57q-22 -47 -44 -47q-13 0 -13 29q0 26 5 39l54 148l52 174l25 69q4 21 12 49l29 79q13 38 13 54q-1 8 -11 10h-17q-9 0 -14 5q-9 7 -9 25q0 22 11 54q18 47 41.5 66 t71.5 19h220q3 0 36.5 3t37.5 3h208q58 0 58 -44q0 -21 -13 -56q-25 -69 -110 -138q-53 -44 -146 -99q-78 -46 -78 -52q0 -7 31 -29q28 -20 43 -26q43 -19 73 -103q27 -77 27 -155q0 -40 -9 -65zM751 628q-10 7 -56 7l-253 -5q-19 -1 -42 -65q-35 -96 -35 -129q60 15 184 77 q119 60 202 115z" />
<glyph unicode="S" horiz-adv-x="742" d="M809 288q-44 -120 -232 -219q-163 -86 -268 -86q-22 0 -22 30q0 22 9 46.5t25.5 49t27.5 27.5q46 10 140 34q45 14 113 44q88 39 96 58q4 13 -31 16q-7 1 -16 0.5t-20 -0.5q-86 0 -229.5 -45.5t-168.5 -45.5q-63 0 -63 74q0 42 17 90q58 159 242 299q188 144 349 144 q137 0 137 -107q0 -36 -18 -83q-20 -56 -40 -56q-3 0 -17 24q-18 31 -25 40q-17 23 -94 23q-86 0 -199 -56q-116 -58 -215 -154q-40 -39 -46 -58q-2 -4 -2 -8q0 -13 29 -13q28 0 171 46t236 46q129 0 129 -89q0 -30 -15 -71z" />
<glyph unicode="T" horiz-adv-x="784" d="M1062 717q-18 -47 -42 -64q-19 -14 -53 -14q-8 0 -28 1t-32 1l-185 5q-36 0 -61 -67l-140 -386q-1 -3 -15.5 -72.5t-16.5 -72.5q-7 -20 -20 -39q-18 -28 -33 -28q-14 0 -14 28q0 35 23 118l33 109l147 398q-6 10 -51 10h-9q-101 0 -185 -16q-78 -15 -78 -16h1 q-19 0 -19 28q0 25 10 53q27 74 139 92l153 16l458 -2h4q23 0 23 -32q0 -23 -9 -50z" />
<glyph unicode="U" horiz-adv-x="656" d="M708 257q-46 -126 -98 -169q-32 -26 -61 -32l-149 -38q-122 -29 -172 -29q-113 0 -113 107q0 39 16 104l25 102l113 304l60 117q35 67 59 67q14 0 14 -22q0 -23 -11 -53q-18 -31 -54 -99q-33 -64 -82 -200l-39 -104q-20 -59 -20 -92q0 -70 87 -70q30 0 148 22 q141 27 192 53q16 8 32 53q38 103 70 277t36 185q25 69 51 69q11 0 11 -33q0 -34 -17 -132q-41 -232 -98 -387z" />
<glyph unicode="V" horiz-adv-x="744" d="M969 723l-8 -27q-7 -17 -26 -34q-242 -217 -364 -398q-192 -287 -220 -287q-22 0 -29 56q-3 23 -3 45q0 11 1 22q4 47 6 105q4 49 10 148q1 25 1 47q0 55 -4 92q-7 65 -18 122q-10 47 -10 60q0 22 12 55q28 75 57 75q16 0 20 -39l2 -42q20 -90 20 -210q0 -58 -7 -180 q-5 -101 -5 -160v-18h7q54 68 143 194q86 122 134 181q80 99 172 182l45 43q46 41 60 41q15 0 15 -22q0 -21 -11 -51z" />
<glyph unicode="W" horiz-adv-x="864" d="M1148 739l-8 -24q-4 -12 -20 -30l-230 -266q-131 -152 -218 -265l-91 -149q-16 -26 -31 -26q-17 0 -26 30q-5 18 -5 31q1 127 38 272q57 229 62 258q-169 -163 -425 -560q-15 -23 -30 -23q-27 0 -27 64q0 83 45 264q32 131 49 176l86 236q5 16 21 39q19 28 30 28 q13 0 13 -18q0 -17 -17 -63l-67 -185q-26 -71 -55 -190q-30 -124 -30 -167q0 -11 2 -15q38 43 74 97l67 99q50 70 184 235q171 209 195 209q7 0 10 -17q2 -15 0 -21l-45 -123q-17 -48 -57 -204q-49 -190 -49 -250q0 -17 4 -22q10 2 38 44q42 65 54 79q55 73 224 273 q210 249 232 249q14 0 14 -19q0 -17 -11 -46z" />
<glyph unicode="X" horiz-adv-x="758" d="M972 741q-3 -9 -6.5 -18.5t-21.5 -25.5q-5 -5 -185 -132q-158 -112 -167 -137q-1 -2 -1 -6q0 -14 12 -46l17 -43q8 -45 38 -141q34 -76 34 -94q0 -16 -11 -46q-6 -18 -20 -40q-19 -29 -33 -29q-20 0 -72.5 175.5t-69.5 175.5q-8 0 -73 -58q-201 -179 -322 -351 q-14 -20 -29 -20t-15 22t12 53q31 86 210 271l177 179q1 3 1 7q0 9 -9 26q-12 24 -14 29q-15 40 -51 106q-24 45 -24 74q0 25 12 57q23 65 50 65q10 0 73.5 -134t68.5 -134q3 0 90 69q105 83 172 128q102 69 142 69q22 0 22 -21q0 -12 -7 -30z" />
<glyph unicode="Y" d="M995 738q-21 -56 -104 -129l-324 -275l-286 -237l-54 -55q-43 -43 -57 -43t-14 19q0 18 13 55q21 57 160 182l138 121q1 3 -17 27q-23 29 -31 43l-74 127q-39 74 -39 123q0 21 6.5 39t20.5 39q19 30 34 30q-3 0 95.5 -163.5t126.5 -163.5q12 0 197 159.5t201 159.5 q15 0 15 -21q0 -17 -7 -37z" />
<glyph unicode="Z" horiz-adv-x="880" d="M857 70q-27 -74 -66 -74l-147 13h-183q-42 0 -195 -26t-162 -26q-47 0 -47 34q0 17 12 51q23 61 223 239q142 127 263 219l202 133q-4 7 -7 7h-186q-3 0 -25.5 2.5t-25.5 2.5h-70q-45 0 -45 37q0 18 10 46q17 46 37 60q17 12 58 12l109 -5h307q64 0 90 -10q31 -12 31 -43 q0 -17 -10 -43q-7 -20 -12 -30q-11 -22 -24 -32q-49 -34 -151 -90q-129 -70 -191 -109q-105 -64 -220 -155q-111 -89 -160 -146q4 -7 9 -7q-2 0 47 9q56 10 114 17q82 8 162 8l148 -2l82 -10q33 -8 33 -36q0 -17 -10 -46z" />
<glyph unicode="[" horiz-adv-x="451" d="M446 77q-18 -49 -36 -63t-64 -14h-111q-16 -1 -52.5 -4.5t-39.5 -3.5q-26 0 -26 36q0 33 33 123l33 90l34 135q38 145 84 271l24 68q19 52 51 72q23 14 64 14h27q19 -1 28 -1q99 0 108 -1q44 -7 44 -40q0 -16 -8 -38.5t-25 -44.5q-22 -28 -42 -28h-200q-16 0 -28 -32 q-7 -26 -23 -77q-32 -99 -56 -196l-22 -88l-29 -80q-2 -7 -2 -11q0 -10 20 -10l172 9q56 0 56 -33q0 -15 -14 -53z" />
<glyph unicode="\" horiz-adv-x="686" d="M703 61q-7 -18 -20 -39q-20 -30 -36 -30q-32 0 -83 115q-25 56 -119 216.5t-128 239.5q-40 91 -40 147q0 22 6 39q4 12 16 30q16 25 28 25q8 0 39 -58l32 -65q49 -92 168 -297q117 -201 145 -254q2 -4 2 -14q0 -27 -10 -55z" />
<glyph unicode="]" horiz-adv-x="412" d="M619 712l-143 -334l-46 -128l-50 -145q-43 -118 -87 -118q-3 0 -33.5 5.5t-34.5 5.5h-108q-53 0 -53 37q0 16 10 44q5 13 21 40q22 35 34 35h129q3 0 30 -4t30 -4q7 0 19 10l122 320l66 152q3 9 3 15q0 11 -17 11l-161 -5q-44 0 -44 30q0 15 10 44q19 53 46 65q12 6 48 7 l121 5q64 0 71 -2q29 -5 29 -33q0 -19 -12 -53z" />
<glyph unicode="^" horiz-adv-x="611" d="M715 525q-7 -20 -22 -41q-19 -27 -34 -28l-113 181q-15 -9 -143 -95q-108 -74 -123 -74q-16 0 -16 22q0 20 10 47q17 44 34 60q33 28 154 112q130 91 145 91q17 0 65 -85q43 -77 55 -116q2 -6 2 -14q0 -23 -14 -60z" />
<glyph unicode="_" horiz-adv-x="648" d="M640 -56q-22 -60 -58 -60q-2 0 -29.5 4.5t-30.5 4.5l-278 -17l-110 1q-12 6 -37 6q-10 0 -30 -1t-29 -1q-62 0 -62 37q0 13 6 31q15 41 41 55q18 9 55 9l191 -8l290 17q45 0 61 -5q28 -8 28 -36q0 -15 -8 -37z" />
<glyph unicode="`" horiz-adv-x="470" d="M530 492q-28 -77 -63 -77q-17 0 -41 31q-47 59 -47 149q0 59 21 117q30 82 60 82q12 0 12 -24q0 -9 -5 -40q-2 -11 -2 -23q0 -44 32 -85l40 -45q5 -7 5 -23q0 -29 -12 -62z" />
<glyph unicode="a" d="M747.5 264.5q-13.5 -25.5 -14.5 -28.5l-44 -120q-9 -32 -19 -63q-23 -58 -46 -58q-12 0 -12 24q0 37 13 73l40 112q2 3 2 6q0 14 -42 14q-107 0 -249 -20q-151 -21 -206 -48q-10 -5 -32.5 -30t-33.5 -45l-28 -60q-30 -56 -49 -56q-12 0 -12 22q0 25 9 52q19 51 64 126 q43 70 68 96q100 99 272 240q53 44 215 154q212 145 257 145q23 0 23 -30q0 -11 -11 -57l-109 -293q-21 -42 -29 -76q-10 -46 -11.5 -50t-15 -29.5zM759 454l68 186h-12q-62 -33 -228.5 -147t-171.5 -126q-1 -2 -1 -4q0 -6 10 -6l63 9q63 9 85 10q72 2 156 11q14 6 23 35z " />
<glyph unicode="b" horiz-adv-x="832" d="M926 360q-44 -120 -204 -215q-127 -75 -303 -122q-144 -39 -225 -39q-44 0 -61 7.5t-17 28.5q0 15 9 49q12 38 23 77l135 386q16 47 16 67q0 11 -6 19t-6 16q0 12 9 38q28 76 128 108q67 22 152 22q61 0 123 -15q71 -18 94 -45q5 -6 5 -21q0 -30 -12 -62 q-16 -46 -88 -111q56 -10 113 -19q63 -11 91 -29q38 -25 38 -71q0 -29 -14 -69zM628 638q-10 16 -103 16q-37 0 -83 -6q-56 -7 -65.5 -16t-21.5 -41l-29 -87q-1 -12 -1 -13q0 -3 8 -3t129 59q129 63 166 91zM839 348q1 2 1 4q0 20 -74 32q-58 9 -109 9q-157 0 -298 -42 l-53 -14q-35 -11 -41.5 -19t-18.5 -39l-34 -101q-8 -19 -8 -30q0 -17 24 -17q84 0 179 20q176 37 369 151q58 34 63 46z" />
<glyph unicode="c" horiz-adv-x="936" d="M974 231q-25 -68 -67 -86q-125 -54 -294 -103q-200 -59 -301 -59q-93 0 -139 55q-39 47 -39 127q0 65 25 135q61 166 244 326q203 178 386 178q154 0 154 -110q0 -31 -14 -70q-20 -56 -42 -56q-5 0 -19.5 23t-16.5 24q-39 31 -114 31q-134 0 -309 -120 q-170 -118 -211 -230q-9 -23 -9 -43q0 -56 64 -88q49 -24 103 -24q63 0 159 22q108 25 261 75q32 11 108 42q66 28 69 28q12 0 12 -22q0 -25 -10 -55z" />
<glyph unicode="d" horiz-adv-x="852" d="M1001 471q-41 -113 -224 -235q-151 -101 -348 -179q-180 -70 -254 -70q-28 0 -28 36q0 23 9 49q7 20 26.5 48t30.5 59l128 378q4 17 -7 17q-3 0 -34 -17t-35 -17q-12 0 -12 18q0 16 9 42q43 116 227 170q117 34 234 34q108 0 196 -65q98 -73 98 -181q0 -42 -16 -87z M936 479q2 4 2 9q0 35 -64 86q-59 48 -102 59q-64 17 -126 17q-84 0 -172 -23l-31 -8q-21 -6 -27.5 -15t-35.5 -90l-73 -215q-10 -42 -17 -61l-25 -69q-2 -6 -2 -10q0 -10 14 -10q26 0 128 34q185 63 360 165q31 18 86 57q78 55 85 74z" />
<glyph unicode="e" horiz-adv-x="728" d="M957 745q-27 -75 -67 -75h-69q-56 0 -250 -21q-170 -18 -199 -23q-16 -3 -30 -41q-10 -26 -10 -31q0 -10 11 -10q-5 0 146.5 35t192.5 35q22 0 22 -31q0 -24 -11 -53q-5 -15 -21 -38t-25 -28l-192 -37q-178 -35 -188 -62l-87 -240q-5 -14 -5 -22q0 -11 10 -11 q399 132 524 132q20 0 20 -29q0 -23 -10 -51q-27 -76 -79 -81l-93 -14l-101 -17q-42 -7 -78 -16q-105 -26 -182 -60q-61 -26 -65 -26q-30 0 -30 50q0 31 22 116l178 505l4 54q1 19 10 43q7 20 29 52q28 44 46 44q3 0 15.5 -5.5t15.5 -5.5q-10 0 206.5 23t302.5 23 q49 0 49 -34q0 -17 -12 -50z" />
<glyph unicode="f" horiz-adv-x="792" d="M1015 749q-19 -55 -45.5 -71.5t-100.5 -17.5l-310 -26q-11 -1 -20 0q-10 1 -14 1q-24 0 -124 -27q-13 -4 -24 -32l-10 -32q-16 -43 -16 -62q0 -5 2 -7q27 2 182 26q135 22 205 22q49 0 49 -37q0 -16 -13 -53q-22 -58 -49 -76q-12 -7 -28 -8h-27q-35 -1 -107 -9l-171 -24 q-101 -16 -112 -33l-52 -164q-47 -144 -82 -144q-14 0 -14 31q0 21 4 31l30 83l58 199l83 238q4 6 4 11q0 8 -12.5 15.5t-14.5 11.5q-4 8 -4 18q0 16 13 51q15 41 29 59q8 11 27 21.5t31 24.5l17 21q16 18 26 18q4 0 12 -12t20 -12q11 0 14 2q333 52 510 52q49 0 49 -34 q0 -16 -15 -55z" />
<glyph unicode="g" horiz-adv-x="912" d="M1012 394q-41 -112 -183 -219q-120 -91 -277 -155q-144 -58 -228 -58q-211 0 -211 152q0 48 23 112q48 130 207 276q142 131 313 223.5t267 92.5q38 0 38 -36q0 -16 -7 -36q-5 -14 -19 -32q-16 -21 -28 -26q-185 -73 -316 -135q-81 -38 -228 -155q-169 -134 -169 -191 q0 -43 83 -66q55 -15 102 -15q116 0 259 68q149 70 286 195q-4 15 -49 15q-60 0 -144 -32q-101 -37 -112 -42q-65 -27 -114 -62l-27 -28q-13 -14 -40 -14q-24 0 -24 31q0 23 11 52q8 21 25 48.5t29 34.5q96 58 225 111q155 65 226 65q98 0 98 -92q0 -37 -16 -82z" />
<glyph unicode="h" horiz-adv-x="784" d="M859 362q-26 -34 -30 -40l-84 -255q-6 -17 -23 -43q-22 -35 -36 -35q-13 0 -13 23q0 12 4 29q1 8 3 17l86 250q2 8 2 13q0 11 -17 11q-50 0 -261 -25q-221 -26 -248 -39q-5 -2 -20 -51q-9 -26 -24 -76l-35 -104q-32 -89 -60 -89q-14 0 -14 22q0 15 8 44l8 32l99 287 q8 25 22 76l83 250q51 141 80 141q9 0 9 -18q0 -27 -51 -192q-16 -43 -43 -131q-1 -2 -1 -4q0 -14 35 -14q17 0 175 17q190 20 300 39q11 2 15.5 13.5t8.5 23.5l65 178q11 31 42 63h16q6 -3 6 -20q0 -28 -8 -48l-48 -132q-18 -50 -18 -73q0 -10 4 -21t4 -19q0 -16 -11.5 -47 t-29.5 -53z" />
<glyph unicode="i" horiz-adv-x="382" d="M332 289l-53 -117l-46 -126q-7 -20 -28 -41t-38 -21q-21 0 -21 27q0 22 12 55q13 37 34 61t22 26l23 63l56 123l89 246q8 22 8 62v8v3q0 16 12 49q9 23 27 51q28 42 52 42q14 0 14 -25q0 -3 -10 -59z" />
<glyph unicode="j" horiz-adv-x="731" d="M760 234q-54 -150 -204 -205q-95 -35 -258 -35q-199 0 -199 109q0 27 13 61q24 68 88 129q78 75 159 75q30 0 30 -37q0 -20 -8 -44q-20 -54 -50 -68l-97 -33l-3 -10q39 -24 115 -24q95 0 197 20q142 27 160 77q3 8 3 36q0 16 -1 40l-8 96q-4 53 -4 98v17q1 28 5 85 q1 16 -7 16.5t-14 2.5q-11 5 -16 18q-2 6 -2 14q0 20 11 50q28 78 75 78q12 0 29.5 -8.5t18.5 -19.5q1 -4 1 -10q0 -16 -7 -38q-11 -33 -11 -43q-1 -23 -1 -48q0 -48 6 -126.5t6 -112.5q0 -86 -27 -160z" />
<glyph unicode="k" horiz-adv-x="716" d="M672 59q-7 -20 -22 -43q-21 -34 -39 -34q-19 0 -19 35q0 22 8 55l75 200q5 15 5 25q0 17 -14 22q-8 3 -34 3q-70 0 -213 -22q-186 -29 -200 -67l-46 -174q-27 -74 -59 -74q-15 0 -15 26q0 24 23 104q117 394 150 485q60 164 92 164q13 0 13 -27q0 -23 -4 -34l-30 -80 l-28 -67q-14 -38 -21 -106q33 16 184 102l109 63q21 12 64 39.5t163 115.5q96 71 102 71q16 0 16 -23q0 -22 -11 -52q-20 -55 -103 -124q-30 -24 -194 -142l-4 -11q-6 1 72 1t78 -69q0 -25 -22 -115l-61 -160q-1 -3 -7.5 -43.5t-7.5 -43.5z" />
<glyph unicode="l" horiz-adv-x="698" d="M721 166q-24 -66 -58 -79q-13 -5 -235 -66q-234 -63 -254 -63q-47 0 -47 70q0 80 65 259l55 151l86 289q6 19 20 42q21 35 36 35q12 0 12 -26q0 -33 -19 -104q-13 -50 -20 -70l-26 -72q-2 -4 -8 -29t-7 -28l-56 -154q-46 -124 -46 -168q0 -27 16 -27q33 0 236.5 60 t237.5 60q24 0 24 -29q0 -19 -12 -51z" />
<glyph unicode="m" horiz-adv-x="1008" d="M1187 652l-238 -632q-29 -58 -49 -58q-13 0 -13 25q0 15 5 39l210 569q-1 0 -2.5 1.5t-5.5 1.5q-22 0 -176 -145q-120 -113 -209 -206q-116 -120 -168 -194l-32 -48q-26 -37 -37 -37q-14 0 -14 24q0 29 21 102l33 109l137 385q8 21 -5 21q-7 0 -98 -70 q-191 -147 -370 -387q-8 -12 -36 -69q-30 -63 -44 -86q-20 -32 -36 -32q-14 0 -14 22q0 24 12 58q20 53 75 158q36 66 230 290q42 48 170 161q159 140 201 140q22 0 22 -31q0 -25 -14 -73q-9 -28 -17 -57l-132 -376q1 0 2 -1t5 -1q521 545 603 545q13 0 13 -25 q0 -42 -29 -123z" />
<glyph unicode="n" horiz-adv-x="740" d="M834 396q-41 -113 -96 -224q-105 -212 -172 -212q-24 0 -105 268q-70 234 -95 351q-15 -7 -21 -23l-117 -314l-41 -137q-15 -40 -22 -55q-15 -29 -35 -45h-15q-1 3 -1 8q0 23 17 94q18 76 27 102l191 524q7 20 21 39q21 29 41 29q5 0 12.5 -6t9.5 -11q163 -654 194 -654 q30 0 92 132q35 75 57 135q40 110 52 179q6 32 7 85q1 38 13 72q6 15 19 37q20 34 35 34q19 0 19 -43q0 -65 -43 -221q-28 -100 -44 -144z" />
<glyph unicode="o" horiz-adv-x="874" d="M1004 517q-116 -318 -406 -456q-161 -77 -264 -77q-189 0 -189 170q0 62 27 136q50 138 153 256q125 145 295 212q35 14 116 27t135 13q167 0 167 -127q0 -59 -34 -154zM952 523q8 23 8 42q0 44 -43 66q-33 17 -82 17q-303 0 -472 -180q-113 -119 -133 -174 q-9 -24 -9 -45q0 -57 61 -88q47 -24 104 -24q150 0 321 107q185 117 245 279z" />
<glyph unicode="p" horiz-adv-x="740" d="M980 620q-37 -101 -225 -188q-127 -59 -336 -117q-179 -49 -182.5 -54t-30.5 -88l-37 -112q-31 -83 -57 -83q-11 0 -11 20q0 26 21 96l32 104l77 217q10 43 21 73l77 212q5 13 22 39q22 33 35 33q3 0 11 -4t11 -4q2 0 39 12.5t54 15.5q100 20 205 20q73 0 158 -21 q109 -28 129 -73q3 -8 3 -21q0 -33 -16 -77zM847 618q-23 18 -97 28q-56 8 -105 8q-146 0 -217 -24l-42 -14q-28 -10 -34 -17t-18 -41q-33 -90 -33 -118q0 -4 1 -7q79 4 333 91q75 25 117 42q78 32 95 52z" />
<glyph unicode="q" horiz-adv-x="848" d="M993 499q-37 -103 -100 -182q-42 -51 -100 -97q-51 -41 -51 -46q0 -7 22 -35q23 -30 24 -33q1 -7 1 -14q0 -29 -10 -56q-6 -15 -19 -36q-19 -29 -32 -29q-6 0 -60.5 60.5t-68.5 60.5q-3 0 -63 -28q-72 -32 -130 -50q-86 -28 -153 -28q-139 0 -139 120q0 54 29 134 q46 125 150 243q127 145 297 221q12 6 29.5 30.5t36.5 32.5q99 37 204 37q165 0 165 -152q0 -66 -32 -153zM939 504q11 30 11 54q0 94 -140 94q-82 0 -213 -60q-134 -63 -241 -153q-121 -103 -157 -201q-7 -18 -7 -33q0 -67 115 -67q25 0 92 12q89 15 96 35q1 4 -3.5 12 t-4.5 19q0 19 12 52q26 69 54 69q5 0 48 -42t57 -42q4 0 49 25q80 43 146 107.5t86 118.5z" />
<glyph unicode="r" horiz-adv-x="832" d="M804 37q-23 -64 -53 -64q-6 0 -28 76q-26 91 -75 142q-73 76 -204 76q-121 0 -146 -27l-57 -158l-21 -57q-22 -47 -44 -47q-13 0 -13 29q0 26 5 39l54 148l52 174l25 69q4 21 12 49l29 79q13 38 13 54q-1 8 -11 10h-17q-9 0 -14 5q-9 7 -9 25q0 22 11 54q18 47 41.5 66 t71.5 19h220q3 0 36.5 3t37.5 3h208q58 0 58 -44q0 -21 -13 -56q-25 -69 -110 -138q-53 -44 -146 -99q-78 -46 -78 -52q0 -7 31 -29q28 -20 43 -26q43 -19 73 -103q27 -77 27 -155q0 -40 -9 -65zM751 628q-10 7 -56 7l-253 -5q-19 -1 -42 -65q-35 -96 -35 -129q60 15 184 77 q119 60 202 115z" />
<glyph unicode="s" horiz-adv-x="742" d="M809 288q-44 -120 -232 -219q-163 -86 -268 -86q-22 0 -22 30q0 22 9 46.5t25.5 49t27.5 27.5q46 10 140 34q45 14 113 44q88 39 96 58q4 13 -31 16q-7 1 -16 0.5t-20 -0.5q-86 0 -229.5 -45.5t-168.5 -45.5q-63 0 -63 74q0 42 17 90q58 159 242 299q188 144 349 144 q137 0 137 -107q0 -36 -18 -83q-20 -56 -40 -56q-3 0 -17 24q-18 31 -25 40q-17 23 -94 23q-86 0 -199 -56q-116 -58 -215 -154q-40 -39 -46 -58q-2 -4 -2 -8q0 -13 29 -13q28 0 171 46t236 46q129 0 129 -89q0 -30 -15 -71z" />
<glyph unicode="t" horiz-adv-x="800" d="M1062 717q-18 -47 -42 -64q-19 -14 -53 -14q-8 0 -28 1t-32 1l-185 5q-36 0 -61 -67l-140 -386q-1 -3 -15.5 -72.5t-16.5 -72.5q-7 -20 -20 -39q-18 -28 -33 -28q-14 0 -14 28q0 35 23 118l33 109l147 398q-6 10 -51 10h-9q-101 0 -185 -16q-78 -15 -78 -16h1 q-19 0 -19 28q0 25 10 53q27 74 139 92l153 16l458 -2h4q23 0 23 -32q0 -23 -9 -50z" />
<glyph unicode="u" horiz-adv-x="656" d="M708 257q-46 -126 -98 -169q-32 -26 -61 -32l-149 -38q-122 -29 -172 -29q-113 0 -113 107q0 39 16 104l25 102l113 304l60 117q35 67 59 67q14 0 14 -22q0 -23 -11 -53q-18 -31 -54 -99q-33 -64 -82 -200l-39 -104q-20 -59 -20 -92q0 -70 87 -70q30 0 148 22 q141 27 192 53q16 8 32 53q38 103 70 277t36 185q25 69 51 69q11 0 11 -33q0 -34 -17 -132q-41 -232 -98 -387z" />
<glyph unicode="v" horiz-adv-x="744" d="M969 723l-8 -27q-7 -17 -26 -34q-242 -217 -364 -398q-192 -287 -220 -287q-22 0 -29 56q-3 23 -3 45q0 11 1 22q4 47 6 105q4 49 10 148q1 25 1 47q0 55 -4 92q-7 65 -18 122q-10 47 -10 60q0 22 12 55q28 75 57 75q16 0 20 -39l2 -42q20 -90 20 -210q0 -58 -7 -180 q-5 -101 -5 -160v-18h7q54 68 143 194q86 122 134 181q80 99 172 182l45 43q46 41 60 41q15 0 15 -22q0 -21 -11 -51z" />
<glyph unicode="w" horiz-adv-x="848" d="M1148 739l-8 -24q-4 -12 -20 -30l-230 -266q-131 -152 -218 -265l-91 -149q-16 -26 -31 -26q-17 0 -26 30q-5 18 -5 31q1 127 38 272q57 229 62 258q-169 -163 -425 -560q-15 -23 -30 -23q-27 0 -27 64q0 83 45 264q32 131 49 176l86 236q5 16 21 39q19 28 30 28 q13 0 13 -18q0 -17 -17 -63l-67 -185q-26 -71 -55 -190q-30 -124 -30 -167q0 -11 2 -15q38 43 74 97l67 99q50 70 184 235q171 209 195 209q7 0 10 -17q2 -15 0 -21l-45 -123q-17 -48 -57 -204q-49 -190 -49 -250q0 -17 4 -22q10 2 38 44q42 65 54 79q55 73 224 273 q210 249 232 249q14 0 14 -19q0 -17 -11 -46z" />
<glyph unicode="x" horiz-adv-x="758" d="M972 741q-3 -9 -6.5 -18.5t-21.5 -25.5q-5 -5 -185 -132q-158 -112 -167 -137q-1 -2 -1 -6q0 -14 12 -46l17 -43q8 -45 38 -141q34 -76 34 -94q0 -16 -11 -46q-6 -18 -20 -40q-19 -29 -33 -29q-20 0 -72.5 175.5t-69.5 175.5q-8 0 -73 -58q-201 -179 -322 -351 q-14 -20 -29 -20t-15 22t12 53q31 86 210 271l177 179q1 3 1 7q0 9 -9 26q-12 24 -14 29q-15 40 -51 106q-24 45 -24 74q0 25 12 57q23 65 50 65q10 0 73.5 -134t68.5 -134q3 0 90 69q105 83 172 128q102 69 142 69q22 0 22 -21q0 -12 -7 -30z" />
<glyph unicode="y" d="M995 738q-21 -56 -104 -129l-324 -275l-286 -237l-54 -55q-43 -43 -57 -43t-14 19q0 18 13 55q21 57 160 182l138 121q1 3 -17 27q-23 29 -31 43l-74 127q-39 74 -39 123q0 21 6.5 39t20.5 39q19 30 34 30q-3 0 95.5 -163.5t126.5 -163.5q12 0 197 159.5t201 159.5 q15 0 15 -21q0 -17 -7 -37z" />
<glyph unicode="z" horiz-adv-x="880" d="M857 70q-27 -74 -66 -74l-147 13h-183q-42 0 -195 -26t-162 -26q-47 0 -47 34q0 17 12 51q23 61 223 239q142 127 263 219l202 133q-4 7 -7 7h-186q-3 0 -25.5 2.5t-25.5 2.5h-70q-45 0 -45 37q0 18 10 46q17 46 37 60q17 12 58 12l109 -5h307q64 0 90 -10q31 -12 31 -43 q0 -17 -10 -43q-7 -20 -12 -30q-11 -22 -24 -32q-49 -34 -151 -90q-129 -70 -191 -109q-105 -64 -220 -155q-111 -89 -160 -146q4 -7 9 -7q-2 0 47 9q56 10 114 17q82 8 162 8l148 -2l82 -10q33 -8 33 -36q0 -17 -10 -46z" />
<glyph unicode="{" horiz-adv-x="431" d="M553 598q-6 -19 -21 -36q-18 -21 -33 -21q-30 0 -80 62q-43 54 -47 72q-1 5 -1 10q0 20 11 51q23 64 52 64q12 0 63.5 -54t61.5 -75q2 -5 2 -21v-11q-2 -27 -8 -41zM495 382q-10 -27 -29 -50q-23 -27 -47 -27h-5l-144 -3q-61 0 -61 40q0 13 7 31q22 61 78 76q23 7 104 7 q58 0 70 -3q34 -7 34 -37q0 -14 -7 -34zM395 170q-17 -46 -109.5 -112t-130.5 -66q-19 0 -19 31q0 22 7 40q16 44 41 63q35 27 115 70q76 41 86 41q19 0 19 -24q0 -18 -9 -43z" />
<glyph unicode="|" horiz-adv-x="386" d="M183 2q-50 0 -50 24q0 5 3 12l16 31q15 29 16 32l82 272l90 246q14 17 30.5 69.5t32.5 73.5q26 35 73 35q49 0 49 -30q0 -14 -10 -43l-128 -329l-86 -283q-20 -56 -37 -76q-29 -34 -81 -34z" />
<glyph unicode="}" horiz-adv-x="440" d="M596 751q-18 -50 -135 -135q-110 -80 -138 -80q-14 0 -14 21q0 18 8 40q20 56 143 135q107 68 134 68h3q6 -11 6 -22q0 -6 -7 -27zM510 381q-15 -42 -43.5 -60t-81.5 -19l-130 -2q-45 0 -45 27q0 13 12 47q28 78 106 78h89q3 0 29 2.5t29 2.5q45 0 45 -34q0 -15 -10 -42z M391 60q-25 -68 -59 -68q-13 0 -91 52t-83.5 60.5t-5.5 21.5q0 17 11 48q25 68 57 68q22 0 99 -53q74 -53 79 -67q3 -7 3 -17q0 -18 -10 -45z" />
<glyph unicode="~" horiz-adv-x="650" d="M812 684q-20 -54 -70 -104q-61 -61 -121 -61q-44 0 -96.5 56.5t-87.5 56.5q-39 0 -84 -30.5t-48 -30.5q-12 0 -12 17q0 15 7 36q21 56 84 99q60 40 112 40q39 0 87.5 -48.5t88.5 -48.5q51 0 131 86h15q5 -12 5 -23q0 -14 -11 -45z" />
<glyph unicode="&#xa3;" horiz-adv-x="791" d="M767 67q-27 -75 -65 -75q-3 0 -58.5 9.5t-59.5 9.5h-361q-34 0 -73 -21.5t-54 -21.5q-44 0 -44 41q0 20 11 50q18 50 43 66q20 13 97 31q25 6 85 68q56 58 63 75q3 9 -8 12h-12q-3 0 -11.5 -1.5t-12.5 -1.5q-35 0 -35 32q0 16 11 44q22 63 67 73l109 12q16 4 26 23l14 29 l53 102q95 175 229 175q56 0 87 -37q26 -32 26 -83q0 -33 -11 -65q-16 -42 -35 -42l-10 20q-13 25 -32 39q-29 21 -73 21q-75 0 -116 -41q-32 -31 -79 -134q4 -1 20 -7q13 -6 23 -6h77q48 0 64 -5q24 -8 24 -34q0 -18 -11 -49q-27 -72 -84 -72l-173 8q-23 0 -28 -4 q-18 -10 -28 -25l-18 -29q-8 -13 -37 -46q-14 -16 -19 -34q24 -7 55 -7h248q62 0 89 -10q36 -13 36 -48q0 -17 -9 -41z" />
<glyph unicode="&#xa5;" horiz-adv-x="884" d="M1032 486q-7 -19 -22 -42q-20 -30 -34 -33q-7 1 -17 1q-22 0 -56 -5q-8 -3 -38 -61q-41 -77 -148 -131q-85 -43 -166 -53q-10 -1 -108 -9q-71 -5 -111 -14q-14 -4 -22 -24q-5 -16 -9 -32q-19 -60 -51 -89h-16q-6 6 -6 22q0 12 9 56l48 140l27 83q13 41 13 68v10 q-8 0 -78 -19.5t-75 -19.5q-18 0 -18 22q0 15 10 42q14 37 32 56q22 24 70 42l65 20q53 18 60 38.5t7 24.5q0 8 -4 12q-11 2 -25 15q-1 3 -1 6q0 15 11 44q12 33 28 53q25 30 37 42q23 23 44 31q47 18 144 18q63 0 124 -27t104 -73q22 -25 38 -66t25 -53q5 -6 40 -9 q29 -2 59 -3q20 -2 20 -32q0 -24 -10 -51zM745 573q-2 24 -65.5 47.5t-112.5 23.5q-89 0 -102 -37q-11 -29 -11 -46q0 -16 12 -16zM810 407q-5 5 -20 5q-6 0 -14 -1q-8 0 -22 1l-14 1q-3 0 -21 -2.5t-22 -2.5h-67q-22 0 -114 -9q-97 -9 -107.5 -14.5t-21.5 -36.5 q-10 -27 -10 -32q0 -15 27 -15q101 0 217 25q144 30 189 81z" />
<glyph unicode="&#xa9;" horiz-adv-x="929" d="M1038 431q-15 -41 -51 -106q-40 -72 -66 -98q-107 -105 -267 -170q-143 -58 -251 -58q-118 0 -180 69q-56 62 -56 165q0 71 28 145q43 118 147 222q119 119 278 175q70 25 208 25q245 0 245 -201q0 -73 -35 -168zM981 434q14 37 14 69q0 77 -79 115q-59 28 -143 28 q-82 0 -178 -29q-11 0 -17.5 11t-11.5 11q-42 0 -164 -99q-127 -101 -150 -164q-12 -32 -12 -60q0 -76 75 -122q63 -39 139 -39q116 0 275 65q205 83 252 214zM788 353l-12 -36q-10 -20 -35 -34q-4 -2 -107 -31l-106 -34q-76 -23 -111 -23q-79 0 -79 74q0 32 15 74 q39 106 149 186t215 80q66 0 66 -50q0 -16 -7 -35q-13 -35 -34 -48q-9 -6 -57 -12q-60 -6 -72 -9q-34 -7 -90 -34q-68 -33 -78 -59q-1 -2 -1 -4q0 -10 24 -10q36 0 165 41t146 41q20 0 20 -26q0 -20 -11 -51z" />
<glyph unicode="&#xaa;" d="M747.5 264.5q-13.5 -25.5 -14.5 -28.5l-44 -120q-9 -32 -19 -63q-23 -58 -46 -58q-12 0 -12 24q0 37 13 73l40 112q2 3 2 6q0 14 -42 14q-107 0 -249 -20q-151 -21 -206 -48q-10 -5 -32.5 -30t-33.5 -45l-28 -60q-30 -56 -49 -56q-12 0 -12 22q0 25 9 52q19 51 64 126 q43 70 68 96q100 99 272 240q53 44 215 154q212 145 257 145q23 0 23 -30q0 -11 -11 -57l-109 -293q-21 -42 -29 -76q-10 -46 -11.5 -50t-15 -29.5zM759 454l68 186h-12q-62 -33 -228.5 -147t-171.5 -126q-1 -2 -1 -4q0 -6 10 -6l63 9q63 9 85 10q72 2 156 11q14 6 23 35z " />
<glyph unicode="&#xad;" horiz-adv-x="588" d="M578 311q-25 -35 -53 -35t-134.5 15t-111.5 19.5t-5 20.5q0 34 9 59q29 78 81 78q27 0 136 -10q106 -10 109 -12q7 -6 7 -26q0 -29 -10 -57.5t-28 -51.5z" />
<glyph unicode="&#xae;" horiz-adv-x="982" d="M1105 471q-86 -234 -285 -362q-178 -115 -393 -115q-121 0 -196 52q-83 57 -83 162q0 56 24 121q58 160 177 268q134 120 359 194q27 9 193 9q107 0 168 -61q57 -58 57 -152q0 -56 -21 -116zM1047 470q5 14 5 29q0 49 -50 93q-45 40 -95 48q-55 9 -113 9l-149 -3 q-117 -29 -244 -119q-138 -97 -173 -193q-7 -21 -7 -41q0 -77 117 -119q82 -28 155 -28q70 0 161 22l34 8q17 5 29 18q-33 15 -103 35q-81 23 -112 23q-4 -3 -29 -43q-19 -32 -33 -32q-13 0 -13 22q0 23 8 44l92 253q42 116 182 116q60 0 89 -11q40 -16 40 -59 q0 -23 -11 -54q-17 -44 -55 -83q-19 -16 -37 -33q-2 -5 46 -26q53 -22 59 -41q3 -7 3 -19q0 -5 -1 -12l-3 -32q53 17 125 102q65 76 83 126zM635 458l-28 3q-13 -3 -26 -7q-16 -5 -21 -18q-1 -4 -1 -6q0 -8 10 -8q9 0 36.5 14t29.5 22z" />
<glyph unicode="&#xb2;" horiz-adv-x="710" d="M716 71q-25 -67 -60 -67l-171 18l-108 2q-61 0 -181 -14q-111 -13 -111 -14h1q-32 0 -32 32q0 18 10 46q14 40 48 68q92 76 130 113q44 42 77 68q26 22 76 61l336 240q1 2 1 4q0 12 -34 20q-29 6 -53 6q-63 0 -118 -30q-37 -20 -75 -57q-31 -30 -35 -30q-13 0 -13 19 q0 20 11 51q32 88 125 145q83 52 163 52q69 0 104 -34.5t35 -91.5q0 -36 -15 -77q-22 -61 -47 -76q-476 -295 -496 -349q-2 -6 5 -8q5 -1 14 0q13 1 10 1q3 0 75.5 1t75.5 1h63q58 0 126 -12q55 -9 64 -14.5t9 -23.5q0 -21 -10 -50z" />
<glyph unicode="&#xb3;" horiz-adv-x="792" d="M864 255q-88 -242 -407 -262q-45 -2 -93 -2q-67 0 -167 37q-104 38 -114 72q-2 8 -2 19q0 23 12 56q10 27 27 52q26 39 51 39q11 0 16 -21q5 -25 12 -30q38 -23 100 -42q70 -21 125 -21l99 2q46 3 131 27q50 14 83 30t43.5 27.5t10.5 21.5q0 7 -13 26q-62 89 -193 89 q-61 0 -113.5 -17.5t-55.5 -17.5q-19 0 -19 27q0 23 10 48q15 41 35 61q25 23 83 45q21 7 87 49q72 46 78 61q4 10 -11 12q-7 1 -16 0q-51 0 -171 -25q-20 0 -20 29q0 22 7 42q42 115 248 115q101 0 101 -75q0 -26 -13 -61q-17 -46 -86 -133q-3 -9 21 -21l31 -14 q100 -60 100 -157q0 -41 -17 -88z" />
<glyph unicode="&#xb9;" horiz-adv-x="348" d="M268 105q-41 -113 -69 -113q-10 0 -10 25q0 22 3 33l32 87q1 3 4.5 20t5.5 20l24 69q2 3 8 26l7 28l107 294q2 5 -3 12q-7 -3 -27.5 -15t-24.5 -12q-13 0 -13 24q0 22 8 44q11 31 74 92t82 61q14 0 14 -26q0 -31 -10 -57l-136 -375z" />
<glyph unicode="&#xba;" horiz-adv-x="874" d="M1004 517q-116 -318 -406 -456q-161 -77 -264 -77q-189 0 -189 170q0 62 27 136q50 138 153 256q125 145 295 212q35 14 116 27t135 13q167 0 167 -127q0 -59 -34 -154zM952 523q8 23 8 42q0 44 -43 66q-33 17 -82 17q-303 0 -472 -180q-113 -119 -133 -174 q-9 -24 -9 -45q0 -57 61 -88q47 -24 104 -24q150 0 321 107q185 117 245 279z" />
<glyph unicode="&#xc0;" d="M975 937q-28 -77 -63 -77q-17 0 -41 31q-47 59 -47 149q0 59 21 117q30 82 60 82q12 0 12 -24q0 -9 -5 -40q-2 -11 -2 -23q0 -44 32 -85l40 -45q5 -7 5 -23q0 -29 -12 -62zM747.5 264.5q-13.5 -25.5 -14.5 -28.5l-44 -120q-9 -32 -19 -63q-23 -58 -46 -58q-12 0 -12 24 q0 37 13 73l40 112q2 3 2 6q0 14 -42 14q-107 0 -249 -20q-151 -21 -206 -48q-10 -5 -32.5 -30t-33.5 -45l-28 -60q-30 -56 -49 -56q-12 0 -12 22q0 25 9 52q19 51 64 126q43 70 68 96q100 99 272 240q53 44 215 154q212 145 257 145q23 0 23 -30q0 -11 -11 -57l-109 -293 q-21 -42 -29 -76q-10 -46 -11.5 -50t-15 -29.5zM759 454l68 186h-12q-62 -33 -228.5 -147t-171.5 -126q-1 -2 -1 -4q0 -6 10 -6l63 9q63 9 85 10q72 2 156 11q14 6 23 35z" />
<glyph unicode="&#xc2;" d="M1147 929q-7 -20 -22 -41q-19 -27 -34 -28l-113 181q-15 -9 -143 -95q-108 -74 -123 -74q-16 0 -16 22q0 20 10 47q17 44 34 60q33 28 154 112q130 91 145 91q17 0 65 -85q43 -77 55 -116q2 -6 2 -14q0 -23 -14 -60zM747.5 264.5q-13.5 -25.5 -14.5 -28.5l-44 -120 q-9 -32 -19 -63q-23 -58 -46 -58q-12 0 -12 24q0 37 13 73l40 112q2 3 2 6q0 14 -42 14q-107 0 -249 -20q-151 -21 -206 -48q-10 -5 -32.5 -30t-33.5 -45l-28 -60q-30 -56 -49 -56q-12 0 -12 22q0 25 9 52q19 51 64 126q43 70 68 96q100 99 272 240q53 44 215 154 q212 145 257 145q23 0 23 -30q0 -11 -11 -57l-109 -293q-21 -42 -29 -76q-10 -46 -11.5 -50t-15 -29.5zM759 454l68 186h-12q-62 -33 -228.5 -147t-171.5 -126q-1 -2 -1 -4q0 -6 10 -6l63 9q63 9 85 10q72 2 156 11q14 6 23 35z" />
<glyph unicode="&#xc3;" d="M1193 1025q-20 -54 -70 -104q-61 -61 -121 -61q-44 0 -96.5 56.5t-87.5 56.5q-39 0 -84 -30.5t-48 -30.5q-12 0 -12 17q0 15 7 36q21 56 84 99q60 40 112 40q39 0 87.5 -48.5t88.5 -48.5q51 0 131 86h15q5 -12 5 -23q0 -14 -11 -45zM747.5 264.5q-13.5 -25.5 -14.5 -28.5 l-44 -120q-9 -32 -19 -63q-23 -58 -46 -58q-12 0 -12 24q0 37 13 73l40 112q2 3 2 6q0 14 -42 14q-107 0 -249 -20q-151 -21 -206 -48q-10 -5 -32.5 -30t-33.5 -45l-28 -60q-30 -56 -49 -56q-12 0 -12 22q0 25 9 52q19 51 64 126q43 70 68 96q100 99 272 240q53 44 215 154 q212 145 257 145q23 0 23 -30q0 -11 -11 -57l-109 -293q-21 -42 -29 -76q-10 -46 -11.5 -50t-15 -29.5zM759 454l68 186h-12q-62 -33 -228.5 -147t-171.5 -126q-1 -2 -1 -4q0 -6 10 -6l63 9q63 9 85 10q72 2 156 11q14 6 23 35z" />
<glyph unicode="&#xc8;" horiz-adv-x="728" d="M995 966q-28 -77 -63 -77q-17 0 -41 31q-47 59 -47 149q0 59 21 117q30 82 60 82q12 0 12 -24q0 -9 -5 -40q-2 -11 -2 -23q0 -44 32 -85l40 -45q5 -7 5 -23q0 -29 -12 -62zM957 745q-27 -75 -67 -75h-69q-56 0 -250 -21q-170 -18 -199 -23q-16 -3 -30 -41 q-10 -26 -10 -31q0 -10 11 -10q-5 0 146.5 35t192.5 35q22 0 22 -31q0 -24 -11 -53q-5 -15 -21 -38t-25 -28l-192 -37q-178 -35 -188 -62l-87 -240q-5 -14 -5 -22q0 -11 10 -11q399 132 524 132q20 0 20 -29q0 -23 -10 -51q-27 -76 -79 -81l-93 -14l-101 -17q-42 -7 -78 -16 q-105 -26 -182 -60q-61 -26 -65 -26q-30 0 -30 50q0 31 22 116l178 505l4 54q1 19 10 43q7 20 29 52q28 44 46 44q3 0 15.5 -5.5t15.5 -5.5q-10 0 206.5 23t302.5 23q49 0 49 -34q0 -17 -12 -50z" />
<glyph unicode="&#xca;" horiz-adv-x="728" d="M1167 958q-7 -20 -22 -41q-19 -27 -34 -28l-113 181q-15 -9 -143 -95q-108 -74 -123 -74q-16 0 -16 22q0 20 10 47q17 44 34 60q33 28 154 112q130 91 145 91q17 0 65 -85q43 -77 55 -116q2 -6 2 -14q0 -23 -14 -60zM957 745q-27 -75 -67 -75h-69q-56 0 -250 -21 q-170 -18 -199 -23q-16 -3 -30 -41q-10 -26 -10 -31q0 -10 11 -10q-5 0 146.5 35t192.5 35q22 0 22 -31q0 -24 -11 -53q-5 -15 -21 -38t-25 -28l-192 -37q-178 -35 -188 -62l-87 -240q-5 -14 -5 -22q0 -11 10 -11q399 132 524 132q20 0 20 -29q0 -23 -10 -51 q-27 -76 -79 -81l-93 -14l-101 -17q-42 -7 -78 -16q-105 -26 -182 -60q-61 -26 -65 -26q-30 0 -30 50q0 31 22 116l178 505l4 54q1 19 10 43q7 20 29 52q28 44 46 44q3 0 15.5 -5.5t15.5 -5.5q-10 0 206.5 23t302.5 23q49 0 49 -34q0 -17 -12 -50z" />
<glyph unicode="&#xcc;" horiz-adv-x="544" d="M701 941q-28 -77 -63 -77q-17 0 -41 31q-47 59 -47 149q0 59 21 117q30 82 60 82q12 0 12 -24q0 -9 -5 -40q-2 -11 -2 -23q0 -44 32 -85l40 -45q5 -7 5 -23q0 -29 -12 -62zM542 81q-28 -77 -71 -77h-148q-2 0 -23 -4t-24 -4t-13 1.5t-13 1.5q-4 0 -74.5 -8t-73.5 -8 q-41 0 -41 31q0 16 12 48q19 53 50 70q21 12 65 12h9h9q56 0 92 15q12 5 16 13l7 18l48 121l137 324q-4 10 -36 10q-1 0 -31 -2q-15 -1 -51.5 -6.5t-38.5 -5.5q-26 0 -26 28q0 16 9 42q24 66 79 88q37 15 112 15h207q31 0 31 -34q0 -20 -11 -50q-28 -75 -67 -75h-97 q-16 0 -74 -133l-107 -258q-22 -52 -28 -69q-4 -11 2 -21h148q25 0 25 -33q0 -23 -10 -50z" />
<glyph unicode="&#xce;" horiz-adv-x="544" d="M874 933q-7 -20 -22 -41q-19 -27 -34 -28l-113 181q-15 -9 -143 -95q-108 -74 -123 -74q-16 0 -16 22q0 20 10 47q17 44 34 60q33 28 154 112q130 91 145 91q17 0 65 -85q43 -77 55 -116q2 -6 2 -14q0 -23 -14 -60zM542 81q-28 -77 -71 -77h-148q-2 0 -23 -4t-24 -4 t-13 1.5t-13 1.5q-4 0 -74.5 -8t-73.5 -8q-41 0 -41 31q0 16 12 48q19 53 50 70q21 12 65 12h9h9q56 0 92 15q12 5 16 13l7 18l48 121l137 324q-4 10 -36 10q-1 0 -31 -2q-15 -1 -51.5 -6.5t-38.5 -5.5q-26 0 -26 28q0 16 9 42q24 66 79 88q37 15 112 15h207q31 0 31 -34 q0 -20 -11 -50q-28 -75 -67 -75h-97q-16 0 -74 -133l-107 -258q-22 -52 -28 -69q-4 -11 2 -21h148q25 0 25 -33q0 -23 -10 -50z" />
<glyph unicode="&#xd1;" horiz-adv-x="740" d="M1195 1029q-20 -54 -70 -104q-61 -61 -121 -61q-44 0 -96.5 56.5t-87.5 56.5q-39 0 -84 -30.5t-48 -30.5q-12 0 -12 17q0 15 7 36q21 56 84 99q60 40 112 40q39 0 87.5 -48.5t88.5 -48.5q51 0 131 86h15q5 -12 5 -23q0 -14 -11 -45zM834 396q-41 -113 -96 -224 q-105 -212 -172 -212q-24 0 -105 268q-70 234 -95 351q-15 -7 -21 -23l-117 -314l-41 -137q-15 -40 -22 -55q-15 -29 -35 -45h-15q-1 3 -1 8q0 23 17 94q18 76 27 102l191 524q7 20 21 39q21 29 41 29q5 0 12.5 -6t9.5 -11q163 -654 194 -654q30 0 92 132q35 75 57 135 q40 110 52 179q6 32 7 85q1 38 13 72q6 15 19 37q20 34 35 34q19 0 19 -43q0 -65 -43 -221q-28 -100 -44 -144z" />
<glyph unicode="&#xd2;" horiz-adv-x="874" d="M946 935q-28 -77 -63 -77q-17 0 -41 31q-47 59 -47 149q0 59 21 117q30 82 60 82q12 0 12 -24q0 -9 -5 -40q-2 -11 -2 -23q0 -44 32 -85l40 -45q5 -7 5 -23q0 -29 -12 -62zM1004 517q-116 -318 -406 -456q-161 -77 -264 -77q-189 0 -189 170q0 62 27 136q50 138 153 256 q125 145 295 212q35 14 116 27t135 13q167 0 167 -127q0 -59 -34 -154zM952 523q8 23 8 42q0 44 -43 66q-33 17 -82 17q-303 0 -472 -180q-113 -119 -133 -174q-9 -24 -9 -45q0 -57 61 -88q47 -24 104 -24q150 0 321 107q185 117 245 279z" />
<glyph unicode="&#xd4;" horiz-adv-x="874" d="M1118 927q-7 -20 -22 -41q-19 -27 -34 -28l-113 181q-15 -9 -143 -95q-108 -74 -123 -74q-16 0 -16 22q0 20 10 47q17 44 34 60q33 28 154 112q130 91 145 91q17 0 65 -85q43 -77 55 -116q2 -6 2 -14q0 -23 -14 -60zM1004 517q-116 -318 -406 -456q-161 -77 -264 -77 q-189 0 -189 170q0 62 27 136q50 138 153 256q125 145 295 212q35 14 116 27t135 13q167 0 167 -127q0 -59 -34 -154zM952 523q8 23 8 42q0 44 -43 66q-33 17 -82 17q-303 0 -472 -180q-113 -119 -133 -174q-9 -24 -9 -45q0 -57 61 -88q47 -24 104 -24q150 0 321 107 q185 117 245 279z" />
<glyph unicode="&#xd5;" horiz-adv-x="874" d="M1164 1023q-20 -54 -70 -104q-61 -61 -121 -61q-44 0 -96.5 56.5t-87.5 56.5q-39 0 -84 -30.5t-48 -30.5q-12 0 -12 17q0 15 7 36q21 56 84 99q60 40 112 40q39 0 87.5 -48.5t88.5 -48.5q51 0 131 86h15q5 -12 5 -23q0 -14 -11 -45zM1004 517q-116 -318 -406 -456 q-161 -77 -264 -77q-189 0 -189 170q0 62 27 136q50 138 153 256q125 145 295 212q35 14 116 27t135 13q167 0 167 -127q0 -59 -34 -154zM952 523q8 23 8 42q0 44 -43 66q-33 17 -82 17q-303 0 -472 -180q-113 -119 -133 -174q-9 -24 -9 -45q0 -57 61 -88q47 -24 104 -24 q150 0 321 107q185 117 245 279z" />
<glyph unicode="&#xd9;" horiz-adv-x="656" d="M887 946q-28 -77 -63 -77q-17 0 -41 31q-47 59 -47 149q0 59 21 117q30 82 60 82q12 0 12 -24q0 -9 -5 -40q-2 -11 -2 -23q0 -44 32 -85l40 -45q5 -7 5 -23q0 -29 -12 -62zM708 257q-46 -126 -98 -169q-32 -26 -61 -32l-149 -38q-122 -29 -172 -29q-113 0 -113 107 q0 39 16 104l25 102l113 304l60 117q35 67 59 67q14 0 14 -22q0 -23 -11 -53q-18 -31 -54 -99q-33 -64 -82 -200l-39 -104q-20 -59 -20 -92q0 -70 87 -70q30 0 148 22q141 27 192 53q16 8 32 53q38 103 70 277t36 185q25 69 51 69q11 0 11 -33q0 -34 -17 -132 q-41 -232 -98 -387z" />
<glyph unicode="&#xdb;" horiz-adv-x="656" d="M1059 938q-7 -20 -22 -41q-19 -27 -34 -28l-113 181q-15 -9 -143 -95q-108 -74 -123 -74q-16 0 -16 22q0 20 10 47q17 44 34 60q33 28 154 112q130 91 145 91q17 0 65 -85q43 -77 55 -116q2 -6 2 -14q0 -23 -14 -60zM708 257q-46 -126 -98 -169q-32 -26 -61 -32l-149 -38 q-122 -29 -172 -29q-113 0 -113 107q0 39 16 104l25 102l113 304l60 117q35 67 59 67q14 0 14 -22q0 -23 -11 -53q-18 -31 -54 -99q-33 -64 -82 -200l-39 -104q-20 -59 -20 -92q0 -70 87 -70q30 0 148 22q141 27 192 53q16 8 32 53q38 103 70 277t36 185q25 69 51 69 q11 0 11 -33q0 -34 -17 -132q-41 -232 -98 -387z" />
<glyph unicode="&#xe0;" d="M975 937q-28 -77 -63 -77q-17 0 -41 31q-47 59 -47 149q0 59 21 117q30 82 60 82q12 0 12 -24q0 -9 -5 -40q-2 -11 -2 -23q0 -44 32 -85l40 -45q5 -7 5 -23q0 -29 -12 -62zM747.5 264.5q-13.5 -25.5 -14.5 -28.5l-44 -120q-9 -32 -19 -63q-23 -58 -46 -58q-12 0 -12 24 q0 37 13 73l40 112q2 3 2 6q0 14 -42 14q-107 0 -249 -20q-151 -21 -206 -48q-10 -5 -32.5 -30t-33.5 -45l-28 -60q-30 -56 -49 -56q-12 0 -12 22q0 25 9 52q19 51 64 126q43 70 68 96q100 99 272 240q53 44 215 154q212 145 257 145q23 0 23 -30q0 -11 -11 -57l-109 -293 q-21 -42 -29 -76q-10 -46 -11.5 -50t-15 -29.5zM759 454l68 186h-12q-62 -33 -228.5 -147t-171.5 -126q-1 -2 -1 -4q0 -6 10 -6l63 9q63 9 85 10q72 2 156 11q14 6 23 35z" />
<glyph unicode="&#xe2;" d="M1147 929q-7 -20 -22 -41q-19 -27 -34 -28l-113 181q-15 -9 -143 -95q-108 -74 -123 -74q-16 0 -16 22q0 20 10 47q17 44 34 60q33 28 154 112q130 91 145 91q17 0 65 -85q43 -77 55 -116q2 -6 2 -14q0 -23 -14 -60zM747.5 264.5q-13.5 -25.5 -14.5 -28.5l-44 -120 q-9 -32 -19 -63q-23 -58 -46 -58q-12 0 -12 24q0 37 13 73l40 112q2 3 2 6q0 14 -42 14q-107 0 -249 -20q-151 -21 -206 -48q-10 -5 -32.5 -30t-33.5 -45l-28 -60q-30 -56 -49 -56q-12 0 -12 22q0 25 9 52q19 51 64 126q43 70 68 96q100 99 272 240q53 44 215 154 q212 145 257 145q23 0 23 -30q0 -11 -11 -57l-109 -293q-21 -42 -29 -76q-10 -46 -11.5 -50t-15 -29.5zM759 454l68 186h-12q-62 -33 -228.5 -147t-171.5 -126q-1 -2 -1 -4q0 -6 10 -6l63 9q63 9 85 10q72 2 156 11q14 6 23 35z" />
<glyph unicode="&#xe3;" d="M1193 1025q-20 -54 -70 -104q-61 -61 -121 -61q-44 0 -96.5 56.5t-87.5 56.5q-39 0 -84 -30.5t-48 -30.5q-12 0 -12 17q0 15 7 36q21 56 84 99q60 40 112 40q39 0 87.5 -48.5t88.5 -48.5q51 0 131 86h15q5 -12 5 -23q0 -14 -11 -45zM747.5 264.5q-13.5 -25.5 -14.5 -28.5 l-44 -120q-9 -32 -19 -63q-23 -58 -46 -58q-12 0 -12 24q0 37 13 73l40 112q2 3 2 6q0 14 -42 14q-107 0 -249 -20q-151 -21 -206 -48q-10 -5 -32.5 -30t-33.5 -45l-28 -60q-30 -56 -49 -56q-12 0 -12 22q0 25 9 52q19 51 64 126q43 70 68 96q100 99 272 240q53 44 215 154 q212 145 257 145q23 0 23 -30q0 -11 -11 -57l-109 -293q-21 -42 -29 -76q-10 -46 -11.5 -50t-15 -29.5zM759 454l68 186h-12q-62 -33 -228.5 -147t-171.5 -126q-1 -2 -1 -4q0 -6 10 -6l63 9q63 9 85 10q72 2 156 11q14 6 23 35z" />
<glyph unicode="&#xe8;" horiz-adv-x="728" d="M995 966q-28 -77 -63 -77q-17 0 -41 31q-47 59 -47 149q0 59 21 117q30 82 60 82q12 0 12 -24q0 -9 -5 -40q-2 -11 -2 -23q0 -44 32 -85l40 -45q5 -7 5 -23q0 -29 -12 -62zM957 745q-27 -75 -67 -75h-69q-56 0 -250 -21q-170 -18 -199 -23q-16 -3 -30 -41 q-10 -26 -10 -31q0 -10 11 -10q-5 0 146.5 35t192.5 35q22 0 22 -31q0 -24 -11 -53q-5 -15 -21 -38t-25 -28l-192 -37q-178 -35 -188 -62l-87 -240q-5 -14 -5 -22q0 -11 10 -11q399 132 524 132q20 0 20 -29q0 -23 -10 -51q-27 -76 -79 -81l-93 -14l-101 -17q-42 -7 -78 -16 q-105 -26 -182 -60q-61 -26 -65 -26q-30 0 -30 50q0 31 22 116l178 505l4 54q1 19 10 43q7 20 29 52q28 44 46 44q3 0 15.5 -5.5t15.5 -5.5q-10 0 206.5 23t302.5 23q49 0 49 -34q0 -17 -12 -50z" />
<glyph unicode="&#xea;" horiz-adv-x="728" d="M1167 958q-7 -20 -22 -41q-19 -27 -34 -28l-113 181q-15 -9 -143 -95q-108 -74 -123 -74q-16 0 -16 22q0 20 10 47q17 44 34 60q33 28 154 112q130 91 145 91q17 0 65 -85q43 -77 55 -116q2 -6 2 -14q0 -23 -14 -60zM957 745q-27 -75 -67 -75h-69q-56 0 -250 -21 q-170 -18 -199 -23q-16 -3 -30 -41q-10 -26 -10 -31q0 -10 11 -10q-5 0 146.5 35t192.5 35q22 0 22 -31q0 -24 -11 -53q-5 -15 -21 -38t-25 -28l-192 -37q-178 -35 -188 -62l-87 -240q-5 -14 -5 -22q0 -11 10 -11q399 132 524 132q20 0 20 -29q0 -23 -10 -51 q-27 -76 -79 -81l-93 -14l-101 -17q-42 -7 -78 -16q-105 -26 -182 -60q-61 -26 -65 -26q-30 0 -30 50q0 31 22 116l178 505l4 54q1 19 10 43q7 20 29 52q28 44 46 44q3 0 15.5 -5.5t15.5 -5.5q-10 0 206.5 23t302.5 23q49 0 49 -34q0 -17 -12 -50z" />
<glyph unicode="&#xec;" horiz-adv-x="382" d="M556 937q-28 -77 -63 -77q-17 0 -41 31q-47 59 -47 149q0 59 21 117q30 82 60 82q12 0 12 -24q0 -9 -5 -40q-2 -11 -2 -23q0 -44 32 -85l40 -45q5 -7 5 -23q0 -29 -12 -62zM332 289l-53 -117l-46 -126q-7 -20 -28 -41t-38 -21q-21 0 -21 27q0 22 12 55q13 37 34 61t22 26 l23 63l56 123l89 246q8 22 8 62v8v3q0 16 12 49q9 23 27 51q28 42 52 42q14 0 14 -25q0 -3 -10 -59z" />
<glyph unicode="&#xee;" horiz-adv-x="382" d="M728 929q-7 -20 -22 -41q-19 -27 -34 -28l-113 181q-15 -9 -143 -95q-108 -74 -123 -74q-16 0 -16 22q0 20 10 47q17 44 34 60q33 28 154 112q130 91 145 91q17 0 65 -85q43 -77 55 -116q2 -6 2 -14q0 -23 -14 -60zM332 289l-53 -117l-46 -126q-7 -20 -28 -41t-38 -21 q-21 0 -21 27q0 22 12 55q13 37 34 61t22 26l23 63l56 123l89 246q8 22 8 62v8v3q0 16 12 49q9 23 27 51q28 42 52 42q14 0 14 -25q0 -3 -10 -59z" />
<glyph unicode="&#xf1;" horiz-adv-x="740" d="M891 1029q-20 -54 -70 -104q-61 -61 -121 -61q-44 0 -96.5 56.5t-87.5 56.5q-39 0 -84 -30.5t-48 -30.5q-12 0 -12 17q0 15 7 36q21 56 84 99q60 40 112 40q39 0 87.5 -48.5t88.5 -48.5q51 0 131 86h15q5 -12 5 -23q0 -14 -11 -45zM834 396q-41 -113 -96 -224 q-105 -212 -172 -212q-24 0 -105 268q-70 234 -95 351q-15 -7 -21 -23l-117 -314l-41 -137q-15 -40 -22 -55q-15 -29 -35 -45h-15q-1 3 -1 8q0 23 17 94q18 76 27 102l191 524q7 20 21 39q21 29 41 29q5 0 12.5 -6t9.5 -11q163 -654 194 -654q30 0 92 132q35 75 57 135 q40 110 52 179q6 32 7 85q1 38 13 72q6 15 19 37q20 34 35 34q19 0 19 -43q0 -65 -43 -221q-28 -100 -44 -144z" />
<glyph unicode="&#xf2;" horiz-adv-x="874" d="M946 935q-28 -77 -63 -77q-17 0 -41 31q-47 59 -47 149q0 59 21 117q30 82 60 82q12 0 12 -24q0 -9 -5 -40q-2 -11 -2 -23q0 -44 32 -85l40 -45q5 -7 5 -23q0 -29 -12 -62zM1004 517q-116 -318 -406 -456q-161 -77 -264 -77q-189 0 -189 170q0 62 27 136q50 138 153 256 q125 145 295 212q35 14 116 27t135 13q167 0 167 -127q0 -59 -34 -154zM952 523q8 23 8 42q0 44 -43 66q-33 17 -82 17q-303 0 -472 -180q-113 -119 -133 -174q-9 -24 -9 -45q0 -57 61 -88q47 -24 104 -24q150 0 321 107q185 117 245 279z" />
<glyph unicode="&#xf4;" horiz-adv-x="874" d="M1118 927q-7 -20 -22 -41q-19 -27 -34 -28l-113 181q-15 -9 -143 -95q-108 -74 -123 -74q-16 0 -16 22q0 20 10 47q17 44 34 60q33 28 154 112q130 91 145 91q17 0 65 -85q43 -77 55 -116q2 -6 2 -14q0 -23 -14 -60zM1004 517q-116 -318 -406 -456q-161 -77 -264 -77 q-189 0 -189 170q0 62 27 136q50 138 153 256q125 145 295 212q35 14 116 27t135 13q167 0 167 -127q0 -59 -34 -154zM952 523q8 23 8 42q0 44 -43 66q-33 17 -82 17q-303 0 -472 -180q-113 -119 -133 -174q-9 -24 -9 -45q0 -57 61 -88q47 -24 104 -24q150 0 321 107 q185 117 245 279z" />
<glyph unicode="&#xf5;" horiz-adv-x="874" d="M1164 1023q-20 -54 -70 -104q-61 -61 -121 -61q-44 0 -96.5 56.5t-87.5 56.5q-39 0 -84 -30.5t-48 -30.5q-12 0 -12 17q0 15 7 36q21 56 84 99q60 40 112 40q39 0 87.5 -48.5t88.5 -48.5q51 0 131 86h15q5 -12 5 -23q0 -14 -11 -45zM1004 517q-116 -318 -406 -456 q-161 -77 -264 -77q-189 0 -189 170q0 62 27 136q50 138 153 256q125 145 295 212q35 14 116 27t135 13q167 0 167 -127q0 -59 -34 -154zM952 523q8 23 8 42q0 44 -43 66q-33 17 -82 17q-303 0 -472 -180q-113 -119 -133 -174q-9 -24 -9 -45q0 -57 61 -88q47 -24 104 -24 q150 0 321 107q185 117 245 279z" />
<glyph unicode="&#xf9;" horiz-adv-x="656" d="M887 946q-28 -77 -63 -77q-17 0 -41 31q-47 59 -47 149q0 59 21 117q30 82 60 82q12 0 12 -24q0 -9 -5 -40q-2 -11 -2 -23q0 -44 32 -85l40 -45q5 -7 5 -23q0 -29 -12 -62zM708 257q-46 -126 -98 -169q-32 -26 -61 -32l-149 -38q-122 -29 -172 -29q-113 0 -113 107 q0 39 16 104l25 102l113 304l60 117q35 67 59 67q14 0 14 -22q0 -23 -11 -53q-18 -31 -54 -99q-33 -64 -82 -200l-39 -104q-20 -59 -20 -92q0 -70 87 -70q30 0 148 22q141 27 192 53q16 8 32 53q38 103 70 277t36 185q25 69 51 69q11 0 11 -33q0 -34 -17 -132 q-41 -232 -98 -387z" />
<glyph unicode="&#xfb;" horiz-adv-x="656" d="M1059 938q-7 -20 -22 -41q-19 -27 -34 -28l-113 181q-15 -9 -143 -95q-108 -74 -123 -74q-16 0 -16 22q0 20 10 47q17 44 34 60q33 28 154 112q130 91 145 91q17 0 65 -85q43 -77 55 -116q2 -6 2 -14q0 -23 -14 -60zM708 257q-46 -126 -98 -169q-32 -26 -61 -32l-149 -38 q-122 -29 -172 -29q-113 0 -113 107q0 39 16 104l25 102l113 304l60 117q35 67 59 67q14 0 14 -22q0 -23 -11 -53q-18 -31 -54 -99q-33 -64 -82 -200l-39 -104q-20 -59 -20 -92q0 -70 87 -70q30 0 148 22q141 27 192 53q16 8 32 53q38 103 70 277t36 185q25 69 51 69 q11 0 11 -33q0 -34 -17 -132q-41 -232 -98 -387z" />
<glyph unicode="&#x152;" horiz-adv-x="1602" d="M1831 745q-27 -75 -67 -75h-69q-56 0 -250 -21q-170 -18 -199 -23q-16 -3 -30 -41q-10 -26 -10 -31q0 -10 11 -10q-5 0 146.5 35t192.5 35q22 0 22 -31q0 -24 -11 -53q-5 -15 -21 -38t-25 -28l-192 -37q-178 -35 -188 -62l-87 -240q-5 -14 -5 -22q0 -11 10 -11 q399 132 524 132q20 0 20 -29q0 -23 -10 -51q-27 -76 -79 -81l-93 -14l-101 -17q-42 -7 -78 -16q-105 -26 -182 -60q-61 -26 -65 -26q-30 0 -30 50q0 31 22 116l178 505l4 54q1 19 10 43q7 20 29 52q28 44 46 44q3 0 15.5 -5.5t15.5 -5.5q-10 0 206.5 23t302.5 23 q49 0 49 -34q0 -17 -12 -50zM1004 517q-116 -318 -406 -456q-161 -77 -264 -77q-189 0 -189 170q0 62 27 136q50 138 153 256q125 145 295 212q35 14 116 27t135 13q167 0 167 -127q0 -59 -34 -154zM952 523q8 23 8 42q0 44 -43 66q-33 17 -82 17q-303 0 -472 -180 q-113 -119 -133 -174q-9 -24 -9 -45q0 -57 61 -88q47 -24 104 -24q150 0 321 107q185 117 245 279z" />
<glyph unicode="&#x153;" horiz-adv-x="1602" d="M1831 745q-27 -75 -67 -75h-69q-56 0 -250 -21q-170 -18 -199 -23q-16 -3 -30 -41q-10 -26 -10 -31q0 -10 11 -10q-5 0 146.5 35t192.5 35q22 0 22 -31q0 -24 -11 -53q-5 -15 -21 -38t-25 -28l-192 -37q-178 -35 -188 -62l-87 -240q-5 -14 -5 -22q0 -11 10 -11 q399 132 524 132q20 0 20 -29q0 -23 -10 -51q-27 -76 -79 -81l-93 -14l-101 -17q-42 -7 -78 -16q-105 -26 -182 -60q-61 -26 -65 -26q-30 0 -30 50q0 31 22 116l178 505l4 54q1 19 10 43q7 20 29 52q28 44 46 44q3 0 15.5 -5.5t15.5 -5.5q-10 0 206.5 23t302.5 23 q49 0 49 -34q0 -17 -12 -50zM1004 517q-116 -318 -406 -456q-161 -77 -264 -77q-189 0 -189 170q0 62 27 136q50 138 153 256q125 145 295 212q35 14 116 27t135 13q167 0 167 -127q0 -59 -34 -154zM952 523q8 23 8 42q0 44 -43 66q-33 17 -82 17q-303 0 -472 -180 q-113 -119 -133 -174q-9 -24 -9 -45q0 -57 61 -88q47 -24 104 -24q150 0 321 107q185 117 245 279z" />
<glyph unicode="&#x2c6;" horiz-adv-x="611" d="M715 525q-7 -20 -22 -41q-19 -27 -34 -28l-113 181q-15 -9 -143 -95q-108 -74 -123 -74q-16 0 -16 22q0 20 10 47q17 44 34 60q33 28 154 112q130 91 145 91q17 0 65 -85q43 -77 55 -116q2 -6 2 -14q0 -23 -14 -60z" />
<glyph unicode="&#x2dc;" horiz-adv-x="776" d="M293 225q-20 -54 -70 -104q-61 -61 -121 -61q-44 0 -96.5 56.5t-87.5 56.5q-39 0 -84 -30.5t-48 -30.5q-12 0 -12 17q0 15 7 36q21 56 84 99q60 40 112 40q39 0 87.5 -48.5t88.5 -48.5q51 0 131 86h15q5 -12 5 -23q0 -14 -11 -45z" />
<glyph unicode="&#x2000;" horiz-adv-x="634" />
<glyph unicode="&#x2001;" horiz-adv-x="1268" />
<glyph unicode="&#x2002;" horiz-adv-x="634" />
<glyph unicode="&#x2003;" horiz-adv-x="1268" />
<glyph unicode="&#x2004;" horiz-adv-x="422" />
<glyph unicode="&#x2005;" horiz-adv-x="317" />
<glyph unicode="&#x2006;" horiz-adv-x="211" />
<glyph unicode="&#x2007;" horiz-adv-x="211" />
<glyph unicode="&#x2008;" horiz-adv-x="158" />
<glyph unicode="&#x2009;" horiz-adv-x="253" />
<glyph unicode="&#x200a;" horiz-adv-x="70" />
<glyph unicode="&#x2010;" horiz-adv-x="588" d="M578 311q-25 -35 -53 -35t-134.5 15t-111.5 19.5t-5 20.5q0 34 9 59q29 78 81 78q27 0 136 -10q106 -10 109 -12q7 -6 7 -26q0 -29 -10 -57.5t-28 -51.5z" />
<glyph unicode="&#x2011;" horiz-adv-x="588" d="M578 311q-25 -35 -53 -35t-134.5 15t-111.5 19.5t-5 20.5q0 34 9 59q29 78 81 78q27 0 136 -10q106 -10 109 -12q7 -6 7 -26q0 -29 -10 -57.5t-28 -51.5z" />
<glyph unicode="&#x2013;" horiz-adv-x="500" d="M100 250v100h300v-100h-300z" />
<glyph unicode="&#x2014;" horiz-adv-x="1000" d="M100 250v100h800v-100h-800z" />
<glyph unicode="&#x2018;" horiz-adv-x="470" d="M530 492q-28 -77 -63 -77q-17 0 -41 31q-47 59 -47 149q0 59 21 117q30 82 60 82q12 0 12 -24q0 -9 -5 -40q-2 -11 -2 -23q0 -44 32 -85l40 -45q5 -7 5 -23q0 -29 -12 -62z" />
<glyph unicode="&#x2019;" horiz-adv-x="492" d="M558 686q-13 -36 -58 -111q-61 -104 -96 -104q-13 0 -13 25q0 29 9 53q14 39 55 85t47 62q1 4 9 65t10 65q6 17 19 40q22 35 38 35q14 0 14 -47q0 -19 -2 -45q-3 -45 -32 -123z" />
<glyph unicode="&#x201c;" horiz-adv-x="642" d="M730 638q-13 -35 -58 -106q-63 -99 -103 -99q-16 0 -16 26q0 29 11 60q16 44 58 86.5t49 60.5q1 4 14 64.5t14 64.5q31 86 63 86q13 0 13 -31q0 -40 -22 -129q-16 -63 -23 -83zM524 693q-20 -55 -68 -134q-70 -117 -119 -117q-16 0 -16 28q0 29 11 57q20 56 68.5 98 t59.5 74q1 2 12.5 51t13.5 54q28 77 58 77q17 0 17 -31q0 -56 -37 -157z" />
<glyph unicode="&#x201d;" horiz-adv-x="642" d="M730 638q-13 -35 -58 -106q-63 -99 -103 -99q-16 0 -16 26q0 29 11 60q16 44 58 86.5t49 60.5q1 4 14 64.5t14 64.5q31 86 63 86q13 0 13 -31q0 -40 -22 -129q-16 -63 -23 -83zM524 693q-20 -55 -68 -134q-70 -117 -119 -117q-16 0 -16 28q0 29 11 57q20 56 68.5 98 t59.5 74q1 2 12.5 51t13.5 54q28 77 58 77q17 0 17 -31q0 -56 -37 -157z" />
<glyph unicode="&#x2026;" horiz-adv-x="1476" d="M1353 128q-13 -34 -62.5 -82.5t-74.5 -48.5q-15 0 -15 22q0 24 9.5 49.5t49.5 70.5q50 57 86 57q17 0 17 -23q0 -18 -10 -45zM861 128q-13 -34 -62.5 -82.5t-74.5 -48.5q-15 0 -15 22q0 24 9.5 49.5t49.5 70.5q50 57 86 57q17 0 17 -23q0 -18 -10 -45zM369 128 q-13 -34 -62.5 -82.5t-74.5 -48.5q-15 0 -15 22q0 24 9.5 49.5t49.5 70.5q50 57 86 57q17 0 17 -23q0 -18 -10 -45z" />
<glyph unicode="&#x202f;" horiz-adv-x="253" />
<glyph unicode="&#x2039;" horiz-adv-x="661" d="M881 745q-14 -40 -37 -61q-18 -15 -87 -56l-406 -245q-3 -8 28 -30q17 -10 33 -21q68 -49 117 -102l84 -94q3 -4 3 -16q0 -29 -11 -61q-18 -48 -43 -62q-34 8 -60 39q-52 64 -127 128t-124 90q-71 37 -71 74q0 17 12 49q17 46 84 92q41 28 129 71.5t112 60.5 q33 23 167 104q164 97 189 97q16 0 16 -21q0 -15 -8 -36z" />
<glyph unicode="&#x203a;" horiz-adv-x="672" d="M783 408q-25 -67 -71 -101q-84 -62 -352 -195q-247 -123 -260 -123q-15 0 -15 21q0 20 12 53l10 34q9 21 41 43q42 28 278 136q218 100 218 117q0 14 -45 49l-178 139l-53 36q-34 24 -50 51q-3 7 0 31q3 23 8 37q23 64 53 64q31 0 399 -300q13 -11 13 -42q0 -27 -8 -50z " />
<glyph unicode="&#x205f;" horiz-adv-x="317" />
<glyph unicode="&#x2122;" horiz-adv-x="798" d="M907 454q-21 -56 -42 -66h-14q-4 5 -4 19q0 21 20 106t19 118q-21 -15 -190 -211q-24 0 -25 75q1 51 1 102q-18 -10 -68 -85q-7 -10 -42 -76q-18 -33 -34 -33q-10 0 -10 17q0 20 10 47q12 34 90 156q92 146 125 146q9 0 9 -22q0 -6 -3.5 -60.5t-3.5 -99.5h7l110 127 q68 77 86 77q25 0 25 -28q0 -9 -3 -22zM650 722q-19 -53 -61 -67q-12 -4 -71 -8q-38 -2 -47 -26l-34 -127q-6 -17 -19 -39q-19 -33 -32 -33q-9 0 -9 19q0 20 18.5 95.5t17.5 99.5l-51 -4q-34 -3 -37 -3q-28 0 -28 29q0 17 10 44q11 33 13 36q13 26 31 30q125 28 287 28 q24 0 24 -26q0 -16 -12 -48z" />
</font>
</defs>
</svg>
