<?xml version="1.0" standalone="no"?>
<!DOCTYPE svg PUBLIC "-//W3C//DTD SVG 1.1//EN" "http://www.w3.org/Graphics/SVG/1.1/DTD/svg11.dtd" >
<svg xmlns="http://www.w3.org/2000/svg">
<metadata>
This is a custom SVG webfont generated by Font Squirrel.
Designer    : Robby Woodard
Foundry     : Designed and produced by Robby Woodard
</metadata>
<defs>
<font id="webfont2htNrBTC" horiz-adv-x="948" >
<font-face units-per-em="2048" ascent="1679" descent="-369" />
<missing-glyph horiz-adv-x="483" />
<glyph unicode=" "  horiz-adv-x="483" />
<glyph unicode="&#x09;" horiz-adv-x="483" />
<glyph unicode="&#xa0;" horiz-adv-x="483" />
<glyph unicode="!" horiz-adv-x="296" d="M242 328q0 -29 -21.5 -51.5t-52.5 -22.5t-52.5 22.5t-21.5 51.5v925q0 31 21.5 53.5t52.5 22.5t52.5 -22.5t21.5 -53.5v-925zM264 86q0 -41 -27.5 -68.5t-68.5 -27.5t-68.5 27.5t-27.5 68.5t28.5 69.5t67.5 28.5t67.5 -28.5t28.5 -69.5z" />
<glyph unicode="&#x22;" horiz-adv-x="473" d="M180 991q0 -29 -21.5 -50t-50 -21t-50 21.5t-21.5 49.5v264q0 31 21.5 52.5t50 21.5t50 -21.5t21.5 -52.5v-264zM434 991q0 -29 -21.5 -50t-50 -21t-50 21.5t-21.5 49.5v264q0 31 21.5 52.5t50 21.5t50 -21.5t21.5 -52.5v-264z" />
<glyph unicode="#" horiz-adv-x="1060" d="M1020 1038q0 -31 -21.5 -51t-52.5 -20h-145l-49 -148h92q29 0 50 -21.5t21 -50t-21.5 -50t-49.5 -21.5h-142l-69 -199q-16 -49 -68 -49q-10 0 -22 4q-49 16 -49 68q0 8 4 24l51 152h-176l-68 -199q-16 -49 -67 -49q-8 0 -25 4q-47 16 -47 68q0 16 4 24l51 152h-106 q-29 0 -50.5 21.5t-21.5 50t21.5 50t50.5 21.5h155l52 148h-105q-29 0 -50.5 20.5t-21.5 50.5q0 29 21.5 50.5t50.5 21.5h154l57 166q16 49 68 49q8 0 24 -4q49 -18 49 -68q0 -8 -4 -24l-43 -119h176l58 166q16 49 69 49q6 0 23 -4q49 -16 49 -68q0 -8 -4 -24l-41 -119h94 q31 0 52.5 -21.5t21.5 -50.5zM649 967h-176l-49 -148h174z" />
<glyph unicode="$" horiz-adv-x="720" d="M649 469q0 -111 -70.5 -178.5t-172.5 -79.5v-156q0 -29 -19.5 -49t-46.5 -20q-29 0 -48.5 20.5t-19.5 48.5v160q-143 33 -223 137q-16 23 -16 43q0 29 21.5 49.5t50 20.5t49.5 -27q31 -41 87 -66.5t115 -25.5q76 0 117 35t41 80q0 57 -41 98t-145 66q-109 27 -184.5 91 t-75.5 169q0 96 58 156.5t146 78.5v137q0 29 19.5 49.5t48.5 20.5q27 0 46.5 -20.5t19.5 -49.5v-133q94 -12 180 -53q39 -16 39 -61q0 -27 -18.5 -49.5t-47.5 -22.5q-14 0 -29 6q-100 45 -180 45q-68 0 -107.5 -26.5t-39.5 -73.5q0 -94 153 -127q143 -31 218 -110t75 -183z " />
<glyph unicode="%" horiz-adv-x="1413" d="M1360 487q0 -164 -137.5 -337t-300.5 -173q-94 0 -146.5 66t-52.5 160q0 164 136 336t300 172q96 0 148.5 -66t52.5 -158zM1196 1257q0 -25 -12 -43l-850 -1200q-18 -29 -58 -28q-29 0 -50 20.5t-21 50.5q0 20 14 41l848 1200q23 29 57 29q31 0 51.5 -20.5t20.5 -49.5z M690 1114q0 -164 -137 -336t-301 -172q-94 0 -146.5 64.5t-52.5 158.5q0 164 137.5 336t301.5 172q94 0 146 -65.5t52 -157.5zM1217 487q0 82 -58 82q-98 0 -196.5 -129t-98.5 -237q0 -82 58 -82q98 0 196.5 128.5t98.5 237.5zM547 1114q0 82 -55 82q-100 0 -197.5 -129 t-97.5 -238q0 -82 55 -81q100 0 197.5 128.5t97.5 237.5z" />
<glyph unicode="&#x26;" horiz-adv-x="954" d="M874 324q0 -55 -51 -68q-123 -34 -227 -49v-158q0 -29 -20.5 -50.5t-49 -21.5t-49 21.5t-20.5 50.5v146h-33q-162 0 -266.5 61t-104.5 174q0 141 160 252q-59 53 -59 137q0 111 93 192t210 115v140q0 29 20.5 49t49 20t49 -20.5t20.5 -48.5v-113q51 8 127 8q49 0 74 -2 q31 -2 49 -22.5t18 -51.5q0 -29 -21.5 -49t-47.5 -20h-4q-23 2 -64 2q-207 0 -320.5 -65.5t-113.5 -133.5q0 -23 22.5 -37t53.5 -14q12 0 32 4q135 35 373 68h12q33 0 50.5 -21.5t17.5 -52.5q0 -57 -59 -68l-220 -32q-164 -25 -273 -93.5t-109 -138.5q0 -98 231 -98 q154 0 362 57q8 2 21 2q31 0 49 -22t18 -49z" />
<glyph unicode="'" horiz-adv-x="215" d="M180 991q0 -29 -21.5 -50t-50 -21t-50 21.5t-21.5 49.5v264q0 31 21.5 52.5t50 21.5t50 -21.5t21.5 -52.5v-264z" />
<glyph unicode="(" horiz-adv-x="557" d="M537 -174q0 -31 -20.5 -51.5t-47.5 -20.5q-16 0 -31 8q-197 106 -307.5 322.5t-110.5 460t112 474t294 392.5q18 18 43 19q27 0 47.5 -19.5t20.5 -52.5q0 -35 -23 -53q-172 -178 -265 -359.5t-93 -400.5q0 -420 346 -658q35 -20 35 -61z" />
<glyph unicode=")" horiz-adv-x="557" d="M539 637q0 -244 -113 -474.5t-295 -393.5q-20 -16 -43 -17q-27 0 -47.5 19.5t-20.5 52.5q0 27 23 53q174 178 267 358.5t93 401.5q0 420 -348 655q-35 27 -35 64q0 31 20.5 51t47.5 20q16 0 31 -8q199 -106 309.5 -321t110.5 -461z" />
<glyph unicode="*" horiz-adv-x="616" d="M602 1073q0 -27 -18.5 -46t-51.5 -19l-98 -2l58 -86q12 -18 12 -39q0 -27 -19.5 -48.5t-48.5 -21.5q-39 0 -61 31l-68 102l-67 -102q-23 -31 -60 -31q-31 0 -50 20.5t-19 49.5q0 20 12 39l55 86h-96q-72 0 -72 73q0 29 21.5 48.5t50.5 19.5h90l-49 76q-12 18 -12 39 q0 29 19.5 49t47.5 20q41 0 62 -31l67 -102l68 102q18 31 59 31q29 0 49.5 -20.5t20.5 -48.5q0 -20 -12 -39l-52 -76h92q70 0 70 -74z" />
<glyph unicode="+" horiz-adv-x="950" d="M899 563.5q0 -28.5 -20.5 -49t-49.5 -20.5h-280v-299q0 -29 -20.5 -49.5t-49 -20.5t-49 20.5t-20.5 49.5v299h-289q-29 0 -49.5 20.5t-20.5 49t20.5 49t49.5 20.5h289v309q0 29 20.5 49.5t49 20.5t49 -20.5t20.5 -49.5v-309h280q29 0 49.5 -20.5t20.5 -49z" />
<glyph unicode="," horiz-adv-x="280" d="M258 74q0 -70 -43 -174.5t-92 -147.5q-20 -18 -49 -18t-51.5 20.5t-22.5 52.5q0 31 25 56q25 23 46 67.5t25 83.5q-33 27 -33 74q0 39 30 66.5t67 27.5q49 0 73.5 -30.5t24.5 -77.5z" />
<glyph unicode="-" horiz-adv-x="528" d="M477 512q0 -29 -21.5 -50.5t-49.5 -21.5h-281q-29 0 -50.5 21.5t-21.5 50.5q0 31 21.5 51.5t50.5 20.5h281q29 0 50 -20.5t21 -51.5z" />
<glyph unicode="." horiz-adv-x="270" d="M250 86q0 -41 -28.5 -68.5t-67.5 -27.5t-68 27.5t-29 68.5t29 69.5t68 28.5t67.5 -28.5t28.5 -69.5z" />
<glyph unicode="/" horiz-adv-x="1003" d="M971 1262q0 -23 -13 -41l-790 -1209q-25 -33 -62 -32q-31 0 -53 20t-22 53q0 20 12 39l793 1211q20 33 59 32q31 0 53.5 -20t22.5 -53z" />
<glyph unicode="0" horiz-adv-x="1382" d="M1329 870.5q0 -202.5 -117.5 -410.5t-314.5 -345.5t-403 -137.5q-201 0 -321 133.5t-120 336t118 410.5t314.5 344t403.5 136q201 0 320.5 -132t119.5 -334.5zM1186 870q0 145 -79 234.5t-218 89.5q-168 0 -331 -115.5t-262 -291t-99 -343.5q0 -143 78.5 -233t218.5 -90 q168 0 330.5 115.5t262 290.5t99.5 343z" />
<glyph unicode="1" horiz-adv-x="573" d="M465 61q0 -31 -21.5 -52t-52.5 -21t-52.5 21.5t-21.5 51.5v1031l-131 -119q-33 -20 -51 -21q-31 0 -52.5 22.5t-21.5 53.5q0 33 25 55l256 228q27 18 49 18q31 0 52.5 -22.5t21.5 -51.5v-1194z" />
<glyph unicode="2" horiz-adv-x="1013" d="M938 965q0 -221 -246 -396q-158 -113 -259 -207t-177 -221h594q29 0 49.5 -20.5t20.5 -48.5q0 -31 -20.5 -51.5t-49.5 -20.5h-707q-35 0 -52 22.5t-17 53.5q0 14 8 39q88 180 212 305t318 266q186 131 187 279q0 106 -84 167.5t-199 61.5q-143 0 -330 -111 q-16 -10 -36 -10q-29 0 -49.5 19.5t-20.5 52.5q0 35 33 59q78 59 190.5 95t210.5 36q168 0 296 -99t128 -271z" />
<glyph unicode="3" horiz-adv-x="1077" d="M1020 592q0 -166 -139.5 -308.5t-340 -220t-403.5 -81.5l-4 -2q-31 0 -52.5 19t-21.5 52q0 27 17.5 47.5t44.5 24.5q309 35 533.5 168t224.5 301q0 98 -87 148.5t-202 50.5q-98 0 -234 -33q-39 -8 -104.5 -25.5t-89.5 -21.5h-10q-29 0 -48.5 19.5t-19.5 49.5 q0 27 12.5 43.5t27.5 22.5t40 10q33 8 233 53q98 18 137 60.5t39 109.5q0 53 -34.5 82t-92.5 29q-109 0 -288 -94q-15 -6 -31 -6q-29 0 -50.5 19t-21.5 50q0 37 37 64q74 45 173.5 77.5t180.5 32.5q113 0 190 -64.5t77 -181.5q0 -92 -60 -163q150 -10 258.5 -96t108.5 -236z " />
<glyph unicode="4" horiz-adv-x="1157" d="M1124 413.5q0 -30.5 -22.5 -52t-50.5 -21.5h-160v-281q0 -31 -21.5 -52t-52.5 -21t-52.5 21.5t-21.5 51.5v281h-637q-31 0 -52 21.5t-21 52.5q0 27 16 47l696 839q20 27 56 27q31 0 53.5 -20.5t22.5 -53.5q0 -25 -19 -47l-594 -719h479v316q0 31 21.5 52.5t52.5 21.5 t52.5 -21.5t21.5 -52.5v-316h160q29 0 51 -21.5t22 -52z" />
<glyph unicode="5" horiz-adv-x="1026" d="M954 571q0 -133 -84 -248.5t-214 -187.5t-273 -112.5t-272 -42.5l-2 -3q-31 0 -52.5 19.5t-21.5 52.5q0 29 17.5 49.5t43.5 22.5q299 35 508 156.5t209 291.5q0 100 -80 153.5t-192 53.5q-35 0 -69 -4t-76 -14t-64.5 -16.5t-75.5 -23.5l-66 -20q-6 -4 -20 -4 q-29 0 -49.5 20.5t-20.5 51.5v477q0 29 20.5 50.5t49.5 21.5h612q29 0 50.5 -21.5t21.5 -50.5t-21.5 -50.5t-50.5 -21.5h-542v-309q180 57 299 58q166 0 290.5 -90.5t124.5 -258.5z" />
<glyph unicode="6" horiz-adv-x="1206" d="M1135 573q0 -219 -176.5 -407.5t-391.5 -188.5q-221 0 -357 156t-136 381q0 227 132 411.5t345 291.5q152 76 356 116q4 2 15 2q29 0 49 -21.5t20 -49.5q0 -55 -57 -70q-150 -35 -234 -68q-213 -84 -349 -243.5t-136 -368.5q0 -113 45 -205q2 219 174 405.5t385 186.5 q141 0 228.5 -93.5t87.5 -234.5zM993 573q0 84 -46 135.5t-128 51.5q-156 0 -291 -146.5t-135 -306.5q0 -86 46 -136t128 -50q156 0 291 146t135 306z" />
<glyph unicode="7" horiz-adv-x="1081" d="M1044 1241q0 -20 -14 -41l-788 -1182q-20 -33 -62 -32q-31 0 -52.5 21.5t-21.5 51.5q0 23 13 41l712 1067h-708q-31 0 -52.5 21.5t-21.5 52.5t21.5 52.5t52.5 21.5h846q31 0 53 -21.5t22 -52.5z" />
<glyph unicode="8" horiz-adv-x="1239" d="M1180 586q0 -164 -118 -307.5t-285 -221t-324 -77.5q-160 0 -278 85t-118 244q0 127 77 250t188 207q-137 66 -138 207q0 154 148.5 258t302.5 104q113 0 200 -60.5t87 -174.5q0 -92 -64 -176q135 -20 228.5 -109.5t93.5 -228.5zM780 1102q0 43 -43 66.5t-100 23.5 q-102 0 -206.5 -66.5t-104.5 -156.5q0 -41 43 -65.5t100 -24.5q104 0 207.5 66.5t103.5 156.5zM1038 586q0 94 -73.5 146t-176.5 52q-117 0 -254 -65.5t-236 -178t-99 -231.5q0 -92 72.5 -139t179.5 -47q127 0 263 62.5t230 172t94 228.5z" />
<glyph unicode="9" horiz-adv-x="1206" d="M1130 801q0 -229 -132 -412.5t-345 -290.5q-147 -76 -356 -116q-4 -2 -14 -2q-29 0 -49.5 21.5t-20.5 49.5q0 55 57 70q150 35 234 67q213 84 349 244t136 369q0 113 -45 203q-2 -217 -173 -403.5t-386 -186.5q-141 0 -227 93t-86 234q0 217 175 405.5t392 188.5 q221 0 356 -154.5t135 -379.5zM811 1008q0 86 -46 136t-128 50q-154 0 -289 -146.5t-135 -306.5q0 -84 45 -135t127 -51q156 0 291 146.5t135 306.5z" />
<glyph unicode=":" horiz-adv-x="276" d="M244 674q0 -39 -28 -67.5t-69 -28.5t-68.5 28.5t-27.5 67.5q0 41 29 69.5t67.5 28.5t67.5 -28.5t29 -69.5zM244 305q0 -39 -28 -67.5t-69 -28.5t-68.5 28.5t-27.5 67.5t27.5 67.5t68.5 28.5t69 -28.5t28 -67.5z" />
<glyph unicode=";" horiz-adv-x="303" d="M264 674q0 -39 -27.5 -67.5t-68.5 -28.5t-68.5 28.5t-27.5 67.5q0 41 28.5 69.5t67.5 28.5t67.5 -28.5t28.5 -69.5zM268 307q0 -70 -43 -175t-92 -148q-18 -16 -49 -17q-29 0 -51.5 19.5t-22.5 52.5q0 35 25 55q25 23 46 67t25 85q-33 29 -32 73q0 39 29.5 68t66.5 29 q49 0 73.5 -32t24.5 -77z" />
<glyph unicode="&#x3c;" horiz-adv-x="858" d="M819 911q0 -43 -37 -65l-542 -316l542 -317q37 -20 37 -63q0 -33 -22.5 -53.5t-51.5 -20.5q-25 0 -36 10l-652 379q-37 23 -37 65q0 41 37 64l652 381q16 10 36 10q29 0 51.5 -21.5t22.5 -52.5z" />
<glyph unicode="=" horiz-adv-x="786" d="M760 673.5q0 -28.5 -21.5 -50t-50.5 -21.5h-592q-31 0 -52 21.5t-21 50t21.5 50t51.5 21.5h592q29 0 50.5 -21.5t21.5 -50zM760 342q0 -29 -21.5 -50.5t-50.5 -21.5h-592q-31 0 -52 21.5t-21 50.5t21.5 50.5t51.5 21.5h592q29 0 50.5 -21.5t21.5 -50.5z" />
<glyph unicode="&#x3e;" horiz-adv-x="858" d="M840 530q0 -43 -37 -65l-651 -379q-16 -10 -37 -10q-31 0 -52.5 20.5t-21.5 53.5q0 45 35 63l542 317l-542 316q-35 23 -35 65q0 31 21.5 52.5t52.5 21.5q16 0 37 -10l651 -381q37 -23 37 -64z" />
<glyph unicode="?" horiz-adv-x="958" d="M381 86q0 -41 -28.5 -68.5t-67.5 -27.5t-68 27.5t-29 68.5t29 69.5t68 28.5t67.5 -28.5t28.5 -69.5zM924 991q0 -129 -90.5 -240.5t-264.5 -170.5q-94 -35 -158.5 -87.5t-64.5 -115.5v-53q0 -29 -20.5 -50.5t-49 -21.5t-50 21.5t-21.5 50.5v53q0 94 72.5 185t246.5 151 q127 45 193.5 119.5t66.5 156.5q0 88 -73.5 146.5t-204.5 58.5q-166 0 -367 -117q-18 -12 -37 -12q-29 0 -49 23.5t-20 52.5q0 37 35 57q231 137 442 137q193 0 303.5 -100.5t110.5 -243.5z" />
<glyph unicode="@" horiz-adv-x="1748" d="M1706 784q0 -188 -101.5 -332.5t-281.5 -144.5q-88 0 -156.5 46t-99.5 126q-207 -168 -397 -168q-119 0 -193 67.5t-74 180.5q0 145 105.5 258t248 165t281.5 52q78 0 181 -16q63 -14 63 -76q0 -8 -4 -20q-2 -4 -18 -54l-29 -93q-14 -44 -26.5 -99t-12.5 -84 q0 -66 35 -103.5t96 -37.5q111 0 175.5 97t64.5 236q0 162 -143.5 286t-415.5 124q-207 0 -388.5 -67.5t-304.5 -217t-123 -354.5q0 -217 166 -326.5t408 -109.5q250 0 450 110q16 10 39 11q29 0 49.5 -20.5t20.5 -49.5q0 -45 -43 -68q-223 -127 -516 -127q-139 0 -264 35 t-228.5 102.5t-165 182.5t-61.5 262q0 352 277.5 565t683.5 213q172 0 310 -48t221 -127t127 -176.5t44 -199.5zM1116 887q-27 2 -78 2q-221 0 -356 -106.5t-135 -219.5q0 -51 31.5 -80.5t93.5 -29.5q172 0 381 206q4 29 63 228z" />
<glyph unicode="A" horiz-adv-x="1277" d="M1239 57q0 -29 -21.5 -51t-52.5 -22q-51 0 -67 45l-166 385h-584l-166 -383q-16 -45 -67 -45q-31 0 -52.5 21.5t-21.5 51.5q0 16 6 29l518 1200q20 49 73.5 49t76.5 -47l518 -1202q6 -16 6 -31zM868 561l-229 529l-227 -529h456z" />
<glyph unicode="B" horiz-adv-x="1230" d="M1192 600q0 -129 -85 -237.5t-210 -177t-271.5 -118t-265 -70t-196.5 -20.5q-29 0 -49.5 26t-20.5 56v1102q0 45 41 66q88 47 203 79.5t205 32.5q125 0 215 -64.5t90 -189.5q0 -94 -70 -161q170 -12 292 -91t122 -233zM698 1085q0 106 -155 107q-123 0 -301 -78v-285 q150 57 278 80q41 8 49 11q51 16 90 66t39 99zM1044 598q0 102 -99 148.5t-230 46.5q-211 0 -473 -115v-551q90 14 186 37.5t210 64.5t202 92.5t146 124t58 152.5z" />
<glyph unicode="C" horiz-adv-x="1159" d="M1120 221q0 -35 -28 -57q-272 -186 -525 -187q-221 0 -369.5 151t-148.5 376q0 174 89 323.5t234.5 251t311.5 167t338 89.5q4 2 12 2q31 0 53.5 -20.5t22.5 -50.5q0 -27 -17.5 -47.5t-45.5 -24.5q-150 -23 -294.5 -77t-271.5 -137t-205.5 -208t-78.5 -268 q0 -166 107.5 -274.5t270.5 -108.5q199 0 429 160q20 14 43 14q29 0 51 -21.5t22 -52.5z" />
<glyph unicode="D" horiz-adv-x="1257" d="M1210 829q0 -141 -62.5 -267t-164.5 -219t-238.5 -167t-277.5 -120t-287 -70h-12q-31 0 -52.5 20.5t-21.5 50.5v1100q0 45 43 66q100 47 239.5 79.5t250.5 32.5q242 0 412.5 -136.5t170.5 -369.5zM1061 827q0 172 -125 269.5t-309 97.5q-176 0 -385 -84v-977 q143 31 280 90.5t262 144.5t201 204.5t76 254.5z" />
<glyph unicode="E" horiz-adv-x="892" d="M844 70q0 -29 -21.5 -49.5t-52.5 -20.5h-602q-31 0 -52.5 20.5t-21.5 49.5v1173q0 29 21.5 50.5t52.5 21.5h592q31 0 53.5 -21.5t22.5 -50.5t-22.5 -50.5t-53.5 -21.5h-518v-309h481q31 0 52.5 -20.5t21.5 -48.5q0 -31 -21.5 -51.5t-52.5 -20.5h-481v-580h528 q31 0 52.5 -20t21.5 -51z" />
<glyph unicode="F" horiz-adv-x="899" d="M848 1243q0 -29 -21.5 -50.5t-52.5 -21.5h-532v-309h460q31 0 52.5 -20.5t21.5 -48.5q0 -31 -21.5 -51.5t-52.5 -20.5h-460v-662q0 -29 -21.5 -50t-52.5 -21t-52.5 21.5t-21.5 49.5v1184q0 29 21.5 50.5t52.5 21.5h606q31 0 52.5 -21.5t21.5 -50.5z" />
<glyph unicode="G" horiz-adv-x="1206" d="M1124 55q0 -29 -22.5 -50t-52.5 -21q-29 0 -51.5 21.5t-22.5 49.5v88q-90 -78 -210 -120.5t-230 -45.5q-215 0 -350.5 146.5t-135.5 357.5q0 182 89 337t235.5 257.5t312.5 168t342 93.5h14q33 0 51.5 -22.5t18.5 -50.5q0 -59 -59 -68q-152 -23 -297.5 -79t-274.5 -142 t-206.5 -216t-77.5 -281.5t93 -254t242 -100.5q184 0 443 174v143h-313q-31 0 -52.5 21.5t-21.5 50.5t21.5 50.5t52.5 21.5h387q31 0 53 -21.5t22 -50.5v-457z" />
<glyph unicode="H" horiz-adv-x="1136" d="M1042 59q0 -29 -22.5 -50t-50.5 -21q-31 0 -52.5 21.5t-21.5 49.5v660h-653v-660q0 -29 -21.5 -50t-52.5 -21t-52.5 21.5t-21.5 49.5v1196q0 29 21.5 50.5t52.5 21.5t52.5 -21.5t21.5 -50.5v-395h653v395q0 29 21.5 50.5t52.5 21.5q29 0 51 -21.5t22 -50.5v-1196z" />
<glyph unicode="I" horiz-adv-x="335" d="M242 59q0 -29 -21.5 -50t-52.5 -21t-52.5 21.5t-21.5 49.5v1196q0 29 21.5 50.5t52.5 21.5t52.5 -21.5t21.5 -50.5v-1196z" />
<glyph unicode="J" horiz-adv-x="954" d="M860 500q0 -219 -127 -369.5t-346 -150.5q-92 0 -187.5 36.5t-152.5 102.5q-18 23 -18 49q0 31 21.5 52.5t51.5 21.5q27 0 61 -29t90 -57.5t134 -28.5q154 0 240 104.5t86 268.5v751q0 31 21.5 53.5t52 22.5t52 -22.5t21.5 -53.5v-751z" />
<glyph unicode="K" horiz-adv-x="1058" d="M1018 59.5q0 -30.5 -21.5 -53t-52.5 -22.5t-53 24l-649 682v-624q0 -31 -21.5 -52.5t-52.5 -21.5t-52.5 21.5t-21.5 52.5v1185q0 31 21.5 53.5t52.5 22.5t52.5 -22.5t21.5 -53.5v-450l549 510q22 18 49 18q31 0 53 -21.5t22 -52.5q0 -33 -24 -53l-496 -457l602 -636 q21 -19 21 -49.5z" />
<glyph unicode="L" horiz-adv-x="854" d="M803 71.5q0 -28.5 -21.5 -50t-52.5 -21.5h-561q-31 0 -52.5 21.5t-21.5 50.5v1183q0 29 21.5 50.5t52.5 21.5t52.5 -21.5t21.5 -50.5v-1112h487q31 0 52.5 -21.5t21.5 -50z" />
<glyph unicode="M" horiz-adv-x="1497" d="M1403 59q0 -31 -21.5 -52t-52.5 -21t-52.5 21.5t-21.5 51.5v961l-446 -666q-20 -33 -59 -32q-41 0 -62 32l-446 666v-961q0 -31 -21.5 -52t-52.5 -21t-52.5 21.5t-21.5 51.5v1203q0 31 21.5 52t52.5 21q41 0 61 -30l521 -777l518 777q23 31 61 30q31 0 52.5 -21.5 t21.5 -51.5v-1203z" />
<glyph unicode="N" horiz-adv-x="1157" d="M1063 57q0 -29 -21.5 -49t-52.5 -20q-43 0 -61 30l-686 1004v-965q0 -29 -21.5 -49t-52.5 -20t-52.5 20.5t-21.5 48.5v1203q0 29 21.5 50t52.5 21q39 0 61 -33l686 -1003v960q0 29 21.5 50.5t52.5 21.5t52.5 -21.5t21.5 -50.5v-1198z" />
<glyph unicode="O" horiz-adv-x="1306" d="M1255 809q0 -137 -56 -284.5t-151.5 -268.5t-234.5 -200t-291 -79q-221 0 -348 158t-127 373q0 186 94.5 376.5t267.5 321.5t373 131q221 0 347 -156.5t126 -371.5zM1108 809q0 160 -86 272.5t-240 112.5q-158 0 -296 -108.5t-214.5 -266t-76.5 -311.5q0 -160 87 -273.5 t240 -113.5q156 0 294 109.5t215 267t77 311.5z" />
<glyph unicode="P" horiz-adv-x="1052" d="M1016 1008q0 -123 -79 -228.5t-204 -172t-250 -108.5t-241 -59v-381q0 -29 -21.5 -50t-52.5 -21t-52.5 21.5t-21.5 49.5v1086q0 82 200 137t308 55q162 0 288 -85.5t126 -243.5zM868 1008q0 90 -79.5 138t-188.5 48q-174 0 -358 -92v-527q125 23 263 78.5t250.5 153 t112.5 201.5z" />
<glyph unicode="Q" horiz-adv-x="1306" d="M1372 -59.5q0 -30.5 -22.5 -52t-51.5 -21.5q-31 0 -53 22l-276 281q-207 -193 -447 -193q-221 0 -347 158t-126 373q0 139 56.5 285.5t151.5 267.5t234.5 198.5t290.5 77.5q223 0 349 -156.5t126 -371.5q0 -276 -190 -528l283 -287q22 -23 22 -53.5zM1110 809 q0 160 -86 272.5t-241.5 112.5t-294 -108.5t-215 -266t-76.5 -311.5q0 -160 86 -273.5t239 -113.5q186 0 344 151l-112 115q-23 23 -23 51q0 33 23 54q20 20 51 20q33 0 53 -20l107 -109q145 209 145 426z" />
<glyph unicode="R" horiz-adv-x="1064" d="M997 1016q0 -90 -42 -167t-112.5 -129t-147.5 -86t-163 -54l429 -471q20 -25 20 -52q0 -31 -21.5 -52t-52 -21t-55.5 24l-510 561q-18 18 -18 49q0 29 18 49.5t45 24.5q463 84 463 322q0 86 -70.5 131t-171.5 45q-164 0 -366 -107v-1024q0 -31 -21.5 -52t-52.5 -21 t-52.5 21.5t-21.5 51.5v1069q0 43 39 64q254 145 479 145q152 0 268.5 -83.5t116.5 -237.5z" />
<glyph unicode="S" d="M901 348q0 -174 -126 -272.5t-310 -98.5q-102 0 -219 38t-185 106q-25 20 -24 51q0 33 21.5 52.5t50.5 19.5q27 0 49 -17q143 -106 307 -106q127 0 208 58.5t81 168.5q0 96 -73 167t-175 116l-206 91q-103 46 -176 123t-73 181q0 141 122 226t267 85q100 0 252 -42 t152 -115q0 -33 -24.5 -52.5t-55.5 -19.5q-23 0 -39 8q-145 78 -285 78q-90 0 -165.5 -46t-75.5 -122q0 -113 196 -190q94 -35 169 -73t159 -97.5t131 -140.5t47 -177z" />
<glyph unicode="T" horiz-adv-x="1073" d="M1020 1243q0 -29 -21.5 -50.5t-50.5 -21.5h-342v-1114q0 -29 -20.5 -50t-49 -21t-50 21.5t-21.5 49.5v1114h-340q-29 0 -50.5 21.5t-21.5 50.5t21.5 50.5t50.5 21.5h823q29 0 50.5 -21.5t21.5 -50.5z" />
<glyph unicode="U" horiz-adv-x="1146" d="M1053 518q0 -225 -123 -383t-357 -158q-236 0 -357.5 158t-121.5 383v739q0 29 21.5 50.5t52.5 21.5t52.5 -21.5t21.5 -50.5v-739q0 -168 84 -282.5t247.5 -114.5t246.5 114.5t83 282.5v739q0 29 22.5 50.5t53.5 21.5q29 0 51.5 -21.5t22.5 -50.5v-739z" />
<glyph unicode="V" horiz-adv-x="1284" d="M1239 1255q0 -14 -6 -28l-514 -1202q-20 -49 -73.5 -49.5t-74.5 49.5l-520 1206q-6 18 -6 26q0 31 21.5 52.5t52.5 21.5q51 0 67 -43l459 -1061l453 1059q16 45 67 45q31 0 52.5 -22.5t21.5 -53.5z" />
<glyph unicode="W" horiz-adv-x="1873" d="M1825 1253q0 -12 -6 -28l-519 -1198q-20 -49 -73 -49.5t-76 51.5l-217 506l-217 -508q-23 -49 -76 -50q-51 0 -74 52l-516 1196q-6 16 -6 28q0 31 22.5 53.5t51.5 22.5q49 0 69 -45l455 -1057l211 494l-217 504q-6 16 -6 28q0 31 21.5 53.5t52.5 22.5q47 0 67 -45 l455 -1057l456 1057q20 45 68 45q31 0 52.5 -22.5t21.5 -53.5z" />
<glyph unicode="X" horiz-adv-x="1191" d="M1139 57q0 -29 -21.5 -50t-50.5 -21q-35 0 -57 28l-414 582l-414 -582q-23 -29 -57 -28q-29 0 -50.5 21.5t-21.5 49.5q0 20 15 41l440 621l-352 495q-14 23 -15 41q0 29 21.5 50.5t50.5 21.5q33 0 57 -31l326 -456l328 458q20 31 57 31q29 0 49.5 -21.5t20.5 -50.5 q0 -23 -13 -40l-356 -498l442 -621q15 -21 15 -41z" />
<glyph unicode="Y" horiz-adv-x="1142" d="M1106 1255q0 -27 -14 -43l-439 -600v-553q0 -31 -21.5 -52t-52 -21t-52 21.5t-21.5 51.5v551l-455 600q-16 20 -16 45q0 31 22.5 52.5t53.5 21.5q39 0 57 -29l410 -540l395 540q25 31 59 31q31 0 52.5 -22.5t21.5 -53.5z" />
<glyph unicode="Z" horiz-adv-x="1007" d="M963 71.5q0 -28.5 -20.5 -50t-49.5 -21.5h-768q-29 0 -49.5 21.5t-20.5 50.5q0 20 13 39l669 1063h-540q-29 0 -49.5 20t-20.5 51q0 29 20.5 49.5t49.5 20.5h669q29 0 49.5 -20.5t20.5 -49.5q0 -25 -12 -39l-670 -1063h639q29 0 49.5 -21.5t20.5 -50z" />
<glyph unicode="[" horiz-adv-x="466" d="M457 -238q0 -31 -19.5 -51t-48.5 -20h-321q-29 0 -48.5 20.5t-19.5 50.5v1657q0 29 20.5 50.5t47.5 21.5h321q27 0 47.5 -21.5t20.5 -50t-20.5 -50t-47.5 -21.5h-256v-1514h256q27 0 47.5 -21.5t20.5 -50.5z" />
<glyph unicode="\" horiz-adv-x="1107" d="M979 59q0 -31 -21.5 -53t-52.5 -22q-41 0 -61 34l-785 1196q-12 18 -12 39q0 31 21.5 53.5t52.5 22.5q41 0 61 -35l785 -1196q12 -19 12 -39z" />
<glyph unicode="]" horiz-adv-x="471" d="M473 -238q0 -31 -19.5 -51t-47.5 -20h-324q-29 0 -47.5 20.5t-18.5 50.5q0 29 19.5 50.5t46.5 21.5h258v1514h-258q-27 0 -46.5 21.5t-19.5 50t19.5 50t46.5 21.5h324q27 0 47 -21.5t20 -50.5v-1657z" />
<glyph unicode="^" horiz-adv-x="987" d="M944 612q0 -29 -21.5 -49t-50.5 -20q-39 0 -59 35l-319 544l-320 -544q-20 -35 -61 -35q-29 0 -49.5 20.5t-20.5 48.5q0 18 10 35l379 647q18 35 62 35q41 0 59 -35l381 -647q10 -17 10 -35z" />
<glyph unicode="_" horiz-adv-x="1040" d="M1114 -190q0 -29 -21.5 -51.5t-52.5 -22.5h-1040q-31 0 -52.5 22.5t-21.5 51.5q0 31 21.5 53t52.5 22h1040q31 0 52.5 -22t21.5 -53z" />
<glyph unicode="`" horiz-adv-x="905" d="M616 1124q0 -27 -19 -46t-46 -19q-18 0 -39 10l-207 145q-29 18 -29 56q0 29 19.5 47t46.5 18q18 0 39 -10l207 -145q28 -19 28 -56z" />
<glyph unicode="a" horiz-adv-x="1032" d="M956 53q0 -29 -20.5 -48t-50.5 -19q-29 0 -50.5 20.5t-21.5 46.5v90q-252 -166 -475 -166q-117 0 -210 54.5t-93 167.5q0 111 82 192.5t212 124.5t244.5 63.5t221.5 24.5q-57 147 -287 148q-160 0 -299 -86q-18 -12 -43 -13q-31 0 -51.5 17.5t-20.5 50.5q0 29 29 53 q61 53 175 82t212 29q209 0 327.5 -101.5t118.5 -300.5v-430zM815 481q-63 0 -159.5 -13t-209 -42t-190.5 -84t-78 -127q0 -41 41 -70.5t119 -29.5q223 0 475 188z" />
<glyph unicode="b" horiz-adv-x="1054" d="M1022 557q0 -137 -90 -250.5t-226.5 -181.5t-278.5 -105.5t-267 -42.5h-6q-35 0 -56.5 23t-21.5 57v1198q0 29 21.5 50.5t50 21.5t50 -21.5t21.5 -50.5v-473q215 100 402 101q164 0 282.5 -82t118.5 -244zM879 557q0 96 -75 139t-188 43q-199 0 -397 -102v-516 q100 23 181 46t175.5 62t157 83t104.5 107.5t42 137.5z" />
<glyph unicode="c" horiz-adv-x="1030" d="M981 180q0 -41 -37 -61q-279 -141 -498 -142q-166 0 -288.5 84t-122.5 242q0 131 87 240.5t222 178.5t278.5 109.5t276.5 51.5q2 2 8 2q33 0 52.5 -21.5t19.5 -48.5q0 -61 -64 -67q-115 -10 -237.5 -44t-237 -87.5t-188.5 -136.5t-74 -179q0 -90 81 -137t190 -47 q182 0 425 123q25 10 37 10q31 0 50.5 -21.5t19.5 -48.5z" />
<glyph unicode="d" horiz-adv-x="1048" d="M973 59q0 -29 -21.5 -50t-50.5 -21t-50.5 21.5t-21.5 49.5v74q-233 -156 -444 -156q-152 0 -251 79t-99 227q0 113 54 209t136 159.5t192.5 113.5t210 76.5t201.5 43.5v372q0 31 21.5 52.5t50.5 21.5t50.5 -21.5t21.5 -52.5v-1198zM829 299v440q-111 -18 -213 -51 t-206.5 -86t-168 -136t-63.5 -183q0 -160 209 -160q188 0 442 176z" />
<glyph unicode="e" horiz-adv-x="1071" d="M1036 692q0 -125 -128 -216t-313 -133t-390 -40h-15h-12q8 -90 79 -139t177 -49q164 0 438 133q16 8 35 8q29 0 50.5 -19.5t21.5 -48.5q0 -39 -37 -61q-109 -61 -253 -105.5t-255 -44.5q-170 0 -284.5 93.5t-114.5 255.5q0 164 119.5 296t285.5 196.5t328 64.5 q102 0 185 -46.5t83 -144.5zM893 678q0 31 -33 50.5t-92 19.5q-186 0 -346 -88.5t-223 -237.5q270 4 482 85t212 171z" />
<glyph unicode="f" horiz-adv-x="772" d="M741 1257q0 -31 -17 -53t-50 -22h-15q-37 6 -65 6h-2q-123 0 -186.5 -89t-65.5 -239h252q29 0 50.5 -20.5t21.5 -51.5q0 -29 -21.5 -50t-50.5 -21h-252v-658q0 -29 -21.5 -50t-50.5 -21q-31 0 -52 21.5t-21 49.5v658h-93q-29 0 -50 21.5t-21 49.5q0 31 21.5 51.5 t49.5 20.5h93q4 207 106 339t293 132q31 0 47 -1t45 -7t42 -22.5t13 -43.5z" />
<glyph unicode="g" horiz-adv-x="1185" d="M1147 156q0 -162 -121 -288t-286 -184.5t-328 -58.5q-133 0 -241 61.5t-108 192.5q0 78 42 136.5t109 88t134.5 44t132.5 14.5q135 0 232 -27q53 -14 53 -67q0 -29 -20.5 -49.5t-49.5 -20.5q-2 0 -6 1t-8 1q-113 25 -203 25q-39 0 -82 -6.5t-90 -20.5t-76.5 -45 t-29.5 -74q0 -59 64.5 -88t146.5 -29q225 0 411.5 111t186.5 283q0 94 -72 148t-172 54q-51 0 -129 -12q-152 -106 -315 -106q-113 0 -199 61t-86 176t85 212t199.5 148.5t219.5 51.5q86 0 155 -35l138 141q20 20 49 21q27 0 48 -19.5t21 -50.5q0 -27 -20 -47l-135 -141 q27 -47 26 -107q0 -78 -45 -153q150 -4 259.5 -95t109.5 -247zM686 651q0 47 -42 73t-103 26q-113 0 -239 -84t-126 -189q0 -47 42 -72.5t101 -25.5q115 0 241 84t126 188z" />
<glyph unicode="h" horiz-adv-x="960" d="M885 55q0 -29 -21.5 -50t-50.5 -21q-31 0 -52.5 21.5t-21.5 49.5v389q0 164 -51 232.5t-156 68.5q-98 0 -182 -64.5t-131 -162.5v-461q0 -31 -20.5 -52t-51.5 -21q-29 0 -50 21.5t-21 51.5v1198q0 29 21.5 50.5t49.5 21.5q31 0 51.5 -21.5t20.5 -50.5v-514 q141 141 320 142q162 0 254 -113t92 -334v-381z" />
<glyph unicode="i" horiz-adv-x="294" d="M244 1241q0 -39 -29 -66.5t-67.5 -27.5t-66.5 27.5t-28 66.5t28 66.5t66 27.5q41 0 69 -27.5t28 -66.5zM221 55q0 -29 -21.5 -50t-52.5 -21q-29 0 -50 21.5t-21 49.5v750q0 29 21.5 50.5t49.5 21.5q31 0 52.5 -21.5t21.5 -50.5v-750z" />
<glyph unicode="j" horiz-adv-x="309" d="M256 1241q0 -39 -27.5 -66.5t-66.5 -27.5t-67.5 27.5t-28.5 66.5t27.5 66.5t68.5 27.5q39 0 66.5 -27.5t27.5 -66.5zM233 59q0 -188 -94 -307t-274 -119q-188 0 -189 91q0 31 21.5 51t52.5 20q4 0 10.5 -1t8.5 -1q45 -14 96 -14q225 0 225 280v748q0 29 20.5 50.5 t51.5 21.5q29 0 50 -21.5t21 -50.5v-748z" />
<glyph unicode="k" horiz-adv-x="811" d="M774 57.5q0 -28.5 -21.5 -51t-50 -22.5t-53.5 24l-430 465v-416q0 -29 -21.5 -50t-50 -21t-50 21.5t-21.5 49.5v1198q0 31 21.5 52.5t50 21.5t50 -21.5t21.5 -52.5v-671l428 282q18 12 39 13q31 0 51.5 -21.5t20.5 -50.5q0 -39 -31 -59l-354 -232l383 -412 q18 -18 18 -46.5z" />
<glyph unicode="l" horiz-adv-x="294" d="M219 57q0 -29 -21.5 -50t-50 -21t-50 21.5t-21.5 49.5v1198q0 31 21.5 52.5t50 21.5t50 -21.5t21.5 -52.5v-1198z" />
<glyph unicode="m" horiz-adv-x="1581" d="M1505 57q0 -29 -21.5 -50t-49.5 -21q-31 0 -51.5 21.5t-20.5 49.5v387q0 164 -52.5 232.5t-154.5 68.5q-186 0 -297 -217q4 -27 4 -92v-379q0 -29 -21.5 -50t-50 -21t-50 21.5t-21.5 49.5v387q0 164 -51.5 232.5t-155.5 68.5q-186 0 -293 -227v-459q0 -31 -20.5 -52 t-51.5 -21q-29 0 -50 21.5t-21 51.5v744q0 31 21.5 52.5t49.5 21.5q31 0 51.5 -21.5t20.5 -52.5v-60q133 139 297 140q215 0 299 -185q61 88 154.5 136.5t189.5 48.5q164 0 255 -112t91 -335v-379z" />
<glyph unicode="n" horiz-adv-x="960" d="M885 57q0 -29 -21.5 -50t-50.5 -21q-31 0 -52.5 21.5t-21.5 49.5v389q0 164 -51 233t-156 69q-98 0 -182 -65t-131 -163v-461q0 -31 -20.5 -52t-51.5 -21q-29 0 -50 21.5t-21 51.5v744q0 31 21.5 52.5t49.5 21.5q31 0 51.5 -21.5t20.5 -52.5v-62q141 141 320 142 q164 0 255 -112t91 -335v-379z" />
<glyph unicode="o" d="M913 557q0 -211 -171 -395.5t-394 -184.5q-145 0 -229 95.5t-84 232.5q0 211 171 394.5t394 183.5q145 0 229 -94.5t84 -231.5zM770 557q0 84 -44 137.5t-126 53.5q-160 0 -291 -143.5t-131 -299.5q0 -84 44 -137t126 -53q158 0 290 144t132 298z" />
<glyph unicode="p" horiz-adv-x="1056" d="M1022 565q0 -127 -78 -234.5t-203 -177t-257 -112.5t-265 -61v-273q0 -29 -21.5 -50.5t-50 -21.5t-50 21.5t-21.5 50.5v961q0 41 37 63q111 66 252 110t258 44q164 0 281.5 -81t117.5 -239zM879 565q0 92 -74 134t-184 42q-176 0 -402 -116v-510q182 39 323.5 97t239 150 t97.5 203z" />
<glyph unicode="q" horiz-adv-x="1089" d="M1014 -295q0 -29 -20.5 -50.5t-51.5 -21.5q-29 0 -50.5 21.5t-21.5 50.5v436q-233 -164 -473 -164q-152 0 -257 82t-105 232q0 117 63.5 217t161.5 166.5t220 114t236.5 70t215.5 26.5h6q33 2 54.5 -20.5t21.5 -57.5v-1102zM870 305v426q-334 -53 -513 -172t-179 -268 q0 -86 61.5 -127t159.5 -41q203 0 471 182z" />
<glyph unicode="r" horiz-adv-x="716" d="M686 770q0 -29 -20.5 -52.5t-51.5 -23.5q-23 0 -41 13q-49 33 -96 32q-88 0 -156.5 -68.5t-101.5 -164.5v-449q0 -29 -20.5 -50t-51.5 -21q-29 0 -50 21.5t-21 49.5v746q0 29 21.5 50t49.5 21q31 0 51.5 -21.5t20.5 -49.5v-51q43 61 113.5 96t144.5 35q66 0 137.5 -28 t71.5 -85z" />
<glyph unicode="s" horiz-adv-x="673" d="M641 238q0 -123 -88 -192t-205 -69q-90 0 -174 40t-135 106q-14 16 -14 41q0 27 21.5 48t47.5 21q31 0 51 -26q29 -41 85.5 -65.5t117.5 -24.5q74 0 116 34.5t42 77.5q0 119 -189 162q-106 25 -183 88.5t-77 165.5q0 113 83 176.5t192 63.5q41 0 100.5 -8.5t121.5 -37 t62 -71.5q0 -14 -6 -29q-18 -41 -61 -41q-14 0 -27 7q-96 43 -182 43q-68 0 -107.5 -26t-39.5 -71q0 -94 153 -127q145 -31 220 -108.5t75 -177.5z" />
<glyph unicode="t" horiz-adv-x="724" d="M690 61q0 -84 -143 -84q-354 0 -354 394v348h-91q-31 0 -51 21.5t-20 50.5q0 31 20.5 51t50.5 20h91v312q0 31 21.5 52t49.5 21q31 0 52.5 -21.5t21.5 -51.5v-312h250q29 0 50 -20.5t21 -50.5q0 -29 -21.5 -50.5t-49.5 -21.5h-250v-348q0 -139 46 -194.5t161 -55.5 q12 0 36.5 3t36.5 3q29 0 50.5 -18.5t21.5 -47.5z" />
<glyph unicode="u" horiz-adv-x="960" d="M885 59q0 -29 -21.5 -50t-50.5 -21q-31 0 -52.5 21.5t-21.5 49.5v62q-141 -141 -317 -141q-162 0 -254 112.5t-92 333.5v379q0 29 21.5 50.5t49.5 21.5q31 0 51.5 -21.5t20.5 -50.5v-387q0 -164 51.5 -233.5t155.5 -69.5q98 0 183 64.5t130 162.5v463q0 29 21.5 50.5 t52.5 21.5q29 0 50.5 -21.5t21.5 -50.5v-746z" />
<glyph unicode="v" horiz-adv-x="923" d="M889 803q0 -15 -6 -31l-348 -752q-18 -43 -72 -43q-51 0 -72 46l-350 749q-6 15 -6 31q0 29 20.5 50t50.5 21q47 0 64 -40l293 -625l289 625q20 41 65 40q31 0 51.5 -21t20.5 -50z" />
<glyph unicode="w" horiz-adv-x="1466" d="M1432 803q0 -15 -7 -31l-354 -749q-18 -45 -72 -46q-57 0 -73 54l-195 561l-192 -563q-20 -53 -76 -54q-49 0 -72 48l-350 749q-6 15 -6 31q0 29 20.5 50t50.5 21q47 0 64 -40l285 -607l209 609q18 49 67 49q51 0 70 -49l209 -609l284 607q20 41 66 40q31 0 51.5 -21 t20.5 -50z" />
<glyph unicode="x" horiz-adv-x="798" d="M758 57q0 -29 -21.5 -50t-50.5 -21q-35 0 -59 30l-230 324l-227 -324q-18 -31 -59 -30q-29 0 -50.5 21.5t-21.5 49.5q0 20 14 41l256 367l-209 297q-12 18 -12 41q0 31 20.5 51t51.5 20q39 0 57 -28l180 -256l181 254q25 31 59 30q29 0 50.5 -21.5t21.5 -49.5 q0 -25 -15 -41l-209 -297l260 -365q13 -18 13 -43z" />
<glyph unicode="y" horiz-adv-x="954" d="M920 803q0 -12 -7 -29l-358 -827q-70 -164 -159 -242t-210 -78q-66 0 -135 21q-51 14 -51 69q0 29 19.5 50.5t48.5 21.5q6 0 22 -4q61 -14 94 -14q76 0 128.5 49t99.5 157l-369 795q-8 16 -8 33q0 29 23.5 49t52.5 20q43 0 61 -40l315 -678l295 675q18 43 64 43 q29 0 51.5 -19t22.5 -52z" />
<glyph unicode="z" horiz-adv-x="843" d="M805 71.5q0 -28.5 -20.5 -50t-51.5 -21.5h-620q-29 0 -50.5 21.5t-21.5 50.5q0 25 16 45l488 600h-422q-29 0 -50.5 21.5t-21.5 52.5q0 29 21.5 50t50.5 21h573q29 0 50.5 -21.5t21.5 -49.5q0 -25 -16 -48l-488 -600h469q31 0 51.5 -21.5t20.5 -50z" />
<glyph unicode="{" horiz-adv-x="712" d="M698 -235.5q0 -28.5 -19.5 -50t-47.5 -21.5q-82 0 -136.5 4t-122 23.5t-107.5 54.5t-67.5 99.5t-27.5 156.5q0 113 43 293q10 47 10 77q0 127 -164 127q-23 0 -41 19.5t-18 44t18.5 44t40.5 19.5q164 0 164 119q0 39 -10 86q-43 180 -43 293q0 90 27.5 155.5t67.5 99.5 t107.5 53.5t122 23.5t136.5 4q29 0 48 -20.5t19 -49t-19.5 -49t-47.5 -20.5h-47q-129 0 -185 -23q-94 -39 -94 -174q0 -96 39 -260q14 -68 14 -119q0 -129 -79 -182q80 -53 79 -182q0 -51 -14 -119q-39 -164 -39 -260q0 -104 49 -146.5t150 -48.5q31 -2 96 -2h31 q29 0 48 -20.5t19 -49z" />
<glyph unicode="|" horiz-adv-x="307" d="M225 57q0 -29 -21.5 -50t-50 -21t-50 21.5t-21.5 49.5v1198q0 31 21.5 52.5t50 21.5t50 -21.5t21.5 -52.5v-1198z" />
<glyph unicode="}" horiz-adv-x="718" d="M717 593.5q0 -24.5 -18.5 -44t-41.5 -19.5q-164 0 -163 -129q0 -29 10 -75q43 -180 43 -295q0 -90 -27.5 -155.5t-67.5 -99.5t-108 -53.5t-122 -23.5t-136 -4q-29 0 -48.5 20.5t-19.5 49t20.5 50t47.5 21.5l47 -2q123 0 184 25q94 39 95 174q0 94 -39 258q-14 68 -15 121 q0 131 82 182q-82 49 -82 180q0 53 15 121q39 164 39 260q0 104 -49.5 145t-149.5 50q-31 2 -96 2h-31q-29 0 -48.5 20.5t-19.5 49t19.5 49t48.5 20.5q82 0 136 -4t122 -23.5t108 -53.5t67.5 -99.5t27.5 -155.5q0 -113 -43 -293q-10 -51 -10 -86q0 -119 163 -119 q23 0 41.5 -19.5t18.5 -44z" />
<glyph unicode="~" horiz-adv-x="1202" d="M1167 819q0 -18 -14 -43q-51 -76 -129 -130t-164 -62h-24q-102 0 -260 79.5t-214 79.5h-8q-12 0 -25.5 -4t-25.5 -12l-21 -14q-10 -6 -21 -20.5t-17 -21.5t-17.5 -24.5t-15.5 -23t-15.5 -24.5t-13.5 -21q-23 -37 -59 -37q-31 0 -53.5 20.5t-22.5 50.5q0 16 10 33 q45 94 119 165t168 77h18q90 0 247 -80t227 -80q61 0 116 43q27 23 84 92q25 27 58 27q29 0 51 -20.5t22 -49.5z" />
<glyph unicode="&#xa1;" horiz-adv-x="296" d="M246 1227q0 -39 -29 -68t-67.5 -29t-67.5 29t-29 68q0 41 29 69.5t67.5 28.5t67.5 -28.5t29 -69.5zM223 59q0 -31 -21.5 -52t-52 -21t-52 21.5t-21.5 51.5v926q0 31 21.5 52.5t52 21.5t52 -21.5t21.5 -52.5v-926z" />
<glyph unicode="&#xa2;" horiz-adv-x="1030" d="M956 446q0 -41 -36 -61q-175 -95 -332 -129v-203q0 -29 -20.5 -49t-49.5 -20q-27 0 -47 20.5t-20 48.5v189h-5q-158 0 -275.5 85t-117.5 244q0 158 110.5 279t287.5 199v208q0 29 20.5 48.5t46.5 19.5q29 0 49.5 -19.5t20.5 -48.5v-155q154 47 289 59h8q33 0 50 -21.5 t17 -49.5q0 -61 -59 -68q-111 -10 -227.5 -44t-226 -88t-179.5 -138t-70 -183q0 -92 77 -140t182 -48q172 0 405 127q16 8 35 8q29 0 48 -21.5t19 -48.5z" />
<glyph unicode="&#xa3;" horiz-adv-x="1052" d="M995 71.5q0 -28.5 -20.5 -50t-48.5 -21.5h-701q-29 0 -50 21.5t-21 50.5q0 18 14 41q61 96 88 166.5t27 166.5q0 33 -5.5 65t-10.5 50.5t-18 57t-20 55.5h-125q-29 0 -49 21.5t-20 50t20.5 50t48.5 21.5h91q-16 70 -17 127q0 201 114 296t318 95q190 0 342 -75 q41 -20 41 -66q0 -31 -20.5 -51.5t-48.5 -20.5q-14 0 -27 6q-158 66 -287 66q-150 0 -221.5 -56.5t-71.5 -193.5q0 -41 21 -127h307q29 0 50.5 -21.5t21.5 -50t-21.5 -50t-50.5 -21.5h-268q45 -135 45 -228q0 -152 -76 -303h580q29 0 49 -21.5t20 -50z" />
<glyph unicode="&#xa5;" horiz-adv-x="1128" d="M1075 1260q0 -27 -14 -43l-418 -580v-70h131q29 0 49.5 -21.5t20.5 -50t-20.5 -50t-49.5 -21.5h-131v-76h131q29 0 49.5 -20.5t20.5 -49t-20.5 -50t-49.5 -21.5h-131v-152q0 -29 -21.5 -49t-50 -20t-49 20.5t-20.5 48.5v152h-148q-29 0 -49 21.5t-20 50t20.5 49 t48.5 20.5h148v76h-148q-29 0 -49 21.5t-20 50t20.5 50t48.5 21.5h148v68l-434 579q-14 23 -15 43q0 29 21.5 50.5t50.5 21.5q37 0 55 -29l389 -520l379 520q18 29 56 29q29 0 50 -20t21 -49z" />
<glyph unicode="&#xa6;" horiz-adv-x="335" d="M242 817q0 -31 -21.5 -52.5t-52.5 -21.5t-52.5 21.5t-21.5 52.5v434q0 31 21.5 53.5t52.5 22.5t52.5 -22.5t21.5 -53.5v-434zM242 61q0 -31 -21.5 -52t-52.5 -21t-52.5 21.5t-21.5 51.5v426q0 31 21.5 52.5t52.5 21.5t52.5 -21.5t21.5 -52.5v-426z" />
<glyph unicode="&#xa7;" horiz-adv-x="665" d="M637 1116q0 -35 -31 -53q-20 -14 -39 -14q-29 0 -62.5 36.5t-76.5 73.5t-92 37q-10 0 -31 -4q-41 -8 -70.5 -37t-37.5 -68q-4 -16 -4 -26q0 -90 112 -170q156 -104 243 -240.5t87 -273.5v-2q0 -156 -105 -260q90 -96 91 -211q0 -31 -7 -58q-16 -80 -78.5 -139t-144.5 -74 q-25 -6 -49 -6q-113 0 -211 75t-98 144q0 35 30 54q20 14 39 14q29 0 64 -37t77 -73.5t93 -36.5q8 0 29 4q39 8 69.5 36.5t40.5 67.5q0 4 1 13.5t1 13.5q0 90 -112 170q-156 104 -243 240.5t-87 273.5v2q0 156 104 260q-90 96 -90 211q0 31 6 57q16 80 78 139.5t146 75.5 q33 4 49 4q113 0 211 -74.5t98 -144.5zM492 375v2q-4 205 -242 381q-70 -66 -70 -170v-2q0 -94 62.5 -195.5t177.5 -185.5q72 68 72 170z" />
<glyph unicode="&#xa8;" horiz-adv-x="905" d="M719 1237q0 -39 -26.5 -65.5t-63.5 -26.5q-39 0 -65.5 26.5t-26.5 65.5q0 37 26.5 64.5t65.5 27.5q37 0 63.5 -27.5t26.5 -64.5zM369 1237q0 -39 -27 -65.5t-65.5 -26.5t-65.5 26.5t-27 65.5q0 37 27 64.5t65.5 27.5t65.5 -27.5t27 -64.5z" />
<glyph unicode="&#xa9;" horiz-adv-x="1771" d="M1718 748q0 -137 -58 -262.5t-155.5 -215.5t-221.5 -157.5t-257 -101.5t-260 -34q-178 0 -337 63.5t-267.5 202t-108.5 322.5q0 170 90 319.5t230.5 246t307.5 150.5t327 54q178 0 335.5 -63.5t266 -200.5t108.5 -323zM1579 750q0 209 -173 328.5t-398 119.5 q-137 0 -279.5 -45t-262.5 -125t-196.5 -201.5t-76.5 -261.5q0 -209 173 -328.5t400 -119.5q135 0 278.5 45t262 125t195.5 202t77 261zM1182 496q0 -39 -37 -62q-74 -45 -178.5 -75.5t-188.5 -30.5q-123 0 -217 68.5t-94 193.5q0 172 179 294t454 160h12q29 0 48.5 -19 t19.5 -50q0 -59 -62 -68q-16 -4 -67.5 -13t-79.5 -15q-133 -33 -249 -110t-116 -179q0 -61 51.5 -92t122.5 -31q111 0 299 90q14 8 33 8q27 0 48.5 -19t21.5 -50z" />
<glyph unicode="&#xaa;" horiz-adv-x="1005" d="M934 823q0 -27 -19.5 -46t-48.5 -19q-68 0 -67 82v2q-207 -96 -408 -97q-49 0 -99 9.5t-104.5 30t-89.5 64.5t-35 103q0 162 246 270.5t549 112.5h2q31 0 52.5 -19.5t21.5 -49.5v-443zM799 977v219q-283 -29 -440.5 -100.5t-157.5 -143.5q0 -74 188 -73q177 0 410 98z " />
<glyph unicode="&#xab;" horiz-adv-x="866" d="M451 811q0 -25 -19 -47l-242 -272l240 -271q18 -18 19 -47q0 -31 -21.5 -51.5t-50.5 -20.5q-33 0 -53 25l-283 317q-18 23 -18 48q0 28 18 49l283 317q18 25 53 25q29 0 51.5 -19.5t22.5 -52.5zM836 811q0 -29 -19 -47l-239 -272l239 -271q18 -18 19 -47 q0 -31 -22.5 -51.5t-49.5 -20.5q-31 0 -53 25l-285 317q-16 23 -16 48q0 31 16 49l285 317q18 25 53 25q29 0 50.5 -19.5t21.5 -52.5z" />
<glyph unicode="&#xad;" horiz-adv-x="528" d="M477 512q0 -29 -21.5 -50.5t-49.5 -21.5h-281q-29 0 -50.5 21.5t-21.5 50.5q0 31 21.5 51.5t50.5 20.5h281q29 0 50 -20.5t21 -51.5z" />
<glyph unicode="&#xae;" horiz-adv-x="1771" d="M1718 748q0 -137 -58 -262.5t-155.5 -215.5t-221.5 -157.5t-257 -101.5t-260 -34q-178 0 -337 63.5t-267.5 202t-108.5 322.5q0 170 90 319.5t230.5 246t307.5 150.5t327 54q178 0 335.5 -63.5t266 -200.5t108.5 -323zM1579 750q0 209 -173 328.5t-398 119.5 q-137 0 -279.5 -45t-262.5 -125t-196.5 -201.5t-76.5 -261.5q0 -209 173 -328.5t400 -119.5q135 0 278.5 45t262 125t195.5 202t77 261zM1225 963q0 -29 -18.5 -50.5t-49.5 -21.5q-12 0 -20 2q-43 12 -80 12q-113 0 -179.5 -89t-66.5 -222v-297q0 -29 -20.5 -49.5t-49 -20.5 t-50 20.5t-21.5 49.5v653q0 29 21.5 49.5t50 20.5t49 -20.5t20.5 -49.5v-10q96 102 250 102q61 0 112.5 -14t51.5 -65z" />
<glyph unicode="&#xaf;" horiz-adv-x="874" d="M698 1247.5q0 -26.5 -19.5 -46t-47.5 -19.5h-389q-29 0 -47.5 19.5t-18.5 45.5q0 29 19.5 48.5t46.5 19.5h389q29 0 48 -20.5t19 -47z" />
<glyph unicode="&#xb0;" horiz-adv-x="667" d="M600 1133q0 -111 -93 -183.5t-204 -72.5q-92 0 -162.5 55t-70.5 149q0 111 93 182.5t202 71.5q94 0 164.5 -54t70.5 -148zM457 1135q0 31 -27 51t-65 20q-53 0 -102.5 -39t-49.5 -90q0 -33 25.5 -52t64.5 -19q53 0 103.5 39t50.5 90z" />
<glyph unicode="&#xb2;" horiz-adv-x="806" d="M727 473q0 -29 -20.5 -49.5t-49.5 -20.5h-497q-29 0 -49.5 20.5t-20.5 49.5q0 23 8 39q104 213 367 391q115 80 115 166q0 59 -50.5 94t-117.5 35q-86 0 -211 -70q-16 -10 -37 -10q-29 0 -49.5 20.5t-20.5 49.5q0 66 119 106.5t197 40.5q123 0 216 -71.5t93 -194.5 q0 -158 -174 -281q-180 -121 -266 -245h378q29 0 49.5 -20.5t20.5 -49.5z" />
<glyph unicode="&#xb3;" horiz-adv-x="821" d="M764 825q0 -100 -65.5 -184t-165 -133t-201 -75.5t-185.5 -29.5h-4q-31 -2 -52 17.5t-21 52.5q0 27 18 45.5t43 22.5q492 76 492 284q0 53 -51.5 81t-120.5 28q-31 0 -69 -5t-61.5 -11.5t-69.5 -17.5l-63 -15q-16 -4 -30 -4q-72 0 -72 67q0 55 72 72q16 4 55 12t74 16.5 t61 16.5q68 18 68 86q0 45 -62 45q-47 0 -124.5 -34t-92.5 -34q-27 0 -48 21.5t-21 48.5q0 41 36 62q131 76 250 75q86 0 144.5 -49t58.5 -135q0 -46 -18 -86q94 -20 159.5 -82t65.5 -158z" />
<glyph unicode="&#xb4;" horiz-adv-x="905" d="M612 1270q0 -37 -28 -56l-209 -145q-16 -10 -37 -10q-27 0 -46.5 19.5t-19.5 45.5q0 37 29 56l207 145q20 10 39 10q27 0 46 -18t19 -47z" />
<glyph unicode="&#xb5;" d="M856 397q0 -213 -87 -321.5t-241 -108.5q-170 0 -301 135v-403q0 -29 -19.5 -49.5t-47.5 -20.5q-27 0 -47.5 20.5t-20.5 49.5v1108q0 29 19.5 49.5t48 20.5t48 -20.5t19.5 -49.5v-481q43 -94 123 -157t174 -63q98 0 146.5 67t48.5 224v410q0 29 19.5 49.5t48 20.5 t49 -20.5t20.5 -49.5v-410z" />
<glyph unicode="&#x3bc;" d="M856 397q0 -213 -87 -321.5t-241 -108.5q-170 0 -301 135v-403q0 -29 -19.5 -49.5t-47.5 -20.5q-27 0 -47.5 20.5t-20.5 49.5v1108q0 29 19.5 49.5t48 20.5t48 -20.5t19.5 -49.5v-481q43 -94 123 -157t174 -63q98 0 146.5 67t48.5 224v410q0 29 19.5 49.5t48 20.5 t49 -20.5t20.5 -49.5v-410z" />
<glyph unicode="&#xb6;" horiz-adv-x="1073" d="M977 55q0 -27 -21.5 -47t-50 -20t-50 20.5t-21.5 46.5v375q-137 20 -244 53v-428q0 -29 -20.5 -48t-51.5 -19q-29 0 -50.5 20.5t-21.5 46.5v480q-168 72 -291.5 194.5t-123.5 280.5q0 156 119.5 239.5t279.5 83.5q233 0 510 -149q37 -16 37 -60v-1069zM834 571v510 q-127 63 -244 93v-545q113 -38 244 -58zM446 688v506h-14h-4q-106 0 -180 -47t-74 -137q0 -94 79.5 -178.5t192.5 -143.5z" />
<glyph unicode="&#xb7;" horiz-adv-x="268" d="M231 641q0 -39 -27.5 -67.5t-68.5 -28.5t-68.5 28.5t-27.5 67.5t27.5 67.5t68.5 28.5t68.5 -28.5t27.5 -67.5z" />
<glyph unicode="&#xb8;" horiz-adv-x="905" d="M580 -131q0 -88 -67 -141.5t-157 -69.5l-4 -1q-4 -1 -6 -1q-25 0 -42 18.5t-17 44.5q0 33 26.5 50.5t59.5 21.5t59.5 23.5t26.5 54.5q0 29 -27 29q-6 0 -14 -2t-15 -2q-27 0 -44 18t-17 45q0 66 90 66q63 0 105.5 -45.5t42.5 -108.5z" />
<glyph unicode="&#xb9;" horiz-adv-x="550" d="M408 479q0 -29 -20.5 -49t-49.5 -20t-49.5 20.5t-20.5 48.5v647q-98 -80 -133 -79q-29 0 -49 20t-20 49q0 39 28 58l205 143q16 12 39 12q29 0 49.5 -20.5t20.5 -48.5v-781z" />
<glyph unicode="&#xba;" horiz-adv-x="923" d="M872 1118q0 -113 -93 -204t-211.5 -134t-221.5 -43q-113 0 -203 54.5t-90 164.5q0 113 93.5 204t212 134t221.5 43q113 0 202.5 -54t89.5 -165zM735 1118q0 86 -155 86q-117 0 -254.5 -74.5t-137.5 -171.5q0 -88 158 -88q115 0 252 76t137 172z" />
<glyph unicode="&#xbb;" horiz-adv-x="866" d="M459 489q0 -23 -19 -45l-282 -317q-23 -25 -54 -25q-29 0 -51 20.5t-22 51.5q0 25 18 47l242 271l-242 272q-18 18 -18 47q0 33 21.5 52.5t49.5 19.5q35 0 54 -25l284 -317q19 -21 19 -52zM844 492q0 -25 -17 -48l-284 -317q-23 -25 -54 -25q-27 0 -49 20.5t-22 51.5 q0 29 18 47l240 271l-240 272q-18 18 -18 47q0 33 21.5 52.5t49.5 19.5q35 0 54 -25l284 -317q17 -18 17 -49z" />
<glyph unicode="&#xbc;" horiz-adv-x="1714" d="M1653 284.5q0 -28.5 -20.5 -49t-49.5 -20.5h-104v-158q0 -29 -20.5 -49t-49.5 -20t-49.5 20.5t-20.5 48.5v158h-499q-29 0 -50.5 20.5t-21.5 49.5q0 23 16 43l531 641q20 25 53 24q29 0 49.5 -20.5t20.5 -48.5q0 -27 -15 -43l-436 -529h352v207q0 29 20.5 49.5t49.5 20.5 t49.5 -20.5t20.5 -49.5v-207h104q29 0 49.5 -19.5t20.5 -48zM1327 1260q0 -25 -16 -46l-998 -1204q-18 -25 -53 -24q-31 0 -50.5 21.5t-19.5 48t15 42.5l997 1205q20 27 53 26q29 0 50.5 -19t21.5 -50zM408 479q0 -29 -20.5 -49t-49.5 -20t-49.5 20.5t-20.5 48.5v647 q-2 0 -20 -15l-36 -29q-17 -13 -39.5 -24t-37.5 -11q-29 0 -49 20t-20 49q0 39 28 58l203 143q18 12 41 12q29 0 49.5 -20.5t20.5 -48.5v-781z" />
<glyph unicode="&#xbd;" horiz-adv-x="1738" d="M408 479q0 -29 -20.5 -49t-49.5 -20t-49.5 20.5t-20.5 48.5v647q-98 -80 -133 -79q-29 0 -49 20t-20 49q0 39 28 58l205 143q16 12 39 12q29 0 49.5 -20.5t20.5 -48.5v-781zM1669 69.5q0 -28.5 -20.5 -49t-49.5 -20.5h-497q-29 0 -49.5 20.5t-20.5 49.5q0 16 8 36 q59 123 148.5 214.5t218.5 179.5q115 80 115 166q0 59 -49.5 93t-118.5 34q-90 0 -211 -68q-16 -10 -35 -10q-29 0 -50.5 20.5t-21.5 48.5q0 66 119 107t199 41q121 0 215 -72t94 -194q0 -156 -176 -281q-180 -121 -266 -246h378q29 0 49.5 -20.5t20.5 -49zM1327 1260 q0 -25 -16 -46l-998 -1204q-18 -25 -53 -24q-31 0 -50.5 21.5t-19.5 48t15 42.5l997 1205q20 27 55 26q27 0 48.5 -19t21.5 -50z" />
<glyph unicode="&#xbe;" horiz-adv-x="1871" d="M764 825q0 -100 -65.5 -184t-165 -133t-201 -75.5t-185.5 -29.5h-4q-31 -2 -52 17.5t-21 52.5q0 27 18 45.5t43 22.5q492 76 492 284q0 53 -51.5 81t-120.5 28q-31 0 -69 -5t-61.5 -11.5t-69.5 -17.5l-63 -15q-16 -4 -30 -4q-72 0 -72 67q0 55 72 72q16 4 55 12t74 16.5 t61 16.5q68 18 68 86q0 45 -62 45q-47 0 -124.5 -34t-92.5 -34q-27 0 -48 21.5t-21 48.5q0 41 36 62q131 76 250 75q86 0 144.5 -49t58.5 -135q0 -46 -18 -86q94 -20 159.5 -82t65.5 -158zM1812 285q0 -29 -20 -49.5t-49 -20.5h-107v-158q0 -29 -20.5 -49t-49 -20t-49 20.5 t-20.5 48.5v158h-502q-29 0 -49 20.5t-20 49.5q0 23 16 43l531 641q23 27 55 26q29 0 49 -20.5t20 -48.5q0 -25 -16 -45l-436 -527h352v205q0 29 20.5 49.5t49 20.5t49 -20.5t20.5 -49.5v-205h107q27 0 48 -21t21 -48zM1485 1260q0 -25 -17 -46l-999 -1204q-18 -25 -53 -24 q-31 0 -50.5 21.5t-19.5 48t14 42.5l1000 1205q20 27 55 26q27 0 48.5 -19t21.5 -50z" />
<glyph unicode="&#xbf;" horiz-adv-x="958" d="M770 1227q0 -39 -28.5 -68t-67.5 -29t-67.5 29t-28.5 68q0 41 28.5 69.5t67.5 28.5t67.5 -28.5t28.5 -69.5zM926 172q0 -37 -35 -57q-238 -137 -445 -138q-190 0 -300.5 101.5t-110.5 245.5q0 129 90 240.5t264 170.5q94 33 158.5 86t64.5 117v53q0 29 20.5 49.5 t49.5 20.5t50.5 -20.5t21.5 -49.5v-53q0 -96 -73 -186t-247 -150q-127 -45 -193.5 -120.5t-66.5 -157.5q0 -86 74 -144.5t205 -58.5q166 0 366 117q18 10 37 10q29 0 49.5 -22.5t20.5 -53.5z" />
<glyph unicode="&#xc0;" horiz-adv-x="1277" d="M1239 57q0 -29 -21.5 -51t-52.5 -22q-51 0 -67 45l-166 385h-584l-166 -383q-16 -45 -67 -45q-31 0 -52.5 21.5t-21.5 51.5q0 16 6 29l518 1200q20 49 73.5 49t76.5 -47l518 -1202q6 -16 6 -31zM868 561l-229 529l-227 -529h456zM772 1483q0 -29 -19.5 -48.5t-47.5 -19.5 q-20 0 -37 12l-209 146q-29 20 -29 55q0 27 19.5 46.5t48.5 19.5q23 0 37 -13l208 -145q29 -18 29 -53z" />
<glyph unicode="&#xc1;" horiz-adv-x="1277" d="M1239 57q0 -29 -21.5 -51t-52.5 -22q-51 0 -67 45l-166 385h-584l-166 -383q-16 -45 -67 -45q-31 0 -52.5 21.5t-21.5 51.5q0 16 6 29l518 1200q20 49 73.5 49t76.5 -47l518 -1202q6 -16 6 -31zM868 561l-229 529l-227 -529h456zM864 1636q0 -35 -28 -55l-209 -145 q-16 -12 -37 -13q-29 0 -48.5 19.5t-19.5 48.5q0 35 29 53l209 146q14 12 37 12q27 0 47 -19.5t20 -46.5z" />
<glyph unicode="&#xc2;" horiz-adv-x="1277" d="M1239 57q0 -29 -21.5 -51t-52.5 -22q-51 0 -67 45l-166 385h-584l-166 -383q-16 -45 -67 -45q-31 0 -52.5 21.5t-21.5 51.5q0 16 6 29l518 1200q20 49 73.5 49t76.5 -47l518 -1202q6 -16 6 -31zM868 561l-229 529l-227 -529h456zM928 1497q0 -27 -19.5 -46t-46.5 -19 q-16 0 -37 10l-184 121l-188 -121q-16 -10 -37 -10q-27 0 -46.5 19t-19.5 46q0 35 31 55l223 146q14 10 37 10t37 -10l221 -144q29 -18 29 -57z" />
<glyph unicode="&#xc3;" horiz-adv-x="1277" d="M1239 57q0 -29 -21.5 -51t-52.5 -22q-51 0 -67 45l-166 385h-584l-166 -383q-16 -45 -67 -45q-31 0 -52.5 21.5t-21.5 51.5q0 16 6 29l518 1200q20 49 73.5 49t76.5 -47l518 -1202q6 -16 6 -31zM868 561l-229 529l-227 -529h456zM1020 1581q0 -20 -14 -43 q-90 -113 -215 -113q-80 0 -170 52q-78 47 -117 47q-45 0 -91 -57.5t-71 -57.5q-27 0 -47.5 20.5t-20.5 47.5q0 18 11 32q84 147 217 148q78 0 164 -53q74 -47 125 -48q43 0 90 45.5t73 45.5q29 0 47.5 -18.5t18.5 -47.5z" />
<glyph unicode="&#xc4;" horiz-adv-x="1277" d="M1239 57q0 -29 -21.5 -51t-52.5 -22q-51 0 -67 45l-166 385h-584l-166 -383q-16 -45 -67 -45q-31 0 -52.5 21.5t-21.5 51.5q0 16 6 29l518 1200q20 49 73.5 49t76.5 -47l518 -1202q6 -16 6 -31zM868 561l-229 529l-227 -529h456zM907 1509q0 -39 -26.5 -65.5t-65.5 -26.5 t-65.5 26.5t-26.5 65.5t26.5 66t65.5 27t65.5 -27t26.5 -66zM555 1509q0 -39 -26.5 -65.5t-65.5 -26.5q-37 0 -63.5 26.5t-26.5 65.5t26.5 66t63.5 27q39 0 65.5 -27t26.5 -66z" />
<glyph unicode="&#xc5;" horiz-adv-x="1277" d="M1239 57q0 -29 -21.5 -51t-52.5 -22q-51 0 -67 45l-166 385h-584l-166 -383q-16 -45 -67 -45q-31 0 -52.5 21.5t-21.5 51.5q0 16 6 29l494 1145q-66 18 -109 65.5t-43 118.5q0 102 88 171t191 69q88 0 155.5 -52.5t67.5 -140.5q0 -72 -45 -128t-115 -87l502 -1161 q6 -16 6 -31zM758 1468q0 31 -26.5 49.5t-63.5 18.5q-51 0 -98.5 -37t-47.5 -86q0 -31 25.5 -49t62.5 -18q51 0 99.5 36.5t48.5 85.5zM868 561l-229 529l-227 -529h456z" />
<glyph unicode="&#xc6;" horiz-adv-x="1662" d="M1587 72q0 -31 -21.5 -51.5t-49.5 -20.5h-582q-31 0 -51.5 20.5t-20.5 51.5v354h-489l-207 -401q-20 -39 -64 -39q-31 0 -51 21.5t-20 49.5q0 16 6 33l483 932q150 293 414 293h573q29 0 50.5 -21.5t21.5 -50.5t-21.5 -50.5t-50.5 -21.5h-501v-604h464q29 0 50.5 -20.5 t21.5 -48.5q0 -31 -21.5 -51.5t-50.5 -20.5h-464v-285h510q29 0 50 -20t21 -49zM862 567v596q-127 -33 -215 -205l-201 -391h416z" />
<glyph unicode="&#xc7;" horiz-adv-x="1159" d="M1120 221q0 -35 -28 -57q-188 -129 -363 -168q63 -43 64 -127q0 -88 -67 -141.5t-157 -69.5q-2 0 -5 -1t-5 -1q-25 0 -43 18.5t-18 44.5q0 33 26.5 50.5t59 21.5t59.5 23.5t27 54.5q0 29 -25 29q-6 0 -14 -2t-15 -2q-27 0 -44 18t-17 45q0 8 4 20q-217 2 -363.5 154 t-146.5 373q0 174 89 323.5t234.5 251t311.5 167t338 89.5q4 2 12 2q31 0 53.5 -20.5t22.5 -50.5q0 -27 -17.5 -47.5t-45.5 -24.5q-150 -23 -294.5 -77t-271.5 -137t-205.5 -208t-78.5 -268q0 -166 107.5 -274.5t270.5 -108.5q199 0 429 160q20 14 43 14q29 0 51 -21.5 t22 -52.5z" />
<glyph unicode="&#xc8;" horiz-adv-x="892" d="M844 70q0 -29 -21.5 -49.5t-52.5 -20.5h-602q-31 0 -52.5 20.5t-21.5 49.5v1173q0 29 21.5 50.5t52.5 21.5h592q31 0 53.5 -21.5t22.5 -50.5t-22.5 -50.5t-53.5 -21.5h-518v-309h481q31 0 52.5 -20.5t21.5 -48.5q0 -31 -21.5 -51.5t-52.5 -20.5h-481v-580h528 q31 0 52.5 -20t21.5 -51zM594 1483q0 -29 -20.5 -48.5t-47.5 -19.5q-23 0 -37 12l-208 146q-29 18 -29 55q0 27 19.5 46.5t45.5 19.5q20 0 39 -13l209 -145q29 -20 29 -53z" />
<glyph unicode="&#xc9;" horiz-adv-x="892" d="M844 70q0 -29 -21.5 -49.5t-52.5 -20.5h-602q-31 0 -52.5 20.5t-21.5 49.5v1173q0 29 21.5 50.5t52.5 21.5h592q31 0 53.5 -21.5t22.5 -50.5t-22.5 -50.5t-53.5 -21.5h-518v-309h481q31 0 52.5 -20.5t21.5 -48.5q0 -31 -21.5 -51.5t-52.5 -20.5h-481v-580h528 q31 0 52.5 -20t21.5 -51zM705 1636q0 -37 -29 -55l-209 -145q-16 -12 -37 -13q-29 0 -48.5 19.5t-19.5 48.5q0 33 29 53l209 146q18 12 39 12q27 0 46.5 -19.5t19.5 -46.5z" />
<glyph unicode="&#xca;" horiz-adv-x="892" d="M844 70q0 -29 -21.5 -49.5t-52.5 -20.5h-602q-31 0 -52.5 20.5t-21.5 49.5v1173q0 29 21.5 50.5t52.5 21.5h592q31 0 53.5 -21.5t22.5 -50.5t-22.5 -50.5t-53.5 -21.5h-518v-309h481q31 0 52.5 -20.5t21.5 -48.5q0 -31 -21.5 -51.5t-52.5 -20.5h-481v-580h528 q31 0 52.5 -20t21.5 -51zM750 1497q0 -27 -19.5 -46t-46.5 -19q-20 0 -37 10l-184 121l-189 -121q-20 -10 -36 -10q-29 0 -47.5 19t-18.5 46q0 37 29 55l225 146q12 10 37 10q23 0 35 -10l221 -144q31 -20 31 -57z" />
<glyph unicode="&#xcb;" horiz-adv-x="892" d="M844 70q0 -29 -21.5 -49.5t-52.5 -20.5h-602q-31 0 -52.5 20.5t-21.5 49.5v1173q0 29 21.5 50.5t52.5 21.5h592q31 0 53.5 -21.5t22.5 -50.5t-22.5 -50.5t-53.5 -21.5h-518v-309h481q31 0 52.5 -20.5t21.5 -48.5q0 -31 -21.5 -51.5t-52.5 -20.5h-481v-580h528 q31 0 52.5 -20t21.5 -51zM748 1509q0 -39 -27 -65.5t-66 -26.5t-65.5 26.5t-26.5 65.5t26.5 66t65.5 27t66 -27t27 -66zM397 1509q0 -39 -27.5 -65.5t-64.5 -26.5q-39 0 -65.5 26.5t-26.5 65.5t26.5 66t65.5 27q37 0 64.5 -27t27.5 -66z" />
<glyph unicode="&#xcc;" horiz-adv-x="335" d="M242 59q0 -29 -21.5 -50t-52.5 -21t-52.5 21.5t-21.5 49.5v1196q0 29 21.5 50.5t52.5 21.5t52.5 -21.5t21.5 -50.5v-1196zM279 1483q0 -27 -19.5 -47.5t-46.5 -20.5q-20 0 -39 12l-209 146q-29 20 -28 55q0 27 19 46.5t48 19.5q20 0 37 -13l209 -145q29 -18 29 -53z" />
<glyph unicode="&#xcd;" horiz-adv-x="335" d="M242 59q0 -29 -21.5 -50t-52.5 -21t-52.5 21.5t-21.5 49.5v1196q0 29 21.5 50.5t52.5 21.5t52.5 -21.5t21.5 -50.5v-1196zM397 1636q0 -37 -28 -55l-207 -145q-18 -12 -39 -13q-27 0 -46.5 19.5t-19.5 48.5q0 35 29 53l207 146q18 12 39 12q27 0 46 -19.5t19 -46.5z" />
<glyph unicode="&#xce;" horiz-adv-x="335" d="M242 59q0 -29 -21.5 -50t-52.5 -21t-52.5 21.5t-21.5 49.5v1196q0 29 21.5 50.5t52.5 21.5t52.5 -21.5t21.5 -50.5v-1196zM457 1497q0 -27 -19.5 -46t-46.5 -19q-20 0 -37 10l-184 121l-188 -121q-20 -10 -37 -10q-27 0 -46.5 19t-19.5 46q0 37 31 55l223 146 q12 10 37 10q23 0 35 -10l221 -144q31 -20 31 -57z" />
<glyph unicode="&#xcf;" horiz-adv-x="335" d="M242 59q0 -29 -21.5 -50t-52.5 -21t-52.5 21.5t-21.5 49.5v1196q0 29 21.5 50.5t52.5 21.5t52.5 -21.5t21.5 -50.5v-1196zM434 1509q0 -39 -26.5 -65.5t-63.5 -26.5q-39 0 -65.5 26.5t-26.5 65.5t26.5 66t65.5 27q37 0 63.5 -27t26.5 -66zM84 1509q0 -39 -26.5 -65.5 t-65.5 -26.5t-65.5 26.5t-26.5 65.5t26.5 66t65.5 27t65.5 -27t26.5 -66z" />
<glyph unicode="&#xd0;" horiz-adv-x="1392" d="M1323 829q0 -141 -62.5 -267t-165 -219t-237.5 -167t-276.5 -120t-286.5 -70h-12q-31 0 -52.5 20.5t-21.5 50.5v543l-82 -35q-16 -4 -27 -4q-47 0 -67 43q-6 12 -6 29q0 49 45 65l137 58v401q0 45 43 66q100 47 239.5 79.5t249.5 32.5q242 0 412 -136.5t170 -369.5z M1176 827q0 172 -125 269.5t-310 97.5q-176 0 -385 -84v-295l119 49q12 6 27 6q47 0 67 -43q6 -16 6 -28q0 -49 -45 -66l-174 -74v-526q143 31 280.5 90.5t262.5 144.5t201 204.5t76 254.5z" />
<glyph unicode="&#xd1;" horiz-adv-x="1157" d="M1063 57q0 -29 -21.5 -49t-52.5 -20q-43 0 -61 30l-686 1004v-965q0 -29 -21.5 -49t-52.5 -20t-52.5 20.5t-21.5 48.5v1203q0 29 21.5 50t52.5 21q39 0 61 -33l686 -1003v960q0 29 21.5 50.5t52.5 21.5t52.5 -21.5t21.5 -50.5v-1198zM961 1581q0 -20 -15 -43 q-90 -113 -215 -113q-80 0 -170 52q-78 47 -117 47q-45 0 -91 -57.5t-70 -57.5q-29 0 -48.5 20.5t-19.5 47.5q0 18 10 32q84 147 217 148q78 0 164 -53q74 -47 125 -48q43 0 90 45.5t74 45.5t46.5 -18.5t19.5 -47.5z" />
<glyph unicode="&#xd2;" horiz-adv-x="1306" d="M950 1483q0 -29 -19.5 -48.5t-45.5 -19.5q-20 0 -39 12l-207 146q-29 18 -29 55q0 27 18.5 46.5t47.5 19.5q20 0 39 -13l207 -145q28 -18 28 -53zM1257 809q0 -137 -56 -284.5t-151.5 -268.5t-235.5 -200t-292 -79q-221 0 -347 158t-126 373q0 139 56.5 285.5 t151.5 267.5t234.5 198.5t290.5 77.5q223 0 349 -156.5t126 -371.5zM1110 809q0 160 -86 272.5t-241.5 112.5t-294 -108.5t-215 -266t-76.5 -311.5q0 -160 86 -273.5t239 -113.5q158 0 296 109.5t215 267t77 311.5z" />
<glyph unicode="&#xd3;" horiz-adv-x="1306" d="M1042 1636q0 -37 -28 -55l-209 -145q-14 -12 -37 -13q-27 0 -47.5 19.5t-20.5 48.5q0 33 29 53l209 146q18 12 39 12q27 0 46 -19.5t19 -46.5zM1257 809q0 -137 -56 -284.5t-151.5 -268.5t-235.5 -200t-292 -79q-221 0 -347 158t-126 373q0 139 56.5 285.5t151.5 267.5 t234.5 198.5t290.5 77.5q223 0 349 -156.5t126 -371.5zM1110 809q0 160 -86 272.5t-241.5 112.5t-294 -108.5t-215 -266t-76.5 -311.5q0 -160 86 -273.5t239 -113.5q158 0 296 109.5t215 267t77 311.5z" />
<glyph unicode="&#xd4;" horiz-adv-x="1306" d="M1087 1497q0 -27 -19 -46t-46 -19q-20 0 -37 10l-184 121l-189 -121q-20 -10 -37 -10q-27 0 -46 19t-19 46q0 37 29 55l225 146q12 10 37 10q23 0 35 -10l221 -144q30 -20 30 -57zM1257 809q0 -137 -56 -284.5t-151.5 -268.5t-235.5 -200t-292 -79q-221 0 -347 158 t-126 373q0 139 56.5 285.5t151.5 267.5t234.5 198.5t290.5 77.5q223 0 349 -156.5t126 -371.5zM1110 809q0 160 -86 272.5t-241.5 112.5t-294 -108.5t-215 -266t-76.5 -311.5q0 -160 86 -273.5t239 -113.5q158 0 296 109.5t215 267t77 311.5z" />
<glyph unicode="&#xd5;" horiz-adv-x="1306" d="M1180 1581q0 -23 -17 -43q-88 -113 -213 -113q-84 0 -170 52q-78 47 -116 47q-45 0 -91.5 -57.5t-70.5 -57.5q-27 0 -47.5 20.5t-20.5 47.5q0 18 10 32q84 147 218 148q80 0 161 -53q78 -47 125 -48q45 0 92 45.5t72 45.5q29 0 48.5 -19.5t19.5 -46.5zM1257 809 q0 -137 -56 -284.5t-151.5 -268.5t-235.5 -200t-292 -79q-221 0 -347 158t-126 373q0 139 56.5 285.5t151.5 267.5t234.5 198.5t290.5 77.5q223 0 349 -156.5t126 -371.5zM1110 809q0 160 -86 272.5t-241.5 112.5t-294 -108.5t-215 -266t-76.5 -311.5q0 -160 86 -273.5 t239 -113.5q158 0 296 109.5t215 267t77 311.5z" />
<glyph unicode="&#xd6;" horiz-adv-x="1306" d="M1065 1509q0 -39 -26.5 -65.5t-63.5 -26.5q-39 0 -65.5 26.5t-26.5 65.5t26.5 66t65.5 27q37 0 63.5 -27t26.5 -66zM715 1509q0 -39 -26.5 -65.5t-65.5 -26.5t-66 26.5t-27 65.5t27 66t66 27t65.5 -27t26.5 -66zM1257 809q0 -137 -56 -284.5t-151.5 -268.5t-235.5 -200 t-292 -79q-221 0 -347 158t-126 373q0 139 56.5 285.5t151.5 267.5t234.5 198.5t290.5 77.5q223 0 349 -156.5t126 -371.5zM1110 809q0 160 -86 272.5t-241.5 112.5t-294 -108.5t-215 -266t-76.5 -311.5q0 -160 86 -273.5t239 -113.5q158 0 296 109.5t215 267t77 311.5z" />
<glyph unicode="&#xd7;" horiz-adv-x="905" d="M846 207q0 -31 -21.5 -50.5t-48.5 -19.5q-29 0 -49 21l-274 274l-275 -274q-20 -20 -49 -21q-27 0 -48.5 19.5t-21.5 50.5q0 29 21 49l274 274l-235 236q-20 18 -20.5 49t20 49.5t49.5 18.5t49 -21l236 -235l237 235q18 20 47 20.5t49.5 -18t20.5 -49.5t-21 -49 l-235 -236l274 -274q21 -20 21 -49z" />
<glyph unicode="&#xd8;" horiz-adv-x="1306" d="M1317 1393q0 -25 -17 -45l-153 -187q111 -147 110 -352q0 -186 -93 -376.5t-267 -323t-375 -132.5q-164 0 -278 93l-146 -174q-23 -27 -55 -27q-31 0 -50.5 21.5t-19.5 48.5q0 23 17 45l157 190q-98 141 -98 334q0 139 56.5 285.5t151.5 267.5t234.5 198.5t290.5 77.5 q150 0 262 -80l148 179q18 25 53 24q29 0 50.5 -18t21.5 -49zM952 1147q-70 47 -170 47q-156 0 -294 -108.5t-214.5 -266t-76.5 -311.5q0 -119 49 -215zM1110 809q0 133 -61 235l-713 -862q78 -61 186 -61q158 0 296 109.5t215 267t77 311.5z" />
<glyph unicode="&#xd9;" horiz-adv-x="1146" d="M1053 518q0 -225 -123 -383t-357 -158q-236 0 -357.5 158t-121.5 383v739q0 29 21.5 50.5t52.5 21.5t52.5 -21.5t21.5 -50.5v-739q0 -168 84 -282.5t247.5 -114.5t246.5 114.5t83 282.5v739q0 29 22.5 50.5t53.5 21.5q29 0 51.5 -21.5t22.5 -50.5v-739zM653 1483 q0 -29 -19.5 -48.5t-47.5 -19.5q-20 0 -37 12l-209 146q-29 18 -29 55q0 27 19.5 46.5t46.5 19.5q25 0 39 -13l209 -145q28 -20 28 -53z" />
<glyph unicode="&#xda;" horiz-adv-x="1146" d="M1053 518q0 -225 -123 -383t-357 -158q-236 0 -357.5 158t-121.5 383v739q0 29 21.5 50.5t52.5 21.5t52.5 -21.5t21.5 -50.5v-739q0 -168 84 -282.5t247.5 -114.5t246.5 114.5t83 282.5v739q0 29 22.5 50.5t53.5 21.5q29 0 51.5 -21.5t22.5 -50.5v-739zM823 1636 q0 -37 -28 -55l-207 -145q-18 -12 -39 -13q-27 0 -46.5 19.5t-19.5 48.5q0 35 29 53l207 146q18 12 39 12q27 0 46 -19.5t19 -46.5z" />
<glyph unicode="&#xdb;" horiz-adv-x="1146" d="M1053 518q0 -225 -123 -383t-357 -158q-236 0 -357.5 158t-121.5 383v739q0 29 21.5 50.5t52.5 21.5t52.5 -21.5t21.5 -50.5v-739q0 -168 84 -282.5t247.5 -114.5t246.5 114.5t83 282.5v739q0 29 22.5 50.5t53.5 21.5q29 0 51.5 -21.5t22.5 -50.5v-739zM862 1497 q0 -27 -19.5 -46t-45.5 -19q-20 0 -37 10l-185 121l-188 -121q-20 -10 -37 -10q-27 0 -46 19t-19 46q0 37 30 55l224 146q12 10 36 10q23 0 35 -10l221 -144q31 -20 31 -57z" />
<glyph unicode="&#xdc;" horiz-adv-x="1146" d="M1053 518q0 -225 -123 -383t-357 -158q-236 0 -357.5 158t-121.5 383v739q0 29 21.5 50.5t52.5 21.5t52.5 -21.5t21.5 -50.5v-739q0 -168 84 -282.5t247.5 -114.5t246.5 114.5t83 282.5v739q0 29 22.5 50.5t53.5 21.5q29 0 51.5 -21.5t22.5 -50.5v-739zM840 1509 q0 -39 -27 -65.5t-63 -26.5q-39 0 -66 26.5t-27 65.5t27 66t66 27q37 0 63.5 -27t26.5 -66zM489 1509q0 -39 -26.5 -65.5t-65.5 -26.5t-65.5 26.5t-26.5 65.5t26.5 66t65.5 27t65.5 -27t26.5 -66z" />
<glyph unicode="&#xdd;" horiz-adv-x="1142" d="M1106 1255q0 -27 -14 -43l-439 -600v-553q0 -31 -21.5 -52t-52 -21t-52 21.5t-21.5 51.5v551l-455 600q-16 20 -16 45q0 31 22.5 52.5t53.5 21.5q39 0 57 -29l410 -540l395 540q25 31 59 31q31 0 52.5 -22.5t21.5 -53.5zM823 1616q0 -37 -28 -55l-207 -146 q-18 -12 -39 -12q-27 0 -46.5 19.5t-19.5 47.5q0 33 29 56l207 143q18 12 39 12q29 0 47 -19t18 -46z" />
<glyph unicode="&#xde;" horiz-adv-x="1064" d="M1016 840q0 -102 -55.5 -188.5t-136.5 -140.5t-192.5 -96t-202.5 -62.5t-187 -35.5v-260q0 -31 -21.5 -52t-52.5 -21t-52.5 21.5t-21.5 51.5v1200q0 29 21.5 51.5t52.5 22.5t52.5 -22.5t21.5 -51.5v-161q201 80 362.5 80t286.5 -87t125 -249zM868 840q0 92 -78.5 139 t-189.5 47q-160 0 -358 -90v-477q626 105 626 381z" />
<glyph unicode="&#xdf;" horiz-adv-x="1353" d="M1317 475q0 -145 -115 -264t-265.5 -176.5t-287.5 -57.5q-106 0 -185 60.5t-79 167.5q0 121 90 193.5t209 72.5q82 0 141 -22q47 -18 47 -66q0 -31 -20.5 -50.5t-48.5 -19.5q-12 0 -21 2q-53 16 -98 17q-66 0 -113 -35t-47 -92q0 -45 36 -68.5t89 -23.5q102 0 223 45 t213.5 132t92.5 185q0 197 -271 197q-39 0 -115.5 -15.5t-117.5 -15.5q-53 0 -98.5 23.5t-45.5 83.5q0 45 44 92t98.5 78.5t98.5 74.5t44 84q0 121 -188 121q-145 0 -226.5 -90t-81.5 -242v-811q0 -29 -20 -49t-49 -20t-49.5 20.5t-20.5 48.5v666h-78q-27 0 -47 20.5t-20 49 t19.5 49t47.5 20.5h78q0 207 124 342t323 135q145 0 236 -64.5t91 -195.5q0 -57 -25.5 -104t-51 -69.5t-85 -63.5t-79.5 -58q158 29 196 29q172 0 290 -84t118 -252z" />
<glyph unicode="&#xe0;" horiz-adv-x="1032" d="M956 53q0 -29 -20.5 -48t-50.5 -19q-29 0 -50.5 20.5t-21.5 46.5v90q-252 -166 -475 -166q-117 0 -210 54.5t-93 167.5q0 111 82 192.5t212 124.5t244.5 63.5t221.5 24.5q-57 147 -287 148q-160 0 -299 -86q-18 -12 -43 -13q-31 0 -51.5 17.5t-20.5 50.5q0 29 29 53 q61 53 175 82t212 29q209 0 327.5 -101.5t118.5 -300.5v-430zM815 481q-63 0 -159.5 -13t-209 -42t-190.5 -84t-78 -127q0 -41 41 -70.5t119 -29.5q223 0 475 188zM651 1124q0 -27 -19.5 -46t-47.5 -19q-20 0 -37 10l-209 145q-29 18 -29 56q0 27 19.5 46t48.5 19 q20 0 37 -10l209 -145q28 -19 28 -56z" />
<glyph unicode="&#xe1;" horiz-adv-x="1032" d="M956 53q0 -29 -20.5 -48t-50.5 -19q-29 0 -50.5 20.5t-21.5 46.5v90q-252 -166 -475 -166q-117 0 -210 54.5t-93 167.5q0 111 82 192.5t212 124.5t244.5 63.5t221.5 24.5q-57 147 -287 148q-160 0 -299 -86q-18 -12 -43 -13q-31 0 -51.5 17.5t-20.5 50.5q0 29 29 53 q61 53 175 82t212 29q209 0 327.5 -101.5t118.5 -300.5v-430zM815 481q-63 0 -159.5 -13t-209 -42t-190.5 -84t-78 -127q0 -41 41 -70.5t119 -29.5q223 0 475 188zM727 1270q0 -33 -29 -56l-209 -145q-20 -10 -38 -10q-27 0 -46.5 19.5t-19.5 45.5q0 37 29 56l209 145 q16 10 36 10q29 0 48.5 -19t19.5 -46z" />
<glyph unicode="&#xe2;" horiz-adv-x="1032" d="M956 53q0 -29 -20.5 -48t-50.5 -19q-29 0 -50.5 20.5t-21.5 46.5v90q-252 -166 -475 -166q-117 0 -210 54.5t-93 167.5q0 111 82 192.5t212 124.5t244.5 63.5t221.5 24.5q-57 147 -287 148q-160 0 -299 -86q-18 -12 -43 -13q-31 0 -51.5 17.5t-20.5 50.5q0 29 29 53 q61 53 175 82t212 29q209 0 327.5 -101.5t118.5 -300.5v-430zM815 481q-63 0 -159.5 -13t-209 -42t-190.5 -84t-78 -127q0 -41 41 -70.5t119 -29.5q223 0 475 188zM770 1126q0 -27 -19.5 -46t-45.5 -19q-16 0 -37 10l-185 121l-188 -121q-16 -10 -37 -10q-27 0 -46 19.5 t-19 45.5q0 37 30 58l223 143q16 10 37 10t37 -10l221 -143q29 -19 29 -58z" />
<glyph unicode="&#xe3;" horiz-adv-x="1032" d="M956 53q0 -29 -20.5 -48t-50.5 -19q-29 0 -50.5 20.5t-21.5 46.5v90q-252 -166 -475 -166q-117 0 -210 54.5t-93 167.5q0 111 82 192.5t212 124.5t244.5 63.5t221.5 24.5q-57 147 -287 148q-160 0 -299 -86q-18 -12 -43 -13q-31 0 -51.5 17.5t-20.5 50.5q0 29 29 53 q61 53 175 82t212 29q209 0 327.5 -101.5t118.5 -300.5v-430zM815 481q-63 0 -159.5 -13t-209 -42t-190.5 -84t-78 -127q0 -41 41 -70.5t119 -29.5q223 0 475 188zM858 1262q0 -23 -14 -41q-90 -115 -215 -115q-84 0 -170 53q-80 47 -117 47q-45 0 -91 -58t-71 -58 q-29 0 -48 20t-19 47q0 18 10 35q84 145 217 145q74 0 164 -51q74 -47 125 -47q43 0 90 45t73.5 45t46 -19t19.5 -48z" />
<glyph unicode="&#xe4;" horiz-adv-x="1032" d="M956 53q0 -29 -20.5 -48t-50.5 -19q-29 0 -50.5 20.5t-21.5 46.5v90q-252 -166 -475 -166q-117 0 -210 54.5t-93 167.5q0 111 82 192.5t212 124.5t244.5 63.5t221.5 24.5q-57 147 -287 148q-160 0 -299 -86q-18 -12 -43 -13q-31 0 -51.5 17.5t-20.5 50.5q0 29 29 53 q61 53 175 82t212 29q209 0 327.5 -101.5t118.5 -300.5v-430zM815 481q-63 0 -159.5 -13t-209 -42t-190.5 -84t-78 -127q0 -41 41 -70.5t119 -29.5q223 0 475 188zM774 1237q0 -39 -26.5 -65.5t-65.5 -26.5t-65.5 26.5t-26.5 65.5q0 37 26.5 64.5t65.5 27.5t65.5 -27.5 t26.5 -64.5zM422 1237q0 -39 -26.5 -65.5t-65.5 -26.5q-37 0 -63.5 26.5t-26.5 65.5q0 37 26.5 64.5t63.5 27.5q39 0 65.5 -27.5t26.5 -64.5z" />
<glyph unicode="&#xe5;" horiz-adv-x="1032" d="M956 53q0 -29 -20.5 -48t-50.5 -19q-29 0 -50.5 20.5t-21.5 46.5v90q-252 -166 -475 -166q-117 0 -210 54.5t-93 167.5q0 111 82 192.5t212 124.5t244.5 63.5t221.5 24.5q-57 147 -287 148q-160 0 -299 -86q-18 -12 -43 -13q-31 0 -51.5 17.5t-20.5 50.5q0 29 29 53 q61 53 175 82t212 29q209 0 327.5 -101.5t118.5 -300.5v-430zM815 481q-63 0 -159.5 -13t-209 -42t-190.5 -84t-78 -127q0 -41 41 -70.5t119 -29.5q223 0 475 188zM719 1227q0 -104 -88 -172t-193 -68q-88 0 -154.5 51.5t-66.5 141.5q0 104 88 171.5t193 67.5 q86 0 153.5 -52t67.5 -140zM586 1231q0 29 -27 48t-61 19q-53 0 -100.5 -36.5t-47.5 -85.5q0 -31 25.5 -49.5t62.5 -18.5q53 0 100.5 37t47.5 86z" />
<glyph unicode="&#xe6;" horiz-adv-x="1767" d="M1714 690q0 -94 -77.5 -161.5t-196.5 -100.5t-222.5 -47t-189.5 -14q-80 0 -160 6q-2 -16 -2 -45q0 -102 71 -157.5t179 -55.5q168 0 426 133q20 8 33 8q29 0 50.5 -20.5t21.5 -49.5q0 -35 -35 -57q-98 -63 -240.5 -107.5t-257.5 -44.5q-211 0 -319 144 q-215 -143 -451 -144q-113 0 -202 57.5t-89 170.5q0 90 55.5 157.5t142.5 101.5t170 50t159 16q104 0 190 -14q41 80 90 131q-61 98 -244 98q-164 0 -426 -133q-20 -8 -32 -8q-29 0 -49.5 20.5t-20.5 49.5q0 39 35 59q102 63 239.5 106.5t253.5 43.5q240 0 349 -144 q96 68 227 107t252 39q100 0 185 -47.5t85 -147.5zM1575 690.5q0 57.5 -131 57.5q-147 0 -295 -66t-223 -176q66 -4 100 -4q57 0 134 7t178.5 24.5t169 58.5t67.5 98.5zM735 248q-10 45 -10 82q0 16 4 53q-82 10 -147 10q-51 0 -109.5 -8t-125 -26.5t-109.5 -58.5t-43 -95 q0 -45 44 -67.5t105 -22.5q207 0 391 133z" />
<glyph unicode="&#xe7;" horiz-adv-x="1030" d="M981 180q0 -41 -37 -61q-176 -90 -346 -125q61 -45 61 -125q0 -88 -67.5 -141.5t-155.5 -69.5q-2 0 -5 -1t-5 -1q-25 0 -43 18.5t-18 44.5q0 33 26.5 50.5t59 21.5t59.5 23.5t27 54.5q0 29 -25 29q-4 0 -14.5 -2t-14.5 -2q-27 0 -44 18t-17 45q0 6 4 23q-160 4 -275.5 88 t-115.5 235q0 131 87 240.5t222 178.5t278.5 109.5t276.5 51.5q2 2 8 2q33 0 52.5 -21.5t19.5 -48.5q0 -61 -64 -67q-115 -10 -237.5 -44t-237 -87.5t-188.5 -136.5t-74 -179q0 -90 81 -137t190 -47q182 0 425 123q25 10 37 10q31 0 50.5 -21.5t19.5 -48.5z" />
<glyph unicode="&#xe8;" horiz-adv-x="1071" d="M750 1124q0 -27 -18.5 -46t-47.5 -19q-20 0 -37 10l-209 145q-29 18 -28 56q0 29 18 47t47 18q18 0 39 -10l207 -145q29 -19 29 -56zM1036 692q0 -125 -128 -216t-313 -133t-390 -40h-15h-12q8 -90 79 -139t177 -49q172 0 438 133q16 8 35 8q29 0 50.5 -19.5t21.5 -48.5 q0 -39 -37 -61q-109 -61 -253 -105.5t-255 -44.5q-170 0 -284.5 93.5t-114.5 255.5q0 164 119.5 296t285.5 196.5t328 64.5q102 0 185 -46.5t83 -144.5zM893 678q0 31 -33 50.5t-92 19.5q-186 0 -346 -88.5t-223 -237.5q270 4 482 85t212 171z" />
<glyph unicode="&#xe9;" horiz-adv-x="1071" d="M825 1270q0 -37 -28 -56l-209 -145q-16 -10 -37 -10q-29 0 -48.5 19.5t-19.5 45.5q0 35 29 56l209 145q20 10 39 10q27 0 46 -19t19 -46zM1036 692q0 -125 -128 -216t-313 -133t-390 -40h-15h-12q8 -90 79 -139t177 -49q172 0 438 133q16 8 35 8q29 0 50.5 -19.5 t21.5 -48.5q0 -39 -37 -61q-109 -61 -253 -105.5t-255 -44.5q-170 0 -284.5 93.5t-114.5 255.5q0 164 119.5 296t285.5 196.5t328 64.5q102 0 185 -46.5t83 -144.5zM893 678q0 31 -33 50.5t-92 19.5q-186 0 -346 -88.5t-223 -237.5q270 4 482 85t212 171z" />
<glyph unicode="&#xea;" horiz-adv-x="1071" d="M950 1126q0 -27 -20.5 -46t-46.5 -19q-18 0 -35 10l-186 121l-189 -121q-16 -10 -35 -10q-29 0 -48 19.5t-19 45.5q0 37 30 58l226 143q12 10 35 10q25 0 36 -10l222 -143q30 -21 30 -58zM1036 692q0 -125 -128 -216t-313 -133t-390 -40h-15h-12q8 -90 79 -139t177 -49 q172 0 438 133q16 8 35 8q29 0 50.5 -19.5t21.5 -48.5q0 -39 -37 -61q-109 -61 -253 -105.5t-255 -44.5q-170 0 -284.5 93.5t-114.5 255.5q0 164 119.5 296t285.5 196.5t328 64.5q102 0 185 -46.5t83 -144.5zM893 678q0 31 -33 50.5t-92 19.5q-186 0 -346 -88.5t-223 -237.5 q270 4 482 85t212 171z" />
<glyph unicode="&#xeb;" horiz-adv-x="1071" d="M952 1237q0 -39 -26.5 -65.5t-65.5 -26.5t-65.5 26.5t-26.5 65.5q0 37 26.5 64.5t65.5 27.5t65.5 -27.5t26.5 -64.5zM602 1237q0 -39 -27.5 -65.5t-64.5 -26.5q-39 0 -65.5 26.5t-26.5 65.5q0 37 26.5 64.5t65.5 27.5q37 0 64.5 -27.5t27.5 -64.5zM1036 692 q0 -125 -128 -216t-313 -133t-390 -40h-15h-12q8 -90 79 -139t177 -49q172 0 438 133q16 8 35 8q29 0 50.5 -19.5t21.5 -48.5q0 -39 -37 -61q-109 -61 -253 -105.5t-255 -44.5q-170 0 -284.5 93.5t-114.5 255.5q0 164 119.5 296t285.5 196.5t328 64.5q102 0 185 -46.5 t83 -144.5zM893 678q0 31 -33 50.5t-92 19.5q-186 0 -346 -88.5t-223 -237.5q270 4 482 85t212 171z" />
<glyph unicode="&#xec;" horiz-adv-x="294" d="M281 1124q0 -27 -19.5 -46t-46.5 -19q-18 0 -39 10l-207 145q-29 18 -28 56q0 29 19.5 47t45.5 18q18 0 39 -10l207 -145q29 -19 29 -56zM219 55q0 -29 -21.5 -50t-50 -21t-50 21.5t-21.5 49.5v750q0 29 21.5 50.5t50 21.5t50 -21.5t21.5 -50.5v-750z" />
<glyph unicode="&#xed;" horiz-adv-x="294" d="M354 1270q0 -35 -26 -56l-209 -145q-20 -10 -39 -10q-27 0 -46.5 19.5t-19.5 45.5q0 37 29 56l209 145q16 10 37 10q27 0 46 -18t19 -47zM219 55q0 -29 -21.5 -50t-50 -21t-50 21.5t-21.5 49.5v750q0 29 21.5 50.5t50 21.5t50 -21.5t21.5 -50.5v-750z" />
<glyph unicode="&#xee;" horiz-adv-x="294" d="M436 1126q0 -27 -19.5 -46t-45.5 -19q-20 0 -37 10l-184 121l-189 -121q-16 -10 -37 -10q-27 0 -46 19.5t-19 45.5q0 39 30 58l224 143q14 10 36.5 10t34.5 -10l222 -143q30 -19 30 -58zM219 55q0 -29 -21.5 -50t-50 -21t-50 21.5t-21.5 49.5v750q0 29 21.5 50.5t50 21.5 t50 -21.5t21.5 -50.5v-750z" />
<glyph unicode="&#xef;" horiz-adv-x="294" d="M395 1237q0 -39 -26.5 -65.5t-65.5 -26.5t-65.5 26.5t-26.5 65.5q0 37 26.5 64.5t65.5 27.5t65.5 -27.5t26.5 -64.5zM84 1237q0 -39 -26.5 -65.5t-65.5 -26.5t-65.5 26.5t-26.5 65.5q0 37 26.5 64.5t65.5 27.5t65.5 -27.5t26.5 -64.5zM219 55q0 -29 -21.5 -50t-50 -21 t-50 21.5t-21.5 49.5v750q0 29 21.5 50.5t50 21.5t50 -21.5t21.5 -50.5v-750z" />
<glyph unicode="&#xf0;" horiz-adv-x="1058" d="M1010 655q0 -178 -71 -329.5t-214 -248.5t-334 -97q-154 0 -258 86t-104 233q0 133 78.5 243.5t203.5 181.5t254 114t256 61q-59 156 -219 225l-133 -149q-23 -25 -51.5 -25t-48.5 21q-23 20 -23 51t19 51l81 92q-83 12 -172 13q-31 0 -52 20.5t-21 48.5q0 31 21.5 51.5 t51.5 20.5q156 0 279 -33l115 131q23 23 53 23q29 0 49 -21q23 -23 23 -51t-19 -49l-76 -86q312 -156 312 -578zM862 655q0 63 -8 115q-109 -16 -219.5 -52t-217 -92.5t-174 -142.5t-67.5 -186q0 -84 60.5 -129t154.5 -45q219 0 345 154.5t126 377.5z" />
<glyph unicode="&#xf1;" horiz-adv-x="960" d="M885 57q0 -29 -21.5 -50t-50.5 -21q-31 0 -52.5 21.5t-21.5 49.5v389q0 164 -51 233t-156 69q-98 0 -182 -65t-131 -163v-461q0 -31 -20.5 -52t-51.5 -21q-29 0 -50 21.5t-21 51.5v744q0 31 21.5 52.5t49.5 21.5q31 0 51.5 -21.5t20.5 -52.5v-62q141 141 320 142 q164 0 255 -112t91 -335v-379zM840 1262q0 -25 -17 -41q-90 -115 -215 -115q-84 0 -170 53q-80 47 -114 47q-37 0 -66 -29.5t-52.5 -58t-45.5 -28.5q-27 0 -46.5 19t-19.5 48q0 18 10 35q84 145 215 145q74 0 164 -51q78 -47 125 -47q43 0 90 45t74 45t47.5 -19t20.5 -48z " />
<glyph unicode="&#xf2;" d="M913 557q0 -211 -171 -395.5t-394 -184.5q-145 0 -229 95.5t-84 232.5q0 211 171 394.5t394 183.5q145 0 229 -94.5t84 -231.5zM770 557q0 84 -44 137.5t-126 53.5q-160 0 -291 -143.5t-131 -299.5q0 -84 44 -137t126 -53q158 0 290 144t132 298zM690 1124 q0 -27 -19.5 -46t-45.5 -19q-18 0 -39 10l-207 145q-29 18 -29 56q0 29 19.5 47t46.5 18q18 0 39 -10l207 -145q28 -19 28 -56z" />
<glyph unicode="&#xf3;" d="M913 557q0 -211 -171 -395.5t-394 -184.5q-145 0 -229 95.5t-84 232.5q0 211 171 394.5t394 183.5q145 0 229 -94.5t84 -231.5zM770 557q0 84 -44 137.5t-126 53.5q-160 0 -291 -143.5t-131 -299.5q0 -84 44 -137t126 -53q158 0 290 144t132 298zM786 1270q0 -33 -28 -56 l-209 -145q-16 -10 -39 -10q-27 0 -46.5 19.5t-19.5 45.5q0 37 29 56l209 145q16 10 37 10q29 0 48 -19t19 -46z" />
<glyph unicode="&#xf4;" d="M913 557q0 -211 -171 -395.5t-394 -184.5q-145 0 -229 95.5t-84 232.5q0 211 171 394.5t394 183.5q145 0 229 -94.5t84 -231.5zM770 557q0 84 -44 137.5t-126 53.5q-160 0 -291 -143.5t-131 -299.5q0 -84 44 -137t126 -53q158 0 290 144t132 298zM891 1126 q0 -27 -20.5 -46t-47.5 -19q-18 0 -35 10l-186 121l-188 -121q-16 -10 -35 -10q-29 0 -48.5 19.5t-19.5 45.5q0 37 31 58l225 143q12 10 35 10q25 0 37 -10l221 -143q31 -21 31 -58z" />
<glyph unicode="&#xf5;" d="M913 557q0 -211 -171 -395.5t-394 -184.5q-145 0 -229 95.5t-84 232.5q0 211 171 394.5t394 183.5q145 0 229 -94.5t84 -231.5zM770 557q0 84 -44 137.5t-126 53.5q-160 0 -291 -143.5t-131 -299.5q0 -84 44 -137t126 -53q158 0 290 144t132 298zM918 1262q0 -23 -15 -41 q-90 -115 -215 -115q-84 0 -170 53q-80 47 -115 47q-47 0 -93 -58t-70 -58q-27 0 -46.5 19t-19.5 48q0 14 8 35q84 145 217 145q74 0 164 -51q78 -47 125 -47q43 0 90 45t74 45t46.5 -19t19.5 -48z" />
<glyph unicode="&#xf6;" d="M913 557q0 -211 -171 -395.5t-394 -184.5q-145 0 -229 95.5t-84 232.5q0 211 171 394.5t394 183.5q145 0 229 -94.5t84 -231.5zM770 557q0 84 -44 137.5t-126 53.5q-160 0 -291 -143.5t-131 -299.5q0 -84 44 -137t126 -53q158 0 290 144t132 298zM852 1237 q0 -39 -26.5 -65.5t-63.5 -26.5q-39 0 -65.5 26.5t-26.5 65.5q0 37 26.5 64.5t65.5 27.5q37 0 63.5 -27.5t26.5 -64.5zM502 1237q0 -39 -26.5 -65.5t-65.5 -26.5t-66 26.5t-27 65.5q0 37 27 64.5t66 27.5t65.5 -27.5t26.5 -64.5z" />
<glyph unicode="&#xf7;" horiz-adv-x="860" d="M522 817q0 -39 -26.5 -65.5t-65.5 -26.5t-65.5 26.5t-26.5 65.5q0 37 26.5 63.5t65.5 26.5t65.5 -26.5t26.5 -63.5zM825 561q0 -29 -21.5 -51.5t-51.5 -22.5h-643q-31 0 -52.5 22.5t-21.5 51.5q0 31 21.5 53.5t52.5 22.5h643q31 0 52 -22.5t21 -53.5zM522 297 q0 -39 -26.5 -65.5t-65.5 -26.5t-65.5 26.5t-26.5 65.5q0 37 26.5 63.5t65.5 26.5t65.5 -26.5t26.5 -63.5z" />
<glyph unicode="&#xf8;" d="M954 928q0 -25 -14 -39l-98 -115q72 -88 71 -217q0 -211 -171 -395.5t-394 -184.5q-88 0 -164 41l-123 -141q-20 -20 -44.5 -20t-41.5 14q-20 18 -20 47q0 25 14 41l125 143q-59 88 -59 203q0 211 171 394.5t394 183.5q84 0 145 -31l103 117q18 20 47 20q23 0 39 -14 q20 -18 20 -47zM770 557q0 61 -25 109l-466 -539q31 -12 69 -12q158 0 290 144t132 298zM649 741q-22 6 -49 7q-160 0 -291 -143.5t-131 -299.5q0 -53 15 -90z" />
<glyph unicode="&#xf9;" horiz-adv-x="960" d="M885 59q0 -29 -21.5 -50t-50.5 -21q-31 0 -52.5 21.5t-21.5 49.5v62q-141 -141 -317 -141q-162 0 -254 112.5t-92 333.5v379q0 29 21.5 50.5t49.5 21.5q31 0 51.5 -21.5t20.5 -50.5v-387q0 -164 51.5 -233.5t155.5 -69.5q98 0 183 64.5t130 162.5v463q0 29 21.5 50.5 t52.5 21.5q29 0 50.5 -21.5t21.5 -50.5v-746zM551 1124q0 -27 -19.5 -46t-46.5 -19q-18 0 -39 10l-206 145q-29 18 -29 56q0 29 19.5 47t45.5 18q18 0 39 -10l207 -145q29 -19 29 -56z" />
<glyph unicode="&#xfa;" horiz-adv-x="960" d="M885 59q0 -29 -21.5 -50t-50.5 -21q-31 0 -52.5 21.5t-21.5 49.5v62q-141 -141 -317 -141q-162 0 -254 112.5t-92 333.5v379q0 29 21.5 50.5t49.5 21.5q31 0 51.5 -21.5t20.5 -50.5v-387q0 -164 51.5 -233.5t155.5 -69.5q98 0 183 64.5t130 162.5v463q0 29 21.5 50.5 t52.5 21.5q29 0 50.5 -21.5t21.5 -50.5v-746zM727 1270q0 -33 -29 -56l-209 -145q-20 -10 -38 -10q-27 0 -46.5 19.5t-19.5 45.5q0 37 29 56l209 145q16 10 36 10q29 0 48.5 -19t19.5 -46z" />
<glyph unicode="&#xfb;" horiz-adv-x="960" d="M770 1124q0 -27 -19.5 -46t-45.5 -19q-16 0 -37 10l-185 121l-188 -121q-16 -10 -37 -10q-27 0 -46 19.5t-19 45.5q0 37 30 58l223 143q16 10 37 10t37 -10l221 -143q29 -19 29 -58zM885 57q0 -29 -21.5 -50t-50.5 -21q-31 0 -52.5 21.5t-21.5 49.5v62 q-135 -141 -317 -142q-166 0 -256 112t-90 335v379q0 29 21.5 50t49.5 21q31 0 51.5 -21.5t20.5 -49.5v-387q0 -164 51.5 -233.5t155.5 -69.5q98 0 183 64.5t130 162.5v463q0 29 21.5 50t52.5 21q29 0 50.5 -21.5t21.5 -49.5v-746z" />
<glyph unicode="&#xfc;" horiz-adv-x="960" d="M885 59q0 -29 -21.5 -50t-50.5 -21q-31 0 -52.5 21.5t-21.5 49.5v62q-141 -141 -317 -141q-162 0 -254 112.5t-92 333.5v379q0 29 21.5 50.5t49.5 21.5q31 0 51.5 -21.5t20.5 -50.5v-387q0 -164 51.5 -233.5t155.5 -69.5q98 0 183 64.5t130 162.5v463q0 29 21.5 50.5 t52.5 21.5q29 0 50.5 -21.5t21.5 -50.5v-746zM774 1237q0 -39 -26.5 -65.5t-65.5 -26.5t-65.5 26.5t-26.5 65.5q0 37 26.5 64.5t65.5 27.5t65.5 -27.5t26.5 -64.5zM422 1237q0 -39 -26.5 -65.5t-65.5 -26.5q-37 0 -63.5 26.5t-26.5 65.5q0 37 26.5 64.5t63.5 27.5 q39 0 65.5 -27.5t26.5 -64.5z" />
<glyph unicode="&#xfd;" horiz-adv-x="954" d="M920 803q0 -12 -7 -29l-358 -827q-70 -164 -159 -242t-210 -78q-66 0 -135 21q-51 14 -51 69q0 29 19.5 50.5t48.5 21.5q6 0 22 -4q61 -14 94 -14q76 0 128.5 49t99.5 157l-369 795q-8 16 -8 33q0 29 23.5 49t52.5 20q43 0 61 -40l315 -678l295 675q18 43 64 43 q29 0 51.5 -19t22.5 -52zM745 1270q0 -37 -28 -56l-207 -145q-20 -10 -39 -10q-29 0 -47 19.5t-18 45.5q0 37 28 56l207 145q20 10 39 10q29 0 47 -18t18 -47z" />
<glyph unicode="&#xfe;" horiz-adv-x="1058" d="M1016 549q0 -109 -56.5 -201t-140.5 -151.5t-198.5 -106.5t-211 -71.5t-196.5 -41.5v-272q0 -29 -21.5 -50.5t-50 -21.5t-50 21.5t-21.5 50.5v1550q0 29 21.5 50.5t50 21.5t50 -21.5t21.5 -50.5v-473q219 100 403 101q162 0 281 -86t119 -248zM872 549q0 94 -75.5 142 t-182.5 48q-176 0 -401 -116v-506q84 16 164 36.5t173 57.5t161.5 82t114.5 112.5t46 143.5z" />
<glyph unicode="&#xff;" horiz-adv-x="954" d="M920 803q0 -12 -7 -29l-358 -827q-70 -164 -159 -242t-210 -78q-66 0 -135 21q-51 14 -51 69q0 29 19.5 50.5t48.5 21.5q6 0 22 -4q61 -14 94 -14q76 0 128.5 49t99.5 157l-369 795q-8 16 -8 33q0 29 23.5 49t52.5 20q43 0 61 -40l315 -678l295 675q18 43 64 43 q29 0 51.5 -19t22.5 -52zM774 1237q0 -39 -26.5 -65.5t-65.5 -26.5t-65.5 26.5t-26.5 65.5q0 37 26.5 64.5t65.5 27.5t65.5 -27.5t26.5 -64.5zM422 1237q0 -39 -26.5 -65.5t-65.5 -26.5q-37 0 -63.5 26.5t-26.5 65.5q0 37 26.5 64.5t63.5 27.5q39 0 65.5 -27.5t26.5 -64.5z " />
<glyph unicode="&#x152;" horiz-adv-x="1767" d="M1710 71.5q0 -28.5 -21.5 -50t-50.5 -21.5h-630q-31 0 -51.5 21.5t-20.5 50.5v88q-201 -182 -422 -183q-215 0 -338 157t-123 372q0 186 91.5 375.5t259 320.5t362.5 131q106 0 190 -41q20 25 52 25h622q29 0 50.5 -21.5t21.5 -50t-21.5 -50t-50.5 -21.5h-526 q109 -131 119 -312h370q29 0 50.5 -21.5t21.5 -50t-21.5 -50t-50.5 -21.5h-370q-29 -213 -146 -391l2 -185h559q29 0 50.5 -21.5t21.5 -50zM1083 791q0 166 -80.5 283.5t-236.5 117.5q-152 0 -286 -108.5t-208.5 -266.5t-74.5 -311q0 -162 84 -274.5t233 -112.5 q221 0 395 220.5t174 451.5z" />
<glyph unicode="&#x153;" horiz-adv-x="1603" d="M1548 696q0 -74 -53 -136t-131 -99t-177.5 -64.5t-181 -39t-151.5 -15.5q-35 -80 -96 -154q68 -74 203 -73q158 0 423 133q16 8 33 8q29 0 49.5 -19.5t20.5 -48.5q0 -39 -35 -59q-100 -66 -238.5 -109t-252.5 -43q-188 0 -302 115q-143 -115 -301 -115q-141 0 -223 93.5 t-82 230.5q0 211 167 396.5t384 185.5q176 0 252 -117q201 117 430 117q59 0 114.5 -15.5t101.5 -59.5t46 -112zM1409 696q0 49 -121 49q-94 0 -200.5 -30.5t-184.5 -79.5q4 -20 4 -62q0 -51 -8 -92q72 6 144.5 18.5t162.5 36t146.5 65.5t56.5 95zM768 573q0 80 -41 126 t-123 46q-156 0 -283.5 -144t-127.5 -300q0 -84 43 -135t122 -51q152 0 281 151t129 307z" />
<glyph unicode="&#x178;" horiz-adv-x="1142" d="M1106 1255q0 -27 -14 -43l-439 -600v-553q0 -31 -21.5 -52t-52 -21t-52 21.5t-21.5 51.5v551l-455 600q-16 20 -16 45q0 31 22.5 52.5t53.5 21.5q39 0 57 -29l410 -540l395 540q25 31 59 31q31 0 52.5 -22.5t21.5 -53.5zM840 1509q0 -39 -28 -65.5t-64 -26.5 q-39 0 -66 26.5t-27 65.5t27 66t66 27q37 0 64.5 -27t27.5 -66zM487 1509q0 -39 -26.5 -65.5t-65.5 -26.5t-65.5 26.5t-26.5 65.5t26.5 66t65.5 27t65.5 -27t26.5 -66z" />
<glyph unicode="&#x2c6;" horiz-adv-x="905" d="M737 1126q0 -27 -20.5 -46t-46.5 -19q-18 0 -35 10l-186 121l-189 -121q-16 -10 -35 -10q-29 0 -48 19.5t-19 45.5q0 37 30 58l226 143q12 10 35 10q25 0 36 -10l222 -143q30 -21 30 -58z" />
<glyph unicode="&#x2dc;" horiz-adv-x="905" d="M825 1262q0 -25 -16 -41q-86 -115 -213 -115q-86 0 -172 53q-80 47 -115 47q-37 0 -65.5 -29.5t-52 -58t-46.5 -28.5q-27 0 -46 19t-19 48q0 18 10 35q84 145 217 145q76 0 162 -51q78 -47 125 -47q45 0 92 45t72 45q29 0 48 -19t19 -48z" />
<glyph unicode="&#x2000;" horiz-adv-x="854" />
<glyph unicode="&#x2001;" horiz-adv-x="1708" />
<glyph unicode="&#x2002;" horiz-adv-x="854" />
<glyph unicode="&#x2003;" horiz-adv-x="1708" />
<glyph unicode="&#x2004;" horiz-adv-x="569" />
<glyph unicode="&#x2005;" horiz-adv-x="427" />
<glyph unicode="&#x2006;" horiz-adv-x="284" />
<glyph unicode="&#x2007;" horiz-adv-x="284" />
<glyph unicode="&#x2008;" horiz-adv-x="213" />
<glyph unicode="&#x2009;" horiz-adv-x="341" />
<glyph unicode="&#x200a;" horiz-adv-x="94" />
<glyph unicode="&#x2010;" horiz-adv-x="528" d="M477 512q0 -29 -21.5 -50.5t-49.5 -21.5h-281q-29 0 -50.5 21.5t-21.5 50.5q0 31 21.5 51.5t50.5 20.5h281q29 0 50 -20.5t21 -51.5z" />
<glyph unicode="&#x2011;" horiz-adv-x="528" d="M477 512q0 -29 -21.5 -50.5t-49.5 -21.5h-281q-29 0 -50.5 21.5t-21.5 50.5q0 31 21.5 51.5t50.5 20.5h281q29 0 50 -20.5t21 -51.5z" />
<glyph unicode="&#x2013;" horiz-adv-x="901" d="M819 512q0 -29 -21.5 -50.5t-49.5 -21.5h-594q-29 0 -50.5 21.5t-21.5 50.5q0 31 21.5 51.5t50.5 20.5h594q29 0 50 -20.5t21 -51.5z" />
<glyph unicode="&#x2014;" horiz-adv-x="1185" d="M1104 512q0 -29 -21.5 -50.5t-50.5 -21.5h-878q-29 0 -50.5 21.5t-21.5 50.5q0 31 21.5 51.5t50.5 20.5h878q29 0 50.5 -20.5t21.5 -51.5z" />
<glyph unicode="&#x2018;" horiz-adv-x="299" d="M281 1284q0 -31 -25 -55q-61 -57 -74 -133q35 -29 35 -74q0 -39 -29.5 -67.5t-66.5 -28.5q-49 0 -73.5 31.5t-24.5 78.5q0 68 43 164t92 139q23 18 49 19q29 0 51.5 -20.5t22.5 -53.5z" />
<glyph unicode="&#x2019;" horiz-adv-x="301" d="M272 1227q0 -68 -43 -165t-92 -140q-18 -16 -49 -17q-29 0 -51.5 20.5t-22.5 53.5q0 31 25 55q63 53 72 133q-33 27 -33 74q0 39 28.5 66.5t65.5 27.5q51 0 75.5 -30.5t24.5 -77.5z" />
<glyph unicode="&#x201a;" horiz-adv-x="280" d="M258 74q0 -70 -43 -174.5t-92 -147.5q-20 -18 -49 -18t-51.5 20.5t-22.5 52.5q0 31 25 56q25 23 46 67.5t25 83.5q-33 27 -33 74q0 39 30 66.5t67 27.5q49 0 73.5 -30.5t24.5 -77.5z" />
<glyph unicode="&#x201c;" horiz-adv-x="573" d="M281 1284q0 -31 -25 -55q-61 -57 -74 -133q35 -29 35 -74q0 -39 -29.5 -67.5t-66.5 -28.5q-49 0 -73.5 31.5t-24.5 78.5q0 68 43 164t92 139q23 18 49 19q29 0 51.5 -20.5t22.5 -53.5zM553 1284q0 -31 -25 -55q-61 -57 -73 -133q35 -29 34 -74q0 -39 -29.5 -67.5 t-66.5 -28.5q-49 0 -73.5 31.5t-24.5 78.5q0 68 43 164t92 139q20 18 49 18.5t51.5 -20t22.5 -53.5z" />
<glyph unicode="&#x201d;" horiz-adv-x="573" d="M272 1227q0 -68 -43 -165t-92 -140q-18 -16 -49 -17q-29 0 -51.5 20.5t-22.5 53.5q0 31 25 55q63 53 72 133q-33 27 -33 74q0 39 28.5 66.5t65.5 27.5q51 0 75.5 -30.5t24.5 -77.5zM545 1227q0 -68 -43 -165t-92 -140q-18 -16 -50 -17q-29 0 -51 20.5t-22 53.5 q0 31 24 55q63 53 72 133q-33 27 -33 74q0 39 29 66.5t65 27.5q51 0 76 -30.5t25 -77.5z" />
<glyph unicode="&#x201e;" horiz-adv-x="555" d="M258 74q0 -70 -43 -174.5t-92 -147.5q-20 -18 -49 -18t-51.5 20.5t-22.5 52.5q0 31 25 56q25 23 46 67.5t25 83.5q-33 27 -33 74q0 39 30 66.5t67 27.5q49 0 73.5 -30.5t24.5 -77.5zM535 74q0 -70 -43 -174.5t-93 -147.5q-23 -18 -49 -18q-29 0 -51.5 20.5t-22.5 52.5 q0 31 25 56q25 23 46.5 67.5t25.5 83.5q-33 27 -33 74q0 39 29.5 66.5t66.5 27.5q49 0 74 -30.5t25 -77.5z" />
<glyph unicode="&#x2022;" horiz-adv-x="489" d="M451 575q0 -84 -60.5 -144t-144.5 -60q-86 0 -146.5 60.5t-60.5 143.5q0 86 60.5 146.5t146.5 60.5q84 0 144.5 -60.5t60.5 -146.5z" />
<glyph unicode="&#x2026;" horiz-adv-x="819" d="M508 86q0 -41 -28.5 -68.5t-67.5 -27.5t-68 27.5t-29 68.5t29 69.5t68 28.5t67.5 -28.5t28.5 -69.5zM250 86q0 -41 -28.5 -68.5t-67.5 -27.5t-68 27.5t-29 68.5t29 69.5t68 28.5t67.5 -28.5t28.5 -69.5zM764 86q0 -41 -27.5 -68.5t-68.5 -27.5t-69 27.5t-28 68.5t29 69.5 t68 28.5t67.5 -28.5t28.5 -69.5z" />
<glyph unicode="&#x202f;" horiz-adv-x="341" />
<glyph unicode="&#x2039;" horiz-adv-x="481" d="M451 811q0 -25 -19 -47l-242 -272l240 -271q18 -18 19 -47q0 -31 -21.5 -51.5t-50.5 -20.5q-33 0 -53 25l-283 317q-18 23 -18 48q0 28 18 49l283 317q18 25 53 25q29 0 51.5 -19.5t22.5 -52.5z" />
<glyph unicode="&#x203a;" horiz-adv-x="481" d="M459 489q0 -23 -19 -45l-282 -317q-23 -25 -54 -25q-29 0 -51 20.5t-22 51.5q0 25 18 47l242 271l-242 272q-18 18 -18 47q0 33 21.5 52.5t49.5 19.5q35 0 54 -25l284 -317q19 -21 19 -52z" />
<glyph unicode="&#x205f;" horiz-adv-x="427" />
<glyph unicode="&#x20ac;" horiz-adv-x="1304" d="M1251 221q0 -33 -30 -57q-270 -186 -525 -187q-184 0 -322 111t-179 287h-72q-31 0 -52.5 20.5t-21.5 50.5q0 29 21.5 50.5t52.5 21.5h55q4 70 12 105h-67q-31 0 -52.5 21.5t-21.5 50t21.5 50t52.5 21.5h113q72 156 225 279.5t329.5 193.5t362.5 96q4 2 12 2 q31 0 52.5 -20.5t21.5 -50.5q0 -27 -17.5 -47.5t-43.5 -24.5q-236 -33 -453 -145.5t-324 -282.5h426q29 0 50.5 -21.5t21.5 -50t-21.5 -50t-50.5 -21.5h-485q-14 -57 -14 -105h499q29 0 50.5 -21.5t21.5 -50.5q0 -31 -21.5 -51t-50.5 -20h-481q39 -117 135.5 -185.5 t223.5 -68.5q201 0 428 160q25 14 43 14q31 0 53 -21.5t22 -52.5z" />
<glyph unicode="&#x2122;" horiz-adv-x="1452" d="M1378 901q0 -27 -20.5 -46t-49 -19t-49 19t-20.5 46v182q0 61 -26.5 92t-67.5 31q-72 0 -107 -69q4 -16 4 -54v-182q0 -27 -20.5 -46t-49 -19t-49 19t-20.5 46v182q0 106 -76 121q-6 2 -22 2q-74 0 -107 -80v-225q0 -27 -20.5 -46t-49 -19t-49 19t-20.5 46v371 q0 27 20.5 46t49.5 19q41 0 61 -34q49 35 121 34q102 0 168 -69q63 70 166 69q31 0 45 -4q80 -14 134 -76.5t54 -173.5v-182zM514 1249.5q0 -26.5 -20.5 -46t-49.5 -19.5h-104v-283q0 -27 -20.5 -46t-49 -19t-50 19t-21.5 46v283h-97q-29 0 -49 19.5t-20 46t20.5 47 t48.5 20.5h342q29 0 49.5 -20.5t20.5 -47z" />
<glyph horiz-adv-x="483" />
</font>
</defs>
</svg>
